<?xml version="1.0" standalone="no"?>
<!DOCTYPE svg PUBLIC "-//W3C//DTD SVG 1.1//EN" "http://www.w3.org/Graphics/SVG/1.1/DTD/svg11.dtd" >
<svg xmlns="http://www.w3.org/2000/svg" xmlns:xlink="http://www.w3.org/1999/xlink" version="1.1">
<metadata>
Created by FontForge 20201107 at Tue Feb 25 11:53:11 2025
 By 
Copyrighted (c) 1981, 1997 by and the property of Linotype-Hell AG and/or its subsidiaries. All Rights Reserved. All Cyrillic characters designed by DoubleAlex. Helvetica is a registered Trademark of Linotype-Hell AG and/or its subsidiaries.
</metadata>
<defs>
<font id="HelveticaNeue-Thin" horiz-adv-x="1062" >
  <font-face 
    font-family="Helvetica Neue"
    font-weight="200"
    font-stretch="normal"
    units-per-em="2048"
    panose-1="2 0 5 3 4 0 0 2 0 4"
    ascent="1638"
    descent="-410"
    x-height="1049"
    cap-height="1458"
    bbox="-729 -647 2468 2281"
    underline-thickness="102"
    underline-position="-614"
    unicode-range="U+0008-FE48"
  />
<missing-glyph horiz-adv-x="2048" 
 />
    <glyph glyph-name="IJ" unicode="IJ" horiz-adv-x="1394" 
d="M129 0v1462h90v-1462h-90zM451 465h90q-6 -90 3 -159q9 -66 40 -132q30 -62 99 -97q68 -34 171 -34q50 0 96 8q36 6 75 21q31 12 56 37t40 43t27 54q11 33 16 58q5 26 8 66q4 58 4 64v67v24v977h90v-1007q0 -65 -1 -83q-2 -29 -9 -88q-8 -66 -20 -96q-15 -38 -43 -83
q-29 -46 -71 -74q-39 -26 -107 -46t-151 -20q-112 0 -193 33t-123 78q-43 46 -65 120q-23 75 -27 131q-5 63 -5 138z" />
    <glyph glyph-name="ij" unicode="ij" horiz-adv-x="706" 
d="M211 1251h-78v211h78v-211zM211 0h-78v1053h78v-1053zM573 1251h-77v211h77v-211zM496 1053h77v-1166q0 -123 -45 -193q-45 -71 -170 -71h-32q-19 0 -33 2v68q25 -4 51 -4q83 0 118 44q34 43 34 161v1159z" />
    <glyph glyph-name="napostrophe" unicode="&#x22;n" horiz-adv-x="1097" 
d="M150 0v1053h77v-226h4q41 118 146 184t231 66q88 0 156 -21q66 -21 106 -62q43 -45 64 -80q25 -42 35 -97q10 -57 12 -89q2 -42 2 -77v-651h-78v666q0 344 -299 344q-175 0 -277 -122t-102 -319v-569h-77zM57 1354v41q57 12 64 67h-51v191h116v-164q0 -125 -129 -135z
" />
    <glyph glyph-name="uniFB00" unicode="ff" horiz-adv-x="917" 
d="M266 985v-985h-78v985h-188v68h188v217q0 52 19 95q18 41 50 65q31 24 74 36q46 13 89 13q32 0 92 -11v-67q-54 10 -92 10q-66 0 -110 -30t-44 -117v-211h346v217q0 52 19 95q18 41 50 65q31 24 74 36q46 13 89 13q32 0 92 -11v-67q-54 10 -92 10q-66 0 -110 -30
t-44 -117v-211h219v-68h-219v-985h-78v985h-346z" />
    <glyph glyph-name="uniFB01" unicode="fi" horiz-adv-x="796" 
d="M586 0v1053h78v-1053h-78zM586 1251v211h78v-211h-78zM0 985v68h188v217q0 104 66 156q67 53 166 53q32 0 92 -11v-67q-54 10 -92 10q-154 0 -154 -147v-211h219v-68h-219v-985h-78v985h-188z" />
    <glyph glyph-name="uniFB02" unicode="fl" horiz-adv-x="796" 
d="M586 0v1462h78v-1462h-78zM0 985v68h188v217q0 104 66 156q67 53 166 53q32 0 92 -11v-67q-54 10 -92 10q-154 0 -154 -147v-211h219v-68h-219v-985h-78v985h-188z" />
    <glyph glyph-name="uniFB03" unicode="ffi" horiz-adv-x="1220" 
d="M266 985v-985h-78v985h-188v68h188v217q0 52 19 95q18 41 50 65q31 24 74 36q46 13 89 13q32 0 92 -11v-67q-54 10 -92 10q-66 0 -110 -30t-44 -117v-211h346v217q0 52 19 95q18 41 50 65q31 24 74 36q46 13 89 13q32 0 92 -11v-67q-54 10 -92 10q-66 0 -110 -30
t-44 -117v-211h219v-68h-219v-985h-78v985h-346zM1010 1251v211h77v-211h-77zM1010 0v1053h77v-1053h-77z" />
    <glyph glyph-name=".notdef" horiz-adv-x="2048" 
 />
    <glyph glyph-name=".null" horiz-adv-x="0" 
 />
    <glyph glyph-name="uni000D" unicode="&#xd;" horiz-adv-x="0" 
 />
    <glyph glyph-name="uni0008" horiz-adv-x="0" 
 />
    <glyph glyph-name="uni0009" unicode="&#x9;" horiz-adv-x="569" 
 />
    <glyph glyph-name="uni001D" horiz-adv-x="0" 
 />
    <glyph glyph-name="space" unicode=" " horiz-adv-x="569" 
 />
    <glyph glyph-name="exclam" unicode="!" horiz-adv-x="530" 
d="M309 1458v-409l-14 -680h-59l-15 680v409h88zM313 201v-201h-96v201h96z" />
    <glyph glyph-name="quotedbl" unicode="&#x22;" horiz-adv-x="645" 
d="M209 840h-59l-11 563h80zM494 840h-60l-10 563h80z" />
    <glyph glyph-name="numbersign" unicode="#" horiz-adv-x="1138" 
d="M276 0h-73l82 442h-250v70h262l70 381h-248v68h262l84 442h74l-86 -442h319l86 442h72l-84 -442h248v-68h-263l-69 -381h248v-70h-260l-82 -442h-74l82 442h-320zM688 512l72 381h-320l-69 -381h317z" />
    <glyph glyph-name="dollar" unicode="$" horiz-adv-x="1138" 
d="M588 1589v-153h4q208 0 326 -103q116 -101 116 -286v-17h-82q0 166 -88 247q-89 82 -276 89v-606q497 -69 497 -398q0 -179 -134 -287t-359 -108h-4v-180h-58v180q-497 10 -497 443v18h84q0 -9 -1 -15t-1 -12q0 -189 108 -271t307 -93v655q-91 17 -159 39q-69 22 -137 61
q-70 40 -107 108t-37 163q0 164 121 266q122 103 319 107v153h58zM530 772v592q-168 -7 -263 -86q-95 -78 -95 -209q0 -254 358 -297zM588 680v-643q180 5 297 81q116 76 116 247q0 66 -26 117q-27 52 -63 82q-37 31 -99 56q-56 23 -107 35q-25 6 -118 25z" />
    <glyph glyph-name="percent" unicode="%" horiz-adv-x="1593" 
d="M1280 1454l-907 -1503h-74l909 1503h72zM1180 698q144 0 238 -101q95 -103 95 -255q0 -164 -93 -267q-93 -104 -242 -104q-150 0 -243 102t-93 261q0 158 96 261t242 103zM426 1434q147 0 242 -101q94 -100 94 -258q0 -163 -94 -264q-94 -102 -242 -102q-151 0 -243 101
q-93 102 -93 263q0 155 95 258t241 103zM1174 635q-109 0 -184 -85q-75 -86 -75 -210q0 -135 75 -221t190 -86q110 0 185 87t75 216t-76 214t-190 85zM424 1370q-112 0 -186 -84q-74 -85 -74 -213q0 -132 74 -218q73 -85 188 -85q112 0 187 87t75 218q0 129 -75 212t-189 83
z" />
    <glyph glyph-name="ampersand" unicode="&#x26;" horiz-adv-x="1214" 
d="M1057 602q-6 -159 -76 -311l240 -291h-105l-178 219q-153 -248 -424 -248q-187 0 -309 107q-121 106 -121 272q0 79 33 148q34 72 95 128q64 60 118 96q60 41 135 83q-32 37 -70 83q-18 22 -58 81q-38 56 -54 103q-17 49 -17 95q0 125 88 203t228 78q132 0 217 -78
q86 -78 86 -196q0 -65 -25 -124q-23 -55 -80 -109q-55 -52 -91 -79q-34 -25 -109 -76l348 -432q45 124 51 248h78zM535 842q270 152 270 325q0 91 -66 151t-161 60q-102 0 -167 -59q-67 -61 -67 -150q0 -48 38 -118q36 -66 67 -107q15 -20 86 -102zM510 748
q-64 -38 -120 -74q-38 -25 -104 -82q-57 -49 -88 -112q-30 -60 -30 -130q0 -134 100 -222q101 -89 250 -89q114 0 212 63q97 63 161 177z" />
    <glyph glyph-name="quotesingle" unicode="'" horiz-adv-x="417" 
d="M238 840h-60l-10 563h80z" />
    <glyph glyph-name="parenleft" unicode="(" horiz-adv-x="493" 
d="M473 1475q-119 -198 -185 -443q-67 -250 -67 -489q0 -464 252 -920h-72q-262 460 -262 926q0 480 262 926h72z" />
    <glyph glyph-name="parenright" unicode=")" horiz-adv-x="493" 
d="M354 549q0 -466 -262 -926h-72q252 456 252 920q0 243 -66 489q-65 242 -186 443h72q262 -446 262 -926z" />
    <glyph glyph-name="asterisk" unicode="*" horiz-adv-x="720" 
d="M662 1251l-256 -84l159 -215l-47 -34l-158 215l-163 -211l-50 34l164 211l-252 84l19 56l252 -86v266h59v-266l252 86z" />
    <glyph glyph-name="plus" unicode="+" horiz-adv-x="1228" 
d="M580 59v461h-465v68h465v459h71v-459h465v-68h-465v-461h-71z" />
    <glyph glyph-name="comma" unicode="," horiz-adv-x="569" 
d="M336 209v-174q0 -109 -26 -187q-25 -75 -105 -110v69q68 44 69 193h-41v209h103z" />
    <glyph glyph-name="hyphen" unicode="-" horiz-adv-x="720" 
d="M580 594v-80h-439v80h439z" />
    <glyph glyph-name="period" unicode="." horiz-adv-x="569" 
d="M336 209v-209h-103v209h103z" />
    <glyph glyph-name="slash" unicode="/" horiz-adv-x="681" 
d="M705 1470l-652 -1488h-73l653 1488h72z" />
    <glyph glyph-name="zero" unicode="0" horiz-adv-x="1138" 
d="M569 1434q117 0 209 -45q93 -46 148 -117q54 -70 92 -170q36 -95 50 -196q13 -94 13 -204q0 -142 -23 -257q-24 -121 -79 -232t-161 -178q-105 -66 -253 -66q-246 0 -377 184t-131 527q0 138 24 259q24 120 77 239q52 117 158 186q107 70 253 70zM569 1356
q-202 0 -315 -179t-113 -501q0 -86 11 -172q11 -87 38 -169q28 -87 75 -150q45 -61 123 -102q76 -40 177 -40q126 0 215 61q91 62 134 165q46 109 63 209q18 105 18 222q0 123 -17 222q-17 100 -62 207q-43 103 -133 165q-89 62 -214 62z" />
    <glyph glyph-name="one" unicode="1" horiz-adv-x="1138" 
d="M682 1409v-1409h-86v1257q-88 -88 -170 -127q-80 -38 -205 -53v70q139 30 220 83q79 52 167 179h74z" />
    <glyph glyph-name="two" unicode="2" horiz-adv-x="1138" 
d="M1034 76v-76h-940q12 159 97 266q86 109 243 215l127 86l105 74q29 20 94 77q58 51 89 94q30 43 54 103q25 64 25 127q0 147 -94 232q-95 86 -256 86q-190 0 -279 -116q-87 -114 -92 -310h-84q2 24 2 43q7 207 127 333q118 124 330 124q195 0 313 -107q117 -106 117 -283
q0 -129 -64 -230q-62 -97 -182 -193q-90 -71 -246 -177q-79 -53 -110 -76q-28 -21 -89 -74q-61 -54 -91 -104q-30 -51 -42 -114h846z" />
    <glyph glyph-name="three" unicode="3" horiz-adv-x="1138" 
d="M111 965q5 221 127 345q123 124 340 124q195 0 316 -101q120 -101 120 -264q0 -129 -81 -215q-81 -85 -202 -100q142 -23 231 -112t89 -243q0 -191 -135 -311q-134 -119 -351 -119q-225 0 -358 123t-133 332v41h80v-29q0 -184 109 -289q108 -104 304 -104q178 0 288 97
q112 98 112 251q0 324 -428 324h-47v69h57q181 0 281 73t100 210q0 133 -96 213q-97 80 -259 80q-181 0 -282 -102q-101 -103 -107 -293h-75z" />
    <glyph glyph-name="four" unicode="4" horiz-adv-x="1138" 
d="M1061 432v-72h-232v-360h-81v360h-682v84l682 969h81v-981h232zM748 432v703q0 74 2 178q-93 -143 -99 -152l-514 -729h611z" />
    <glyph glyph-name="five" unicode="5" horiz-adv-x="1138" 
d="M979 1403v-78h-655l-117 -553q124 172 358 172q207 0 342 -137t135 -348t-138 -350q-138 -140 -349 -140q-218 0 -346 124q-129 124 -133 335h80q6 -175 109 -281t290 -106q176 0 290 118q113 117 113 298q0 179 -114 298q-113 117 -291 117q-229 0 -354 -192l-80 2
l145 721h715z" />
    <glyph glyph-name="six" unicode="6" horiz-adv-x="1138" 
d="M1036 1061h-84q-17 132 -114 216q-98 85 -238 85q-107 0 -189 -50q-80 -49 -127 -125t-74 -180q-29 -113 -36 -195q-8 -94 -8 -187q50 142 164 224q113 81 268 81q201 0 334 -136t133 -341q0 -206 -137 -345t-344 -139q-262 0 -396 209q-100 157 -100 473q0 381 133 581
q134 202 381 202q177 0 295 -103q116 -102 139 -270zM582 858q-166 0 -280 -117t-114 -288q0 -175 114 -293q114 -119 284 -119t282 118q113 119 113 292q0 175 -114 291t-285 116z" />
    <glyph glyph-name="seven" unicode="7" horiz-adv-x="1138" 
d="M1022 1403v-82q-269 -264 -432 -624q-161 -356 -172 -697h-88q8 345 180 715t436 610h-831v78h907z" />
    <glyph glyph-name="eight" unicode="8" horiz-adv-x="1138" 
d="M395 764q-264 62 -264 313q0 167 118 261q120 96 320 96q204 0 322 -94q117 -93 117 -259q0 -124 -73 -208q-71 -82 -190 -109q143 -21 232 -116q88 -94 88 -247q0 -200 -131 -316t-361 -116q-233 0 -367 114t-134 310q0 153 90 251t233 120zM567 1360q-169 0 -260 -75
q-92 -75 -92 -210q0 -131 95 -205q94 -73 261 -73q165 0 258 74q95 75 95 206q0 135 -94 209t-263 74zM565 729q-190 0 -299 -89q-108 -88 -108 -245q0 -166 109 -260t304 -94q190 0 299 95t109 259q0 157 -110 246q-109 88 -304 88z" />
    <glyph glyph-name="nine" unicode="9" horiz-adv-x="1138" 
d="M109 334h81q22 -132 120 -212q97 -79 237 -79q204 0 314 173t110 497v78q-122 -316 -430 -316q-203 0 -337 135q-134 136 -134 340q0 208 136 345q137 139 341 139q257 0 393 -199q111 -164 111 -492q0 -774 -506 -774q-175 0 -296 100q-119 98 -140 265zM547 1360
q-166 0 -280 -117q-113 -116 -113 -291t112 -288q113 -115 283 -115t284 116q113 114 113 289q0 171 -115 289q-114 117 -284 117z" />
    <glyph glyph-name="colon" unicode=":" horiz-adv-x="569" 
d="M336 209v-209h-103v209h103zM336 1049v-209h-103v209h103z" />
    <glyph glyph-name="semicolon" unicode=";" horiz-adv-x="569" 
d="M336 209v-174q0 -109 -26 -187q-25 -75 -105 -110v69q68 44 69 193h-41v209h103zM336 1049v-209h-103v209h103z" />
    <glyph glyph-name="less" unicode="&#x3c;" horiz-adv-x="1228" 
d="M113 516v74l1001 416v-74l-915 -379l915 -375v-76z" />
    <glyph glyph-name="equal" unicode="=" horiz-adv-x="1228" 
d="M113 702v68h1001v-68h-1001zM113 328v67h1001v-67h-1001z" />
    <glyph glyph-name="greater" unicode="&#x3e;" horiz-adv-x="1228" 
d="M1116 516l-1001 -414v76l917 375l-917 379v74l1001 -416v-74z" />
    <glyph glyph-name="question" unicode="?" 
d="M88 1006q0 206 113 345q113 138 331 138q186 0 303 -103q115 -102 115 -264q0 -69 -16 -123q-16 -55 -63 -112q-53 -65 -71 -83q-14 -14 -98 -91q-93 -87 -116 -144t-23 -202h-80v22q0 141 32 211t134 166q82 77 107 104q34 38 72 108q38 71 38 142q0 130 -94 212
q-95 83 -242 83q-182 0 -273 -120q-91 -119 -89 -289h-80zM569 209v-209h-94v209h94z" />
    <glyph glyph-name="at" unicode="@" horiz-adv-x="1638" 
d="M1450 225l31 -41q-157 -108 -301 -159q-148 -52 -326 -52q-336 0 -568 200q-231 199 -231 527q0 348 247 565q248 218 591 218q289 0 485 -163q197 -164 197 -439q0 -191 -115 -362q-114 -169 -297 -169q-63 0 -106 37t-43 98q0 15 16 95q-108 -230 -307 -230
q-129 0 -201 87q-71 86 -71 216q0 178 116 331q117 155 287 155q112 0 180 -65t74 -173l63 211h72l-121 -391q-51 -175 -51 -225q0 -44 31 -69q30 -24 78 -24q102 0 183 83q82 83 119 191q38 109 38 206q0 257 -185 401q-183 143 -444 143q-325 0 -552 -205
q-228 -206 -228 -522q0 -205 105 -361q106 -157 272 -235q164 -77 366 -77q170 0 306 48q138 48 290 150zM1069 864q0 96 -54 159q-53 62 -151 62q-141 0 -237 -142q-97 -144 -97 -294q0 -103 54 -174q52 -69 153 -69q111 0 187 87q75 86 116 209q29 93 29 162z" />
    <glyph glyph-name="A" unicode="A" horiz-adv-x="1214" 
d="M659 1458l580 -1458h-98l-183 471h-702l-186 -471h-97l592 1458h94zM930 545l-266 676q-7 17 -28 77q-24 70 -26 76l-55 -147l-272 -682h647z" />
    <glyph glyph-name="B" unicode="B" horiz-adv-x="1290" 
d="M127 1458h600q187 0 317 -92t130 -270q0 -126 -77 -218t-204 -114q147 -17 239 -113q91 -95 91 -245q0 -211 -170 -324q-124 -82 -363 -82h-563v1458zM215 1382v-589h459q411 0 411 292q0 157 -107 227t-276 70h-487zM215 719v-641h469q451 0 451 330q0 311 -439 311
h-481z" />
    <glyph glyph-name="C" unicode="C" horiz-adv-x="1441" 
d="M1378 565q-21 -267 -194 -432q-173 -166 -436 -166q-302 0 -485 208q-183 209 -183 550q0 345 187 556q188 212 491 212q222 0 397 -130q177 -132 201 -343h-86q-39 183 -178 288t-338 105q-262 0 -424 -189t-162 -497q0 -306 160 -495q159 -187 422 -187q230 0 374 145
q143 144 170 375h84z" />
    <glyph glyph-name="D" unicode="D" horiz-adv-x="1366" 
d="M131 1458h492q324 0 493 -188q170 -190 170 -518q0 -341 -163 -546q-164 -206 -498 -206h-494v1458zM219 1380v-1302h375q604 0 604 667q0 297 -143 465q-144 170 -437 170h-399z" />
    <glyph glyph-name="E" unicode="E" horiz-adv-x="1146" 
d="M1102 1458v-78h-895v-583h840v-78h-840v-641h903v-78h-991v1458h983z" />
    <glyph glyph-name="F" unicode="F" horiz-adv-x="1052" 
d="M1061 1458v-78h-830v-585h746v-76h-746v-719h-88v1458h918z" />
    <glyph glyph-name="G" unicode="G" horiz-adv-x="1517" 
d="M1399 713v-713h-64l-12 260l2 94q-56 -182 -212 -285q-154 -102 -347 -102q-308 0 -498 207q-190 206 -190 539q0 347 190 561q191 215 498 215q231 0 403 -133t205 -350h-84q-39 187 -184 296t-340 109q-273 0 -436 -191q-164 -193 -164 -507q0 -301 165 -486
q165 -184 437 -184q249 0 401 157t152 414v25h-539v74h617z" />
    <glyph glyph-name="H" unicode="H" horiz-adv-x="1372" 
d="M1243 1458v-1458h-88v723h-936v-723h-88v1458h88v-657h936v657h88z" />
    <glyph glyph-name="I" unicode="I" horiz-adv-x="348" 
d="M219 1458v-1458h-88v1458h88z" />
    <glyph glyph-name="J" unicode="J" horiz-adv-x="985" 
d="M858 1458v-1063q0 -428 -403 -428q-218 0 -313 111q-95 112 -95 328q0 19 2 55h84v-43q0 -189 69 -282t253 -93q176 0 245 92q70 93 70 266v1057h88z" />
    <glyph glyph-name="K" unicode="K" horiz-adv-x="1255" 
d="M1251 1458l-671 -606l712 -852h-112l-664 793l-303 -277v-516h-88v1458h88v-837l922 837h116z" />
    <glyph glyph-name="L" unicode="L" horiz-adv-x="1024" 
d="M1047 80v-80h-922v1458h90v-1378h832z" />
    <glyph glyph-name="M" unicode="M" horiz-adv-x="1656" 
d="M1528 1458v-1458h-86v1092q0 140 12 284q-12 -28 -33 -87q-24 -68 -32 -85l-515 -1204h-86l-516 1190q-3 5 -67 182q10 -224 10 -280v-1092h-86v1458h123l465 -1081l114 -285q39 109 103 256q114 268 271.5 636.5t201.5 473.5h121z" />
    <glyph glyph-name="N" unicode="N" horiz-adv-x="1388" 
d="M1245 1458v-1458h-100l-817 1155q-80 115 -127 201q6 -56 6 -223v-1133h-86v1458h102l801 -1134q70 -103 141 -220q-6 137 -6 279l-2 1075h88z" />
    <glyph glyph-name="O" unicode="O" horiz-adv-x="1517" 
d="M756 1493q308 0 502 -215t194 -559q0 -337 -192 -546q-192 -208 -504 -208t-501 210t-189 554q0 342 191 552q192 212 499 212zM756 1415q-187 0 -326 -97q-140 -98 -207 -250t-67 -335q0 -310 166 -500t434 -190q271 0 438 188q168 189 168 492q0 309 -169 500
q-170 192 -437 192z" />
    <glyph glyph-name="P" unicode="P" horiz-adv-x="1210" 
d="M135 1458h567q212 0 312 -67q164 -111 164 -336q0 -215 -152 -326q-114 -84 -299 -84h-504v-645h-88v1458zM223 1380v-659h453q177 0 260 49q154 91 154 281q0 188 -129 272q-60 39 -118 48q-59 9 -155 9h-465z" />
    <glyph glyph-name="Q" unicode="Q" horiz-adv-x="1517" 
d="M1456 -10l-45 -58l-240 172q-164 -137 -409 -137q-319 0 -508 213q-188 212 -188 539q0 343 192 558q192 214 502 214q305 0 497 -211q193 -213 193 -547q0 -173 -57 -326t-162 -255zM1163 203q197 215 197 530q0 300 -167 490q-166 188 -433 188q-271 0 -437 -190
q-167 -191 -167 -498q0 -291 159 -484q159 -194 447 -194q196 0 340 111l-230 161l48 60z" />
    <glyph glyph-name="R" unicode="R" horiz-adv-x="1290" 
d="M131 1458h600q197 0 303 -67q162 -108 162 -320q0 -146 -84 -242q-83 -95 -225 -122q111 -18 180 -67q67 -48 88 -159q13 -74 19 -203q6 -145 20 -208q6 -30 29 -70h-99q-13 19 -20 59q-3 17 -8 88q-3 44 -7 127q-2 35 -6 84q-15 193 -107 252q-93 60 -304 60h-453v-670
h-88v1458zM219 1382v-639h440q70 0 134 8q65 8 120 27q62 21 103 56t66 94q26 61 26 139q0 176 -133 258q-95 57 -273 57h-483z" />
    <glyph glyph-name="S" unicode="S" horiz-adv-x="1290" 
d="M1169 1042h-88q-23 369 -458 369q-193 0 -301 -81q-109 -82 -109 -224q0 -63 23 -111q24 -50 59 -78q39 -31 96 -54q61 -25 122 -39q72 -17 146 -33q31 -5 68 -15q24 -6 56.5 -13.5t42.5 -9.5q30 -7 93 -27t93 -36q29 -16 74 -47q47 -32 66 -64q22 -36 38 -84t16 -110
q0 -194 -145 -305t-402 -111q-267 0 -422 129t-155 385h84q5 -221 134 -330q131 -110 364 -110q213 0 335 89q121 88 121 249q0 50 -14 86q-16 42 -34 68q-20 29 -57 53q-33 21 -67 39q-24 13 -81 29q-70 20 -79 22q-63 14 -82 18q-44 9 -75 17q-225 52 -301 86
q-205 91 -205 305q0 177 134 281t370 104q239 0 383 -111q142 -109 157 -336z" />
    <glyph glyph-name="T" unicode="T" 
d="M1092 1458v-78h-517v-1380h-88v1380h-518v78h1123z" />
    <glyph glyph-name="U" unicode="U" horiz-adv-x="1376" 
d="M1245 1458v-960q0 -247 -148 -388q-149 -141 -405 -141q-573 0 -573 602v887h90v-891q0 -257 113 -390q112 -132 370 -132q250 0 358 135q107 134 107 387v891h88z" />
    <glyph glyph-name="V" unicode="V" horiz-adv-x="1138" 
d="M1167 1458l-542 -1458h-103l-553 1458h99l436 -1167q17 -42 41 -118q27 -85 30 -95q11 45 70 209l432 1171h90z" />
    <glyph glyph-name="W" unicode="W" horiz-adv-x="1820" 
d="M1829 1458l-418 -1458h-100l-342 1151q-46 154 -62 225q-17 -76 -63 -229l-334 -1147h-100l-424 1458h94l321 -1118q45 -155 62 -246q11 68 61 242l330 1122h109l337 -1132q36 -121 62 -232q18 103 57 232l322 1132h88z" />
    <glyph glyph-name="X" unicode="X" horiz-adv-x="1138" 
d="M1143 1458l-520 -708l546 -750h-108l-494 682l-497 -682h-105l549 750l-518 708h106l465 -645l475 645h101z" />
    <glyph glyph-name="Y" unicode="Y" horiz-adv-x="1175" 
d="M1221 1458l-590 -850v-608h-88v608l-588 850h106l463 -672q38 -52 66 -102l61 98l469 676h101z" />
    <glyph glyph-name="Z" unicode="Z" horiz-adv-x="1099" 
d="M1081 1458v-86l-991 -1294h1010v-78h-1106v88l991 1292q-31 0 -48 -1t-81 -1h-801v80h1026z" />
    <glyph glyph-name="bracketleft" unicode="[" horiz-adv-x="493" 
d="M473 1477v-68h-201v-1718h201v-68h-280v1854h280z" />
    <glyph glyph-name="backslash" unicode="\" horiz-adv-x="681" 
d="M705 -18h-74l-651 1488h71z" />
    <glyph glyph-name="bracketright" unicode="]" horiz-adv-x="493" 
d="M303 1479v-1856h-283v68h203v1718h-203v70h283z" />
    <glyph glyph-name="asciicircum" unicode="^" horiz-adv-x="1228" 
d="M238 561l337 842h80l338 -842h-80l-299 762l-297 -762h-79z" />
    <glyph glyph-name="underscore" unicode="_" horiz-adv-x="1024" 
d="M0 -256v102h1024v-102h-1024z" />
    <glyph glyph-name="grave" unicode="`" horiz-adv-x="342" 
d="M39 1507l248 -286h-78l-277 286h107z" />
    <glyph glyph-name="a" unicode="a" horiz-adv-x="1024" 
d="M1022 74v-66q-34 -12 -84 -12q-69 0 -95 38t-26 138v51q-68 -131 -164 -191q-98 -61 -245 -61q-164 0 -255 78q-92 78 -92 215q0 289 402 322q220 17 262 27q52 12 72 44q14 21 14 109q0 119 -76 180q-77 62 -221 62q-293 0 -317 -281h-78q11 171 114 260q105 90 289 90
q212 0 312 -112q28 -32 43 -79q13 -41 15 -75q1 -19 1 -90v-543q0 -35 1 -45q2 -18 8 -33q8 -19 24 -26q18 -8 43 -8q18 0 53 8zM813 594q-29 -26 -72 -39q-61 -20 -225 -37t-244 -53q-122 -55 -122 -193q0 -107 73 -168t199 -61q169 0 279 104q112 106 112 263v184z" />
    <glyph glyph-name="b" unicode="b" horiz-adv-x="1138" 
d="M201 1458v-657q105 282 399 282q214 0 338 -150q125 -151 125 -407q0 -255 -125 -407t-338 -152q-304 0 -403 285v-252h-78v1458h82zM586 1012q-175 0 -280 -132t-105 -352q0 -224 106 -357q107 -134 285 -134q176 0 281 131q106 132 106 354q2 228 -105 359t-288 131z
" />
    <glyph glyph-name="c" unicode="c" 
d="M1001 369q-24 -189 -142 -294q-120 -106 -304 -106q-228 0 -355 157q-126 156 -126 394q0 256 134 408q133 151 357 151q182 0 295 -93q112 -93 133 -259h-84q-17 130 -108 206q-92 77 -234 77q-187 0 -298 -132t-111 -354q0 -218 108 -352q108 -133 287 -133
q152 0 249 88t118 242h81z" />
    <glyph glyph-name="d" unicode="d" horiz-adv-x="1138" 
d="M1016 1458v-1458h-78v256q-39 -137 -145 -213t-254 -76q-217 0 -343 149q-126 148 -126 404q0 255 128 409q127 152 341 152q143 0 245 -72q104 -73 150 -202v651h82zM541 1010q-176 0 -281 -132q-104 -131 -104 -358q0 -226 103 -354q103 -129 284 -129q182 0 287 131
q106 132 106 356q0 203 -99 344q-100 142 -296 142z" />
    <glyph glyph-name="e" unicode="e" 
d="M993 356q-28 -175 -147 -283q-118 -108 -301 -108q-216 0 -347 150q-130 149 -130 399q0 251 132 407t345 156q222 0 340 -155q119 -157 119 -385v-29h-850q0 -200 99 -336q99 -137 294 -137q143 0 238 84q96 86 126 237h82zM920 580q0 174 -98 299t-277 125
q-181 0 -277 -119q-96 -118 -114 -305h766z" />
    <glyph glyph-name="f" unicode="f" horiz-adv-x="493" 
d="M520 1460v-74q-77 7 -82 7q-49 0 -82 -15q-34 -16 -50 -30q-17 -16 -25 -55q-9 -45 -10 -61t-1 -73v-20v-90h219v-72h-219v-977h-82v977h-182v72h182v131q0 140 49 214q48 72 197 72q24 0 86 -6z" />
    <glyph glyph-name="g" unicode="g" horiz-adv-x="1099" 
d="M985 1049v-965q0 -196 -59 -299q-105 -184 -396 -184q-187 0 -294 83t-119 238h84q8 -125 98 -188q91 -64 236 -64q213 0 305 123q65 89 65 289v221q-100 -268 -393 -268q-203 0 -324 139q-120 138 -120 371q0 241 126 387q126 145 332 145q277 0 383 -268v240h76z
M528 1004q-172 0 -274 -122t-102 -327t100 -326q99 -120 270 -120q186 0 285 130q98 129 98 324q0 199 -103 320t-274 121z" />
    <glyph glyph-name="h" unicode="h" 
d="M201 1458v-579l-2 -68q45 120 140 193q93 71 236 71q187 0 281 -108q94 -107 94 -295v-672h-82v659q0 159 -74 252q-75 95 -235 95q-131 0 -219 -79t-121 -208q-18 -73 -18 -187v-532h-82v1458h82z" />
    <glyph glyph-name="i" unicode="i" horiz-adv-x="344" 
d="M213 1458v-207h-82v207h82zM213 1049v-1049h-82v1049h82z" />
    <glyph glyph-name="j" unicode="j" horiz-adv-x="344" 
d="M215 1049v-1160q0 -148 -49 -210t-191 -62q-13 0 -49 4v70h41q100 0 133 42t33 150v1166h82zM215 1458v-205h-82v205h82z" />
    <glyph glyph-name="k" unicode="k" horiz-adv-x="948" 
d="M958 1049l-460 -392l491 -657h-104l-449 600l-237 -203v-397h-82v1458h82v-966q18 15 42 37q30 29 42 38l563 482h112z" />
    <glyph glyph-name="l" unicode="l" horiz-adv-x="344" 
d="M213 1458v-1458h-82v1458h82z" />
    <glyph glyph-name="m" unicode="m" horiz-adv-x="1630" 
d="M199 1049v-213q44 110 130 175q87 66 212 66q239 0 305 -225q106 225 340 225q158 0 245 -93t87 -245v-739h-82v709q0 292 -267 292q-136 0 -215 -83q-94 -95 -94 -273v-645h-82v692q0 124 -30 185q-60 124 -224 124q-150 0 -235 -108q-86 -109 -86 -297v-596h-82v1049
h78z" />
    <glyph glyph-name="n" unicode="n" 
d="M197 1049v-232q114 260 387 260q174 0 271 -103t97 -286v-688h-82v647q0 357 -305 357q-206 0 -307 -173q-59 -103 -59 -288v-543h-82v1049h80z" />
    <glyph glyph-name="o" unicode="o" horiz-adv-x="1099" 
d="M553 1079q220 0 351 -152q132 -153 132 -409q0 -252 -132 -400q-132 -149 -353 -149q-222 0 -355 151t-133 404q0 248 135 403q133 152 355 152zM551 1008q-181 0 -292 -134q-112 -135 -112 -350q0 -221 110 -352t296 -131q181 0 289 130q108 131 108 347q0 222 -108 356
t-291 134z" />
    <glyph glyph-name="p" unicode="p" horiz-adv-x="1138" 
d="M205 1049v-250q102 278 391 278q214 0 341 -152q128 -154 128 -407q0 -248 -128 -402q-127 -153 -339 -153q-146 0 -248 72t-141 203v-617h-82v1428h78zM592 1008q-183 0 -285 -130t-102 -362q0 -128 38 -234t129 -178q90 -71 222 -71q174 0 279 133q106 135 106 352
q0 226 -105 358t-282 132z" />
    <glyph glyph-name="q" unicode="q" horiz-adv-x="1138" 
d="M1012 1049v-1428h-82v619q-102 -271 -395 -271q-211 0 -337 150t-126 401q0 255 128 409q127 152 343 152q285 0 391 -278v246h78zM545 1010q-180 0 -285 -132q-104 -131 -104 -360q0 -222 104 -350q105 -129 283 -129t283 130q106 132 106 351q0 229 -104 360
q-103 130 -283 130z" />
    <glyph glyph-name="r" unicode="r" horiz-adv-x="569" 
d="M602 1057v-84h-31q-181 0 -288 -142q-59 -79 -73 -162q-15 -87 -15 -216v-453h-82v1049h80v-277q57 152 153 218q97 67 256 67z" />
    <glyph glyph-name="s" unicode="s" horiz-adv-x="985" 
d="M879 743h-84q-12 139 -94 201t-230 62q-131 0 -208 -56t-77 -149q0 -17 6 -45q4 -21 12 -36q9 -18 23 -31q17 -15 27 -24t36 -21q18 -9 38 -16q26 -10 45 -14q31 -7 46 -12q13 -4 51 -12l50 -10q65 -14 109 -26q25 -7 98 -35q64 -25 97 -53q32 -27 59 -77q26 -48 26 -113
q0 -139 -113 -224t-300 -85q-200 0 -314 102t-114 283h82q0 -155 91 -233t259 -78q144 0 236 63q91 63 91 168q0 45 -21 81t-46 58q-24 21 -75 41q-45 18 -76 25q-78 18 -81 19l-8 4q-6 0 -9 1t-9 1q-9 3 -57 13q-16 3 -36.5 7.5t-25.5 5.5q-23 5 -59 16q-47 14 -60 21
l-51 25q-31 17 -47 36q-9 10 -34 44q-15 20 -24 55q-8 32 -8 68q0 131 102 208q101 76 281 76q184 0 288 -85q107 -87 108 -249z" />
    <glyph glyph-name="t" unicode="t" horiz-adv-x="530" 
d="M502 1049v-72h-226v-711q0 -40 2 -64q2 -21 7 -50q6 -35 20 -47q12 -11 42 -24q25 -11 69 -11q32 0 86 8v-76q-64 -8 -99 -8q-63 0 -102 16q-41 17 -62 36q-21 20 -32 64q-9 38 -11 72q-1 19 -1 92v25v678h-195v72h195v329h81v-329h226z" />
    <glyph glyph-name="u" unicode="u" 
d="M938 1049v-1049h-78v221q-111 -252 -377 -252q-181 0 -276 109q-94 107 -94 295v676h82v-658q0 -350 305 -350q176 0 266 128q90 127 90 310v570h82z" />
    <glyph glyph-name="v" unicode="v" horiz-adv-x="909" 
d="M915 1049l-397 -1049h-96l-426 1049h90l301 -738q23 -61 45 -122q15 -42 39 -107q20 59 84 233l274 734h86z" />
    <glyph glyph-name="w" unicode="w" horiz-adv-x="1441" 
d="M1444 1049l-338 -1049h-94l-248 797q-26 81 -43 155q-24 -94 -43 -153l-250 -799h-98l-338 1049h90l244 -766q1 -4 7 -25.5t19 -69t27 -98.5q12 37 27 98q20 81 26 99l238 762h102l238 -766q16 -54 53 -191q35 143 51 187l246 770h84z" />
    <glyph glyph-name="x" unicode="x" horiz-adv-x="909" 
d="M885 1049l-379 -496l420 -553h-107l-366 492l-369 -492h-98l415 549l-383 500h107l328 -439l333 439h99z" />
    <glyph glyph-name="y" unicode="y" horiz-adv-x="909" 
d="M915 1049l-452 -1158q-24 -64 -46 -112q-15 -33 -48 -78t-79 -61q-48 -17 -114 -17q-47 0 -80 4v74q33 -6 68 -6q73 0 117 32q43 31 73 105q48 108 72 170l-444 1047h92l346 -822q18 -43 47 -131q46 133 49 142l311 811h88z" />
    <glyph glyph-name="z" unicode="z" horiz-adv-x="872" 
d="M821 1049v-68l-710 -909h741v-72h-834v78l703 899h-651v72h751z" />
    <glyph glyph-name="braceleft" unicode="{" horiz-adv-x="681" 
d="M666 -379q-152 0 -244 78q-51 44 -77 113q-25 69 -30 119q-4 44 -4 141v143q0 158 -57 221q-58 64 -234 88v54q176 24 234 88q57 63 57 221v143q0 96 4 140q5 51 30 120q26 69 77 113q91 78 244 78v-54q-189 -7 -252 -141q-31 -65 -31 -225v-84q0 -67 -2 -125
q-2 -44 -15 -107q-14 -63 -39 -96q-24 -31 -76 -61q-51 -30 -124 -37q73 -7 124 -37q52 -30 76 -61q25 -33 39 -97q14 -63 15 -106q2 -58 2 -125v-84q0 -160 31 -225q63 -135 252 -142v-53z" />
    <glyph glyph-name="bar" unicode="|" horiz-adv-x="454" 
d="M190 -438v2048h74v-2048h-74z" />
    <glyph glyph-name="braceright" unicode="}" horiz-adv-x="681" 
d="M666 524q-176 -24 -234 -88q-57 -63 -57 -221v-143q0 -97 -4 -141q-5 -50 -30 -119q-26 -69 -77 -113q-92 -78 -244 -78v53q189 7 252 142q31 65 31 225v84q0 67 2 125q1 37 16 106q14 66 38 97t76 61q51 30 124 37q-73 7 -124 37q-52 30 -76 61t-38 96q-15 68 -16 107
q-2 58 -2 125v84q0 160 -31 225q-63 134 -252 141v54q152 0 244 -78q51 -44 77 -113q25 -69 30 -120q4 -44 4 -140v-143q0 -158 57 -221q58 -64 234 -88v-54z" />
    <glyph glyph-name="asciitilde" unicode="~" horiz-adv-x="1228" 
d="M1141 678q-18 -97 -80 -167q-61 -69 -158 -69q-77 0 -295 76q-62 22 -85 30q-52 19 -80 27q-42 12 -58 16q-31 7 -59 7q-67 0 -117 -50q-49 -49 -66 -120h-57q21 102 80 168q60 68 158 68q23 0 72 -9q40 -7 66 -15q29 -9 83 -27q46 -16 82 -27q11 -3 73 -26
q42 -15 75 -25q48 -14 62 -17q38 -8 64 -8q70 0 118 49t66 119h56z" />
    <glyph glyph-name="uni007F" horiz-adv-x="0" 
 />
    <glyph glyph-name="uni00A0" unicode="&#xa0;" horiz-adv-x="569" 
 />
    <glyph glyph-name="exclamdown" unicode="&#xa1;" horiz-adv-x="530" 
d="M213 1096h104v-211h-104v211zM313 -377h-98v494l25 594h49l24 -594v-494z" />
    <glyph glyph-name="cent" unicode="&#xa2;" horiz-adv-x="1138" 
d="M557 -242v217q-225 12 -339 170q-114 157 -114 392q0 222 121 374q122 154 332 166v183h66v-183q166 -7 275 -97q107 -88 124 -253h-78q-11 128 -97 200q-88 73 -224 83v-967q133 12 222 101q88 88 109 227h78q-24 -177 -135 -280q-112 -104 -274 -116v-217h-66zM557 43
v967q-173 -12 -274 -151t-101 -322q0 -213 97 -348q96 -134 278 -146z" />
    <glyph glyph-name="sterling" unicode="&#xa3;" horiz-adv-x="1138" 
d="M1042 956h-81q-6 410 -394 410q-170 0 -275 -84q-106 -85 -106 -221q0 -58 19 -113t63 -130q47 -81 56 -99h325v-49h-297q51 -114 51 -217q0 -84 -33 -154q-36 -77 -71 -119q-40 -48 -109 -117q131 68 222 68q74 0 172 -37q1 -1 47 -17q50 -18 54 -19q32 -8 47 -11
q30 -6 54 -6q69 0 148 38q77 37 133 99l45 -61q-144 -152 -319 -152q-27 0 -53 3q-21 2 -59 14q-13 4 -29.5 8.5t-19.5 5.5q-30 9 -59 20q-12 5 -24 9.5t-17.5 7t-7.5 2.5q-71 26 -143 26q-110 0 -240 -92l-53 74q103 74 169 179q67 107 67 218q0 107 -60 230h-164v49h133
q-1 2 -6 10.5t-12.5 23t-16.5 29.5q-30 52 -38 72q-2 5 -11 25t-16 35q-18 42 -24 77q-7 40 -7 74q0 167 129 271q130 104 338 104q237 0 356 -125q117 -123 117 -359z" />
    <glyph glyph-name="currency" unicode="&#xa4;" horiz-adv-x="1138" 
d="M119 328l129 129q-101 128 -101 274q0 147 101 275l-131 131l49 47l129 -131q124 100 274 100q157 0 275 -100l131 131l47 -49l-129 -129q100 -133 100 -275q0 -143 -102 -274l131 -131l-47 -47l-131 131q-126 -103 -275 -103q-152 0 -272 103l-131 -129zM569 1081
q-145 0 -247 -102q-103 -103 -103 -248q0 -146 104 -248t246 -102q148 0 250 102q103 103 103 248t-103 248q-102 102 -250 102z" />
    <glyph glyph-name="yen" unicode="&#xa5;" horiz-adv-x="1138" 
d="M-14 1462h98l487 -766l490 766h92l-487 -762h188v-67h-246v-160h246v-67h-246v-406h-78v406h-245v67h245v160h-245v67h188z" />
    <glyph glyph-name="brokenbar" unicode="&#xa6;" horiz-adv-x="454" 
d="M188 -182v512h78v-512h-78zM188 842v512h78v-512h-78z" />
    <glyph glyph-name="section" unicode="&#xa7;" horiz-adv-x="1138" 
d="M915 1094h-81q-12 288 -287 288q-108 0 -177 -57t-69 -147q0 -50 17 -85q18 -38 63 -74q47 -37 64 -48q23 -14 83 -47q270 -149 359 -222q145 -118 145 -256q0 -95 -62 -172q-61 -76 -171 -114q123 -105 123 -230q0 -129 -98 -210q-96 -80 -253 -80q-175 0 -274 100
q-98 99 -98 278h82q5 -152 77 -229q74 -78 213 -78q116 0 191 61q74 60 74 154q0 102 -84 170q-47 36 -97 69q-57 37 -162 99q-29 17 -59 34.5t-45.5 27t-21.5 12.5q-78 47 -130 86q-48 36 -91 102q-44 68 -44 146q0 98 60 174t166 115q-109 91 -109 215q0 120 93 199
q92 79 237 79q173 0 268 -93q93 -92 98 -267zM381 920q-199 -84 -199 -244q0 -43 19 -84q18 -40 55 -72q24 -21 65 -53q22 -17 74 -49q45 -28 109 -65q24 -14 132 -79q46 -28 105 -69q209 66 209 231q0 114 -125 209q-107 84 -344 215q-70 38 -100 60z" />
    <glyph glyph-name="dieresis" unicode="&#xa8;" horiz-adv-x="342" 
d="M377 1235h-90v211h90v-211zM53 1235h-90v211h90v-211z" />
    <glyph glyph-name="copyright" unicode="&#xa9;" horiz-adv-x="1638" 
d="M819 1493q312 0 531 -220q219 -221 219 -530q0 -311 -220 -530q-221 -219 -530 -219q-311 0 -530 221t-219 528q0 312 220 531t529 219zM819 1438q-289 0 -491 -204q-203 -205 -203 -491q0 -289 205 -491q206 -203 489 -203q289 0 493 204t204 490q0 290 -205 492
q-206 203 -492 203zM1178 580q-18 -119 -115 -193t-219 -74q-181 0 -292 129q-112 130 -112 310q0 178 108 306t279 128q131 0 232 -81q100 -81 112 -206h-65q-18 105 -94 166t-181 61q-147 0 -232 -110t-85 -260q0 -158 90 -271q90 -112 240 -112q99 0 173 56q75 57 97 151
h64z" />
    <glyph glyph-name="ordfeminine" unicode="&#xaa;" horiz-adv-x="634" 
d="M125 1221h-66q24 217 271 217q248 0 248 -174v-365q0 -32 1 -39q1 -9 9 -23t26 -14h15q7 0 22 4v-55q-25 -4 -41 -4q-55 0 -73 24q-19 25 -19 68v29h-4q-20 -58 -87 -99q-65 -40 -165 -40q-112 0 -174 44q-61 43 -61 152q0 55 21 94t63 59q38 19 78 28q40 10 90 14
q165 12 200 33t35 100q0 54 -52 81t-138 27q-88 0 -140 -42q-53 -42 -59 -119zM512 1020v115q-15 -15 -44 -25q-30 -11 -55 -12q-28 -2 -73 -6q-14 -1 -37.5 -3.5t-30.5 -3.5q-180 -23 -180 -139q0 -60 44 -101q43 -40 120 -40t136 28q55 26 80 68q24 41 32 70q8 30 8 49z
" />
    <glyph glyph-name="guillemotleft" unicode="&#xab;" horiz-adv-x="796" 
d="M637 860v-98l-180 -215l180 -205v-98l-240 262v80zM371 856v-96l-176 -213l176 -203v-100l-236 262v84z" />
    <glyph glyph-name="logicalnot" unicode="&#xac;" horiz-adv-x="1228" 
d="M113 702v68h1001v-442h-70v374h-931z" />
    <glyph glyph-name="uni00AD" unicode="&#xad;" horiz-adv-x="720" 
d="M580 518h-439v78h439v-78z" />
    <glyph glyph-name="registered" unicode="&#xae;" horiz-adv-x="819" 
d="M408 1493q156 0 265 -111q109 -110 109 -264q0 -156 -110 -266q-111 -111 -264 -111q-156 0 -266 112q-109 110 -109 265q0 156 110 265q112 110 265 110zM408 1450q-138 0 -235 -98t-97 -234q0 -137 98 -235q99 -99 234 -99q136 0 234 99q97 98 97 235q0 138 -98 235
t-233 97zM268 1319h160q60 0 104 -30q43 -30 43 -87q0 -67 -71 -94q67 -33 67 -127q0 -36 13 -59h-52q-10 20 -10 47q0 72 -26 95t-105 23h-76v-165h-47v397zM315 1130h93q120 0 120 76q0 34 -24 51t-42 18q-12 1 -59 1h-88v-146z" />
    <glyph glyph-name="macron" unicode="&#xaf;" horiz-adv-x="342" 
d="M420 1307h-496v67h496v-67z" />
    <glyph glyph-name="degree" unicode="&#xb0;" horiz-adv-x="819" 
d="M410 1434q120 0 205 -85t85 -206q0 -118 -86 -204q-85 -85 -204 -85t-204 85t-85 204q0 121 85 206t204 85zM410 1366q-92 0 -157 -66q-65 -67 -65 -157q0 -93 66 -157q65 -64 156 -64q92 0 157 65q66 66 66 156q0 91 -66 157t-157 66z" />
    <glyph glyph-name="plusminus" unicode="&#xb1;" horiz-adv-x="1228" 
d="M571 156v385h-465v67h465v387h72v-387h465v-67h-465v-385h-72zM106 -8v67h1002v-67h-1002z" />
    <glyph glyph-name="uni00B2" unicode="&#xb2;" horiz-adv-x="681" 
d="M98 618h549v-55h-614q1 91 59 167q58 77 136 125q122 76 158 97q77 45 134 110q55 62 55 136q0 76 -58 130t-169 54q-218 0 -233 -254h-66q17 310 299 310q128 0 211 -62q82 -61 82 -180q0 -92 -69 -166q-69 -73 -189 -149q-19 -13 -61 -39q-13 -8 -27 -16.5t-23 -14
t-14 -8.5q-15 -9 -50 -37t-49 -44q-20 -24 -34 -45q-20 -29 -27 -59z" />
    <glyph glyph-name="uni00B3" unicode="&#xb3;" horiz-adv-x="681" 
d="M37 850h65q-4 -117 68 -183q73 -67 197 -67q105 0 181 55q77 56 77 146q0 104 -89 148t-219 36v55q116 -6 202 35q85 40 85 139q0 80 -74 124t-163 44q-116 0 -177 -64q-60 -63 -65 -173h-66q2 137 84 215q83 78 234 78q122 0 208 -56q85 -55 85 -168q0 -77 -49 -130
t-132 -64v-4q94 -11 147 -70q54 -60 54 -145q0 -125 -88 -191q-87 -65 -225 -65q-169 0 -258 78q-88 78 -82 227z" />
    <glyph glyph-name="acute" unicode="&#xb4;" horiz-adv-x="342" 
d="M53 1208l246 287h104l-274 -287h-76z" />
    <glyph glyph-name="mu" unicode="&#xb5;" 
d="M862 1049h82v-1049h-80v217q-127 -250 -360 -250q-203 0 -299 172v-518h-84v1428h84v-666q0 -155 74 -249q73 -93 227 -93q158 0 260 121q60 73 78 147q18 77 18 187v553z" />
    <glyph glyph-name="paragraph" unicode="&#xb6;" horiz-adv-x="1228" 
d="M1094 1395h-115v-1735h-76v1735h-278v-1735h-74v891q-193 0 -312 126q-118 125 -118 318q0 229 139 346t367 117h467v-63z" />
    <glyph glyph-name="periodcentered" unicode="&#xb7;" horiz-adv-x="569" 
d="M319 727v-209h-102v209h102z" />
    <glyph glyph-name="cedilla" unicode="&#xb8;" horiz-adv-x="342" 
d="M170 0h70l-99 -115l4 -4q39 17 76 17q66 2 108 -35q44 -38 44 -107q0 -157 -201 -157q-108 0 -188 51l22 49q94 -45 164 -45q54 0 89 25q36 25 36 77q0 41 -32 65q-30 23 -66 23q-57 0 -109 -24l-33 26z" />
    <glyph glyph-name="uni00B9" unicode="&#xb9;" horiz-adv-x="681" 
d="M426 1419v-856h-66v760q-97 -97 -239 -109v56q158 23 246 149h59z" />
    <glyph glyph-name="ordmasculine" unicode="&#xba;" horiz-adv-x="684" 
d="M342 805q127 0 193 82q65 81 65 207q0 125 -65 206q-66 82 -193 82q-126 0 -192 -82t-66 -206t66 -207q66 -82 192 -82zM342 750q-152 0 -238 95t-86 249q0 150 86 247t238 97t238 -97t86 -247q0 -154 -86 -249t-238 -95z" />
    <glyph glyph-name="guillemotright" unicode="&#xbb;" horiz-adv-x="796" 
d="M426 856l236 -264v-80l-236 -268v98l178 211l-178 201v102zM162 856l237 -262v-80l-237 -270v94l180 215l-180 207v96z" />
    <glyph glyph-name="onequarter" unicode="&#xbc;" horiz-adv-x="1708" 
d="M1313 268v512h-4l-363 -512h367zM1282 848h96v-580h146v-55h-146v-213h-65v213h-441v55zM498 1419v-856h-66v760q-97 -97 -239 -109v56q157 22 245 149h60zM309 -49l953 1511h81l-952 -1511h-82z" />
    <glyph glyph-name="onehalf" unicode="&#xbd;" horiz-adv-x="1708" 
d="M1059 55h545v-55h-615q1 90 60 167q58 77 136 125q137 85 157 97q79 46 135 110q55 62 55 136q0 76 -58 130t-169 54q-219 0 -234 -254h-65q16 309 299 309q129 0 211 -61q81 -60 81 -180q0 -94 -68 -166q-70 -74 -190 -150q-24 -15 -48 -29t-48 -29q-18 -11 -41 -27
q-32 -22 -40 -30q-12 -12 -33 -30q-19 -16 -31 -35q-3 -4 -22 -38q-10 -17 -17 -44zM436 1419v-856h-65v760q-97 -97 -240 -109v56q158 23 246 149h59zM248 -49l952 1511h82l-952 -1511h-82z" />
    <glyph glyph-name="threequarters" unicode="&#xbe;" horiz-adv-x="1708" 
d="M1374 268v512h-4l-362 -512h366zM1343 848h97v-580h145v-55h-145v-213h-66v213h-440v55zM406 -49l952 1511h82l-953 -1511h-81zM68 850h65q-4 -117 68 -183q73 -67 196 -67q106 0 182 55t76 146q0 104 -89 148t-218 36v55q116 -6 202 35q85 40 85 139q0 80 -74 124
t-164 44q-115 0 -176 -64q-60 -63 -65 -173h-66q2 137 84 215t234 78q121 0 207 -56q85 -55 85 -168q0 -77 -49 -130q-49 -54 -131 -64v-4q94 -11 147 -70q54 -60 54 -145q0 -125 -88 -191q-87 -65 -225 -65q-170 0 -258 78t-82 227z" />
    <glyph glyph-name="questiondown" unicode="&#xbf;" 
d="M588 1096v-211h-105v211h105zM895 86h78q0 -222 -119 -355q-118 -132 -336 -132q-175 0 -288 94t-113 272q0 64 12 113q12 48 47 97q38 53 52 67l71 71q54 48 73 68q23 25 59 75q39 54 53 117q16 70 16 152h78q0 -149 -47 -243q-47 -95 -134 -177q-63 -60 -100 -100
q-36 -39 -70 -107q-32 -64 -32 -133q0 -144 95 -216q96 -73 234 -73q179 0 275 113t96 297z" />
    <glyph glyph-name="Agrave" unicode="&#xc0;" horiz-adv-x="1214" 
d="M287 547h643l-314 827h-4zM563 1462h99l577 -1462h-96l-185 469h-700l-186 -469h-97zM662 1597h-76l-275 287h105z" />
    <glyph glyph-name="Aacute" unicode="&#xc1;" horiz-adv-x="1214" 
d="M287 547h643l-314 827h-4zM563 1462h99l577 -1462h-96l-185 469h-700l-186 -469h-97zM563 1597l246 287h104l-274 -287h-76z" />
    <glyph glyph-name="Acircumflex" unicode="&#xc2;" horiz-adv-x="1214" 
d="M287 547h643l-314 827h-4zM563 1462h99l577 -1462h-96l-185 469h-700l-186 -469h-97zM571 1884h82l238 -287h-78l-201 236l-198 -236h-78z" />
    <glyph glyph-name="Atilde" unicode="&#xc3;" horiz-adv-x="1214" 
d="M287 547h643l-314 827h-4zM563 1462h99l577 -1462h-96l-185 469h-700l-186 -469h-97zM379 1636h-60q5 74 48 129q44 56 110 56q49 4 147 -56q97 -59 136 -61q38 0 62 35q24 34 30 82h59q-7 -77 -46 -131t-109 -54q-46 0 -142 60q-57 35 -88 47q-23 10 -51 10
q-78 0 -96 -117z" />
    <glyph glyph-name="Adieresis" unicode="&#xc4;" horiz-adv-x="1214" 
d="M287 547h643l-314 827h-4zM563 1462h99l577 -1462h-96l-185 469h-700l-186 -469h-97zM821 1624h-90v211h90v-211zM498 1624h-90v211h90v-211z" />
    <glyph glyph-name="Aring" unicode="&#xc5;" horiz-adv-x="1214" 
d="M287 547h643l-314 827h-4zM563 1462h99l577 -1462h-96l-185 469h-700l-186 -469h-97zM465 1741q0 -62 43 -105t104 -43q62 0 105 43t43 105q0 61 -43 104t-105 43q-61 0 -104 -43t-43 -104zM410 1741q0 86 58 144q59 59 144 59q86 0 145 -59q58 -58 58 -144
q0 -87 -58 -145t-145 -58q-86 0 -144 58t-58 145z" />
    <glyph glyph-name="AE" unicode="&#xc6;" horiz-adv-x="1781" 
d="M883 598v786h-97l-411 -786h508zM-18 0l763 1462h1004v-78h-776v-585h717v-78h-717v-643h778v-78h-868v520h-549l-271 -520h-81z" />
    <glyph glyph-name="Ccedilla" unicode="&#xc7;" horiz-adv-x="1441" 
d="M1358 1026h-90q-29 181 -169 287t-329 106q-279 0 -442 -197q-164 -199 -164 -491q0 -291 164 -490q164 -198 442 -198q209 0 359 158q151 159 163 368h90q-24 -261 -197 -433q-173 -171 -415 -171h-2l-68 -80l5 -4q39 17 75 17q66 2 108 -35q44 -38 44 -107
q0 -157 -201 -157q-109 0 -188 51l22 49q95 -45 164 -45q54 0 89 25q36 25 36 77q0 41 -32 65q-30 23 -66 23q-56 0 -109 -24l-33 26l91 121q-116 7 -230 58q-192 89 -296 275q-105 187 -105 431q0 333 188 549q189 217 508 217q145 0 259 -48q112 -47 172 -112
q57 -61 97 -137q40 -75 50 -117q10 -41 10 -57z" />
    <glyph glyph-name="Egrave" unicode="&#xc8;" horiz-adv-x="1146" 
d="M219 78h903v-78h-993v1462h983v-78h-893v-585h840v-78h-840v-643zM702 1597h-75l-275 287h105z" />
    <glyph glyph-name="Eacute" unicode="&#xc9;" horiz-adv-x="1146" 
d="M219 78h903v-78h-993v1462h983v-78h-893v-585h840v-78h-840v-643zM580 1597l245 287h105l-275 -287h-75z" />
    <glyph glyph-name="Ecircumflex" unicode="&#xca;" horiz-adv-x="1146" 
d="M219 78h903v-78h-993v1462h983v-78h-893v-585h840v-78h-840v-643zM567 1884h82l238 -287h-78l-201 236l-198 -236h-78z" />
    <glyph glyph-name="Edieresis" unicode="&#xcb;" horiz-adv-x="1146" 
d="M219 78h903v-78h-993v1462h983v-78h-893v-585h840v-78h-840v-643zM829 1624h-90v211h90v-211zM506 1624h-90v211h90v-211z" />
    <glyph glyph-name="Igrave" unicode="&#xcc;" horiz-adv-x="348" 
d="M129 0v1462h90v-1462h-90zM221 1597h-76l-274 287h104z" />
    <glyph glyph-name="Iacute" unicode="&#xcd;" horiz-adv-x="348" 
d="M129 0v1462h90v-1462h-90zM131 1597l246 287h104l-274 -287h-76z" />
    <glyph glyph-name="Icircumflex" unicode="&#xce;" horiz-adv-x="348" 
d="M129 0v1462h90v-1462h-90zM133 1884h82l238 -287h-78l-201 236l-199 -236h-77z" />
    <glyph glyph-name="Idieresis" unicode="&#xcf;" horiz-adv-x="348" 
d="M129 0v1462h90v-1462h-90zM381 1624h-90v211h90v-211zM57 1624h-90v211h90v-211z" />
    <glyph glyph-name="Eth" unicode="&#xd0;" horiz-adv-x="1366" 
d="M219 811h541v-68h-541v-665h393q88 0 165 19q76 19 157 67q74 44 134 120q56 71 91 188t35 261q0 171 -43 296q-45 129 -104 193q-61 66 -150 105t-156 48t-147 9h-375v-573zM129 811v651h479q151 0 271 -41q117 -40 194 -108q75 -66 124 -164t68 -198q19 -99 19 -218
q0 -330 -171 -531q-172 -202 -509 -202h-475v743h-139v68h139z" />
    <glyph glyph-name="Ntilde" unicode="&#xd1;" horiz-adv-x="1388" 
d="M129 0v1462h113l923 -1341h4v1341h91v-1462h-107l-930 1352h-4v-1352h-90zM481 1636h-59q5 75 47 129q44 56 111 56q48 4 146 -56q97 -59 136 -61q39 0 63 35q23 33 29 82h60q-7 -77 -46 -131t-110 -54q-45 0 -141 60q-57 35 -88 47q-23 10 -51 10q-79 0 -97 -117z" />
    <glyph glyph-name="Ograve" unicode="&#xd2;" horiz-adv-x="1517" 
d="M154 731q0 -293 163 -490q163 -198 443 -198q276 0 440 198q164 199 164 490q0 292 -164 491q-163 197 -440 197q-280 0 -443 -197t-163 -491zM1454 731q0 -331 -187 -548q-188 -218 -507 -218t-508 217q-189 218 -189 549t189 549q189 217 508 217t507 -218
q187 -217 187 -548zM821 1597h-76l-274 287h104z" />
    <glyph glyph-name="Oacute" unicode="&#xd3;" horiz-adv-x="1517" 
d="M154 731q0 -293 163 -490q163 -198 443 -198q276 0 440 198q164 199 164 490q0 292 -164 491q-163 197 -440 197q-280 0 -443 -197t-163 -491zM1454 731q0 -331 -187 -548q-188 -218 -507 -218t-508 217q-189 218 -189 549t189 549q189 217 508 217t507 -218
q187 -217 187 -548zM690 1597l246 287h104l-274 -287h-76z" />
    <glyph glyph-name="Ocircumflex" unicode="&#xd4;" horiz-adv-x="1517" 
d="M154 731q0 -293 163 -490q163 -198 443 -198q276 0 440 198q164 199 164 490q0 292 -164 491q-163 197 -440 197q-280 0 -443 -197t-163 -491zM1454 731q0 -331 -187 -548q-188 -218 -507 -218t-508 217q-189 218 -189 549t189 549q189 217 508 217t507 -218
q187 -217 187 -548zM721 1884h82l237 -287h-77l-201 236l-199 -236h-78z" />
    <glyph glyph-name="Otilde" unicode="&#xd5;" horiz-adv-x="1517" 
d="M154 731q0 -293 163 -490q163 -198 443 -198q276 0 440 198q164 199 164 490q0 292 -164 491q-163 197 -440 197q-280 0 -443 -197t-163 -491zM1454 731q0 -331 -187 -548q-188 -218 -507 -218t-508 217q-189 218 -189 549t189 549q189 217 508 217t507 -218
q187 -217 187 -548zM524 1636h-59q5 75 47 129q44 56 111 56q48 4 146 -56q97 -59 136 -61q39 0 63 35q23 33 29 82h60q-7 -77 -46 -131t-110 -54q-45 0 -141 60q-57 35 -88 47q-23 10 -51 10q-79 0 -97 -117z" />
    <glyph glyph-name="Odieresis" unicode="&#xd6;" horiz-adv-x="1517" 
d="M154 731q0 -293 163 -490q163 -198 443 -198q276 0 440 198q164 199 164 490q0 292 -164 491q-163 197 -440 197q-280 0 -443 -197t-163 -491zM1454 731q0 -331 -187 -548q-188 -218 -507 -218t-508 217q-189 218 -189 549t189 549q189 217 508 217t507 -218
q187 -217 187 -548zM971 1624h-90v211h90v-211zM647 1624h-90v211h90v-211z" />
    <glyph glyph-name="multiply" unicode="&#xd7;" horiz-adv-x="1228" 
d="M162 119l397 397l-397 399l53 56l399 -400l398 400l55 -56l-397 -399l397 -397l-55 -56l-398 400l-399 -400z" />
    <glyph glyph-name="Oslash" unicode="&#xd8;" horiz-adv-x="1517" 
d="M70 33l161 176q-168 213 -168 522q0 331 189 549q189 217 508 217q289 0 475 -186l139 151l53 -49l-143 -156q170 -208 170 -526q0 -331 -187 -548q-188 -218 -507 -218q-301 0 -481 191l-156 -172zM293 274l885 973q-168 172 -418 172q-280 0 -443 -197t-163 -491
q0 -272 139 -457zM1225 1192l-887 -971q166 -178 422 -178q276 0 440 198q164 199 164 490q0 271 -139 461z" />
    <glyph glyph-name="Ugrave" unicode="&#xd9;" horiz-adv-x="1376" 
d="M129 1462h90v-876q0 -65 6 -125q5 -54 34 -140q27 -82 74 -139q47 -58 135 -98q90 -41 210 -41q258 0 369 139q110 138 110 404v876h90v-876q0 -621 -569 -621q-549 0 -549 621v876zM754 1597h-76l-275 287h105z" />
    <glyph glyph-name="Uacute" unicode="&#xda;" horiz-adv-x="1376" 
d="M129 1462h90v-876q0 -65 6 -125q5 -54 34 -140q27 -82 74 -139q47 -58 135 -98q90 -41 210 -41q258 0 369 139q110 138 110 404v876h90v-876q0 -621 -569 -621q-549 0 -549 621v876zM598 1597l246 287h104l-274 -287h-76z" />
    <glyph glyph-name="Ucircumflex" unicode="&#xdb;" horiz-adv-x="1376" 
d="M129 1462h90v-876q0 -65 6 -125q5 -54 34 -140q27 -82 74 -139q47 -58 135 -98q90 -41 210 -41q258 0 369 139q110 138 110 404v876h90v-876q0 -621 -569 -621q-549 0 -549 621v876zM643 1884h82l238 -287h-78l-201 236l-199 -236h-77z" />
    <glyph glyph-name="Udieresis" unicode="&#xdc;" horiz-adv-x="1376" 
d="M129 1462h90v-876q0 -65 6 -125q5 -54 34 -140q27 -82 74 -139q47 -58 135 -98q90 -41 210 -41q258 0 369 139q110 138 110 404v876h90v-876q0 -621 -569 -621q-549 0 -549 621v876zM901 1624h-90v211h90v-211zM578 1624h-91v211h91v-211z" />
    <glyph glyph-name="Yacute" unicode="&#xdd;" horiz-adv-x="1175" 
d="M588 688l530 774h101l-588 -850v-612h-90v612l-584 850h102zM541 1597l245 287h105l-275 -287h-75z" />
    <glyph glyph-name="Thorn" unicode="&#xde;" horiz-adv-x="1214" 
d="M219 1139v-656h514q182 0 268 98t86 230q0 50 -13 98q-14 52 -47 105q-35 56 -106 90q-73 35 -176 35h-526zM129 0v1462h90v-245h533q47 0 108 -9q54 -8 112 -34q62 -28 104 -70q46 -46 73 -119q29 -78 29 -176q0 -194 -119 -299q-117 -104 -340 -104h-500v-406h-90z" />
    <glyph glyph-name="germandbls" unicode="&#xdf;" horiz-adv-x="1024" 
d="M424 776v68q162 0 268 75q107 75 107 228q0 129 -87 201q-86 71 -220 71q-295 0 -295 -319v-1100h-78v1100q0 387 373 387q169 0 277 -87t108 -253q0 -266 -244 -322v-4q155 -18 235 -119t80 -264q0 -110 -32 -197q-32 -85 -76 -130q-45 -45 -107 -72q-61 -27 -105 -33
t-91 -6h-113v68h78q40 0 85 5q39 4 95 27q53 21 94 61q41 39 67 109q27 72 27 168q0 189 -117 263q-118 75 -329 75z" />
    <glyph glyph-name="agrave" unicode="&#xe0;" horiz-adv-x="1024" 
d="M891 803v-608q0 -38 1 -48q2 -16 7 -36q6 -22 22 -33q14 -10 40 -10q19 0 57 6v-66q-32 -8 -64 -8q-83 0 -112 39q-29 40 -29 115v55h-4q-39 -102 -142 -167q-105 -67 -249 -67q-352 0 -352 297q0 91 33 150q35 62 97 93q63 31 120 46q61 16 137 23q110 6 172 15
q52 8 104 22q42 12 59 39q17 28 22 56q5 30 5 87q0 24 -13 53q-14 31 -42 68t-91 61q-66 25 -147 25q-142 0 -229 -73q-86 -73 -94 -208h-78q7 171 110 260q101 88 291 88q369 0 369 -274zM813 401v197q-26 -32 -81 -47q-51 -14 -158 -22q-109 -8 -142 -13
q-144 -18 -217 -74q-72 -56 -72 -170q0 -103 71 -166q70 -63 206 -63q100 0 176 33q74 32 116 77q40 42 64 99q26 59 31 90q6 35 6 59zM586 1208h-76l-274 287h104z" />
    <glyph glyph-name="aacute" unicode="&#xe1;" horiz-adv-x="1024" 
d="M891 803v-608q0 -38 1 -48q2 -16 7 -36q6 -22 22 -33q14 -10 40 -10q19 0 57 6v-66q-32 -8 -64 -8q-83 0 -112 39q-29 40 -29 115v55h-4q-39 -102 -142 -167q-105 -67 -249 -67q-352 0 -352 297q0 91 33 150q35 62 97 93q63 31 120 46q61 16 137 23q110 6 172 15
q52 8 104 22q42 12 59 39q17 28 22 56q5 30 5 87q0 24 -13 53q-14 31 -42 68t-91 61q-66 25 -147 25q-142 0 -229 -73q-86 -73 -94 -208h-78q7 171 110 260q101 88 291 88q369 0 369 -274zM813 401v197q-26 -32 -81 -47q-51 -14 -158 -22q-109 -8 -142 -13
q-144 -18 -217 -74q-72 -56 -72 -170q0 -103 71 -166q70 -63 206 -63q100 0 176 33q74 32 116 77q40 42 64 99q26 59 31 90q6 35 6 59zM449 1208l245 287h105l-275 -287h-75z" />
    <glyph glyph-name="acircumflex" unicode="&#xe2;" horiz-adv-x="1024" 
d="M891 803v-608q0 -38 1 -48q2 -16 7 -36q6 -22 22 -33q14 -10 40 -10q19 0 57 6v-66q-32 -8 -64 -8q-83 0 -112 39q-29 40 -29 115v55h-4q-39 -102 -142 -167q-105 -67 -249 -67q-352 0 -352 297q0 91 33 150q35 62 97 93q63 31 120 46q61 16 137 23q110 6 172 15
q52 8 104 22q42 12 59 39q17 28 22 56q5 30 5 87q0 24 -13 53q-14 31 -42 68t-91 61q-66 25 -147 25q-142 0 -229 -73q-86 -73 -94 -208h-78q7 171 110 260q101 88 291 88q369 0 369 -274zM813 401v197q-26 -32 -81 -47q-51 -14 -158 -22q-109 -8 -142 -13
q-144 -18 -217 -74q-72 -56 -72 -170q0 -103 71 -166q70 -63 206 -63q100 0 176 33q74 32 116 77q40 42 64 99q26 59 31 90q6 35 6 59zM483 1495h82l238 -287h-78l-201 236l-198 -236h-78z" />
    <glyph glyph-name="atilde" unicode="&#xe3;" horiz-adv-x="1024" 
d="M891 803v-608q0 -38 1 -48q2 -16 7 -36q6 -22 22 -33q14 -10 40 -10q19 0 57 6v-66q-32 -8 -64 -8q-83 0 -112 39q-29 40 -29 115v55h-4q-39 -102 -142 -167q-105 -67 -249 -67q-352 0 -352 297q0 91 33 150q35 62 97 93q63 31 120 46q61 16 137 23q110 6 172 15
q52 8 104 22q42 12 59 39q17 28 22 56q5 30 5 87q0 24 -13 53q-14 31 -42 68t-91 61q-66 25 -147 25q-142 0 -229 -73q-86 -73 -94 -208h-78q7 171 110 260q101 88 291 88q369 0 369 -274zM813 401v197q-26 -32 -81 -47q-51 -14 -158 -22q-109 -8 -142 -13
q-144 -18 -217 -74q-72 -56 -72 -170q0 -103 71 -166q70 -63 206 -63q100 0 176 33q74 32 116 77q40 42 64 99q26 59 31 90q6 35 6 59zM289 1247h-60q5 75 47 129q44 56 111 56q48 4 146 -56q97 -59 137 -61q38 0 62 35q24 34 30 82h59q-8 -78 -46 -132q-38 -53 -109 -53
q-46 0 -142 60q-57 35 -88 47q-23 10 -51 10q-78 0 -96 -117z" />
    <glyph glyph-name="adieresis" unicode="&#xe4;" horiz-adv-x="1024" 
d="M891 803v-608q0 -38 1 -48q2 -16 7 -36q6 -22 22 -33q14 -10 40 -10q19 0 57 6v-66q-32 -8 -64 -8q-83 0 -112 39q-29 40 -29 115v55h-4q-39 -102 -142 -167q-105 -67 -249 -67q-352 0 -352 297q0 91 33 150q35 62 97 93q63 31 120 46q61 16 137 23q110 6 172 15
q52 8 104 22q42 12 59 39q17 28 22 56q5 30 5 87q0 24 -13 53q-14 31 -42 68t-91 61q-66 25 -147 25q-142 0 -229 -73q-86 -73 -94 -208h-78q7 171 110 260q101 88 291 88q369 0 369 -274zM813 401v197q-26 -32 -81 -47q-51 -14 -158 -22q-109 -8 -142 -13
q-144 -18 -217 -74q-72 -56 -72 -170q0 -103 71 -166q70 -63 206 -63q100 0 176 33q74 32 116 77q40 42 64 99q26 59 31 90q6 35 6 59zM731 1235h-90v211h90v-211zM408 1235h-91v211h91v-211z" />
    <glyph glyph-name="aring" unicode="&#xe5;" horiz-adv-x="1024" 
d="M891 803v-608q0 -38 1 -48q2 -16 7 -36q6 -22 22 -33q14 -10 40 -10q19 0 57 6v-66q-32 -8 -64 -8q-83 0 -112 39q-29 40 -29 115v55h-4q-39 -102 -142 -167q-105 -67 -249 -67q-352 0 -352 297q0 91 33 150q35 62 97 93q63 31 120 46q61 16 137 23q110 6 172 15
q52 8 104 22q42 12 59 39q17 28 22 56q5 30 5 87q0 24 -13 53q-14 31 -42 68t-91 61q-66 25 -147 25q-142 0 -229 -73q-86 -73 -94 -208h-78q7 171 110 260q101 88 291 88q369 0 369 -274zM813 401v197q-26 -32 -81 -47q-51 -14 -158 -22q-109 -8 -142 -13
q-144 -18 -217 -74q-72 -56 -72 -170q0 -103 71 -166q70 -63 206 -63q100 0 176 33q74 32 116 77q40 42 64 99q26 59 31 90q6 35 6 59zM377 1372q0 -61 43 -104t104 -43q62 0 105 43t43 104q0 62 -43 105t-105 43q-61 0 -104 -43t-43 -105zM322 1372q0 87 58 145t144 58
q87 0 145 -58t58 -145q0 -86 -58 -144q-59 -59 -145 -59q-85 0 -144 59q-58 58 -58 144z" />
    <glyph glyph-name="ae" unicode="&#xe6;" horiz-adv-x="1820" 
d="M1753 516h-842q-12 -202 89 -337q102 -136 296 -136q149 0 247 80q97 79 120 227h78q-29 -176 -147 -275q-120 -100 -298 -100q-162 0 -273 78q-110 78 -148 228h-5q-51 -144 -163 -225q-113 -81 -265 -81q-160 0 -269 74q-107 73 -107 219q0 297 383 312q28 4 91 7
q11 1 45 2.5t48 2.5q36 1 80 12q43 10 67 27q26 18 40 50q15 35 11 83q0 127 -75 186q-76 60 -232 60q-315 0 -336 -287h-77q12 178 121 266t292 88q348 0 369 -268h4q96 268 399 268q232 0 355 -163t102 -398zM831 412v180h-4q-11 -18 -34 -30q-19 -10 -68 -18
q-39 -7 -80 -10q-88 -7 -102 -8q-84 -6 -103 -8q-297 -18 -297 -250q0 -112 88 -169q87 -56 211 -56q154 0 270 108q114 107 119 261zM909 584h766q5 177 -100 301q-105 125 -279 125q-180 0 -276 -121q-96 -122 -111 -305z" />
    <glyph glyph-name="ccedilla" unicode="&#xe7;" 
d="M985 727h-78q-12 136 -110 209q-100 74 -246 74q-187 0 -296 -141q-110 -142 -110 -332q0 -224 105 -359t301 -135q146 0 246 91t121 237h77q-18 -139 -94 -234q-77 -96 -190 -135q-64 -24 -129 -25l-78 -92l4 -4q39 17 76 17q65 2 107 -35q44 -38 44 -107
q0 -157 -200 -157q-109 0 -189 51l23 49q95 -45 163 -45q55 0 90 25t35 77q0 41 -31 65q-30 23 -67 23q-55 0 -108 -24l-33 26l96 131q-106 1 -184 43q-131 68 -197 205q-65 134 -65 312q0 231 129 386q129 154 354 154q177 0 298 -89q119 -88 136 -261z" />
    <glyph glyph-name="egrave" unicode="&#xe8;" 
d="M145 584h773q-5 177 -109 301q-105 125 -277 125q-165 0 -269 -128q-103 -127 -118 -298zM995 516h-850q-4 -195 99 -335q102 -138 288 -138q149 0 249 83q99 83 128 230h78q-30 -183 -147 -282t-308 -99q-220 0 -345 153q-124 152 -119 380q-4 233 117 401t347 168
q236 0 356 -161q119 -159 107 -400zM596 1208h-76l-274 287h104z" />
    <glyph glyph-name="eacute" unicode="&#xe9;" 
d="M145 584h773q-5 177 -109 301q-105 125 -277 125q-165 0 -269 -128q-103 -127 -118 -298zM995 516h-850q-4 -195 99 -335q102 -138 288 -138q149 0 249 83q99 83 128 230h78q-30 -183 -147 -282t-308 -99q-220 0 -345 153q-124 152 -119 380q-4 233 117 401t347 168
q236 0 356 -161q119 -159 107 -400zM487 1208l246 287h105l-275 -287h-76z" />
    <glyph glyph-name="ecircumflex" unicode="&#xea;" 
d="M145 584h773q-5 177 -109 301q-105 125 -277 125q-165 0 -269 -128q-103 -127 -118 -298zM995 516h-850q-4 -195 99 -335q102 -138 288 -138q149 0 249 83q99 83 128 230h78q-30 -183 -147 -282t-308 -99q-220 0 -345 153q-124 152 -119 380q-4 233 117 401t347 168
q236 0 356 -161q119 -159 107 -400zM489 1495h82l238 -287h-78l-201 236l-198 -236h-78z" />
    <glyph glyph-name="edieresis" unicode="&#xeb;" 
d="M145 584h773q-5 177 -109 301q-105 125 -277 125q-165 0 -269 -128q-103 -127 -118 -298zM995 516h-850q-4 -195 99 -335q102 -138 288 -138q149 0 249 83q99 83 128 230h78q-30 -183 -147 -282t-308 -99q-220 0 -345 153q-124 152 -119 380q-4 233 117 401t347 168
q236 0 356 -161q119 -159 107 -400zM737 1235h-90v211h90v-211zM414 1235h-90v211h90v-211z" />
    <glyph glyph-name="igrave" unicode="&#xec;" horiz-adv-x="344" 
d="M211 0h-78v1053h78v-1053zM213 1208h-76l-274 287h104z" />
    <glyph glyph-name="iacute" unicode="&#xed;" horiz-adv-x="344" 
d="M211 0h-78v1053h78v-1053zM131 1208l246 287h104l-274 -287h-76z" />
    <glyph glyph-name="icircumflex" unicode="&#xee;" horiz-adv-x="344" 
d="M211 0h-78v1053h78v-1053zM131 1495h82l238 -287h-78l-201 236l-199 -236h-77z" />
    <glyph glyph-name="idieresis" unicode="&#xef;" horiz-adv-x="344" 
d="M211 0h-78v1053h78v-1053zM379 1235h-90v211h90v-211zM55 1235h-90v211h90v-211z" />
    <glyph glyph-name="eth" unicode="&#xf0;" horiz-adv-x="1099" 
d="M299 1192l221 123q-117 89 -211 133l58 49q122 -65 221 -145l235 131l41 -45l-223 -125q391 -312 391 -803q0 -233 -125 -384t-356 -151q-237 0 -362 149q-123 147 -123 386q0 224 130 375t355 151q211 0 334 -151l4 4q-88 206 -318 385l-229 -127zM551 969
q-191 0 -299 -134q-109 -135 -109 -325q0 -193 106 -331q105 -136 302 -136q199 0 301 133q102 134 102 334q0 192 -106 325q-107 134 -297 134z" />
    <glyph glyph-name="ntilde" unicode="&#xf1;" 
d="M115 0v1053h78v-226h4q41 119 145 184q105 66 231 66q89 0 156 -21q68 -21 107 -62q41 -42 63 -80q25 -42 35 -97q10 -57 12 -89q2 -42 2 -77v-651h-78v666q0 344 -299 344q-175 0 -277 -122q-101 -120 -101 -319v-569h-78zM301 1247h-59q5 75 47 129q44 56 110 56
q49 4 147 -56q97 -59 136 -61q38 0 62 35q24 34 30 82h60q-7 -76 -47 -132q-38 -53 -109 -53q-45 0 -141 60q-57 35 -88 47q-23 10 -52 10q-78 0 -96 -117z" />
    <glyph glyph-name="ograve" unicode="&#xf2;" horiz-adv-x="1099" 
d="M143 526q0 -200 109 -342q108 -141 297 -141t297 141t108 342t-108 342q-109 142 -297 142t-297 -142t-109 -342zM66 526q0 236 129 394q129 157 354 157t354 -157t129 -394q0 -236 -129 -393q-129 -158 -354 -158t-354 158q-129 157 -129 393zM621 1208h-76l-275 287
h105z" />
    <glyph glyph-name="oacute" unicode="&#xf3;" horiz-adv-x="1099" 
d="M143 526q0 -200 109 -342q108 -141 297 -141t297 141t108 342t-108 342q-109 142 -297 142t-297 -142t-109 -342zM66 526q0 236 129 394q129 157 354 157t354 -157t129 -394q0 -236 -129 -393q-129 -158 -354 -158t-354 158q-129 157 -129 393zM502 1208l246 287h104
l-274 -287h-76z" />
    <glyph glyph-name="ocircumflex" unicode="&#xf4;" horiz-adv-x="1099" 
d="M143 526q0 -200 109 -342q108 -141 297 -141t297 141t108 342t-108 342q-109 142 -297 142t-297 -142t-109 -342zM66 526q0 236 129 394q129 157 354 157t354 -157t129 -394q0 -236 -129 -393q-129 -158 -354 -158t-354 158q-129 157 -129 393zM508 1495h82l237 -287h-77
l-201 236l-199 -236h-78z" />
    <glyph glyph-name="otilde" unicode="&#xf5;" horiz-adv-x="1099" 
d="M143 526q0 -200 109 -342q108 -141 297 -141t297 141t108 342t-108 342q-109 142 -297 142t-297 -142t-109 -342zM66 526q0 236 129 394q129 157 354 157t354 -157t129 -394q0 -236 -129 -393q-129 -158 -354 -158t-354 158q-129 157 -129 393zM313 1247h-59q5 75 47 129
q44 56 111 56q48 4 146 -56q97 -59 136 -61q39 0 63 35q23 33 29 82h60q-8 -78 -46 -132q-38 -53 -110 -53q-45 0 -141 60q-57 35 -88 47q-23 10 -51 10q-79 0 -97 -117z" />
    <glyph glyph-name="odieresis" unicode="&#xf6;" horiz-adv-x="1099" 
d="M143 526q0 -200 109 -342q108 -141 297 -141t297 141t108 342t-108 342q-109 142 -297 142t-297 -142t-109 -342zM66 526q0 236 129 394q129 157 354 157t354 -157t129 -394q0 -236 -129 -393q-129 -158 -354 -158t-354 158q-129 157 -129 393zM756 1235h-90v211h90v-211
zM432 1235h-90v211h90v-211z" />
    <glyph glyph-name="divide" unicode="&#xf7;" horiz-adv-x="1228" 
d="M668 754h-103v204h103v-204zM1133 518h-1035v68h1035v-68zM668 145h-103v205h103v-205z" />
    <glyph glyph-name="oslash" unicode="&#xf8;" horiz-adv-x="1099" 
d="M1051 1004l-119 -127q100 -146 100 -351q0 -236 -129 -393q-129 -158 -354 -158q-208 0 -338 142l-111 -117l-49 47l117 125q-102 146 -102 354q0 236 129 394q129 157 354 157q211 0 340 -145l112 119zM877 819l-613 -647q108 -129 285 -129q189 0 297 141t108 342
q0 176 -77 293zM223 229l613 648q-106 133 -287 133q-188 0 -297 -142t-109 -342q0 -178 80 -297z" />
    <glyph glyph-name="ugrave" unicode="&#xf9;" 
d="M948 1053v-1053h-78v225h-4q-41 -117 -145 -183q-107 -67 -232 -67q-84 0 -155 22q-69 21 -107 61q-41 42 -63 80q-25 41 -35 98t-12 89q-2 42 -2 76v652h78v-666q0 -344 299 -344q175 0 277 122q101 120 101 318v570h78zM608 1208h-76l-274 287h104z" />
    <glyph glyph-name="uacute" unicode="&#xfa;" 
d="M948 1053v-1053h-78v225h-4q-41 -117 -145 -183q-107 -67 -232 -67q-84 0 -155 22q-69 21 -107 61q-41 42 -63 80q-25 41 -35 98t-12 89q-2 42 -2 76v652h78v-666q0 -344 299 -344q175 0 277 122q101 120 101 318v570h78zM477 1208l246 287h104l-274 -287h-76z" />
    <glyph glyph-name="ucircumflex" unicode="&#xfb;" 
d="M948 1053v-1053h-78v225h-4q-41 -117 -145 -183q-107 -67 -232 -67q-84 0 -155 22q-69 21 -107 61q-41 42 -63 80q-25 41 -35 98t-12 89q-2 42 -2 76v652h78v-666q0 -344 299 -344q175 0 277 122q101 120 101 318v570h78zM479 1495h82l238 -287h-78l-201 236l-198 -236
h-78z" />
    <glyph glyph-name="udieresis" unicode="&#xfc;" 
d="M948 1053v-1053h-78v225h-4q-41 -117 -145 -183q-107 -67 -232 -67q-84 0 -155 22q-69 21 -107 61q-41 42 -63 80q-25 41 -35 98t-12 89q-2 42 -2 76v652h78v-666q0 -344 299 -344q175 0 277 122q101 120 101 318v570h78zM729 1235h-90v211h90v-211zM406 1235h-91v211h91
v-211z" />
    <glyph glyph-name="yacute" unicode="&#xfd;" horiz-adv-x="909" 
d="M428 6l-440 1047h92l391 -961l360 961h89l-451 -1166q-73 -182 -123 -217q-42 -32 -91 -39q-56 -8 -155 -8v68q87 0 132 13q46 14 87 54q32 32 109 248zM424 1208l246 287h104l-274 -287h-76z" />
    <glyph glyph-name="thorn" unicode="&#xfe;" horiz-adv-x="1138" 
d="M133 -377v1839h78v-651h4q30 101 129 183q100 83 254 83q230 0 351 -158q122 -160 122 -395q0 -249 -120 -399t-353 -150q-293 0 -383 244h-4v-596h-78zM598 43q195 0 295 136t100 345q0 200 -99 343t-296 143q-196 0 -291 -140q-94 -139 -94 -346q0 -102 19 -182
q19 -82 62 -152q42 -69 120 -108t184 -39z" />
    <glyph glyph-name="ydieresis" unicode="&#xff;" horiz-adv-x="909" 
d="M428 6l-440 1047h92l391 -961l360 961h89l-451 -1166q-73 -182 -123 -217q-42 -32 -91 -39q-56 -8 -155 -8v68q87 0 132 13q46 14 87 54q32 32 109 248zM676 1235h-90v211h90v-211zM352 1235h-90v211h90v-211z" />
    <glyph glyph-name="Amacron" unicode="&#x100;" horiz-adv-x="1214" 
d="M287 547h643l-314 827h-4zM563 1462h99l577 -1462h-96l-185 469h-700l-186 -469h-97zM860 1696h-495v67h495v-67z" />
    <glyph glyph-name="amacron" unicode="&#x101;" horiz-adv-x="1024" 
d="M891 803v-608q0 -38 1 -48q2 -16 7 -36q6 -22 22 -33q14 -10 40 -10q19 0 57 6v-66q-32 -8 -64 -8q-83 0 -112 39q-29 40 -29 115v55h-4q-39 -102 -142 -167q-105 -67 -249 -67q-352 0 -352 297q0 91 33 150q35 62 97 93q63 31 120 46q61 16 137 23q110 6 172 15
q52 8 104 22q42 12 59 39q17 28 22 56q5 30 5 87q0 24 -13 53q-14 31 -42 68t-91 61q-66 25 -147 25q-142 0 -229 -73q-86 -73 -94 -208h-78q7 171 110 260q101 88 291 88q369 0 369 -274zM813 401v197q-26 -32 -81 -47q-51 -14 -158 -22q-109 -8 -142 -13
q-144 -18 -217 -74q-72 -56 -72 -170q0 -103 71 -166q70 -63 206 -63q100 0 176 33q74 32 116 77q40 42 64 99q26 59 31 90q6 35 6 59zM780 1307h-495v67h495v-67z" />
    <glyph glyph-name="Abreve" unicode="&#x102;" horiz-adv-x="1214" 
d="M287 547h643l-314 827h-4zM563 1462h99l577 -1462h-96l-185 469h-700l-186 -469h-97zM823 1864h68q-12 -101 -89 -173q-78 -73 -179 -73q-121 0 -196 65q-76 65 -91 181h67q43 -178 218 -178q81 0 134 49q53 48 68 129z" />
    <glyph glyph-name="abreve" unicode="&#x103;" horiz-adv-x="1024" 
d="M891 803v-608q0 -38 1 -48q2 -16 7 -36q6 -22 22 -33q14 -10 40 -10q19 0 57 6v-66q-32 -8 -64 -8q-83 0 -112 39q-29 40 -29 115v55h-4q-39 -102 -142 -167q-105 -67 -249 -67q-352 0 -352 297q0 91 33 150q35 62 97 93q63 31 120 46q61 16 137 23q110 6 172 15
q52 8 104 22q42 12 59 39q17 28 22 56q5 30 5 87q0 24 -13 53q-14 31 -42 68t-91 61q-66 25 -147 25q-142 0 -229 -73q-86 -73 -94 -208h-78q7 171 110 260q101 88 291 88q369 0 369 -274zM813 401v197q-26 -32 -81 -47q-51 -14 -158 -22q-109 -8 -142 -13
q-144 -18 -217 -74q-72 -56 -72 -170q0 -103 71 -166q70 -63 206 -63q100 0 176 33q74 32 116 77q40 42 64 99q26 59 31 90q6 35 6 59zM721 1475h67q-12 -101 -89 -173q-78 -73 -179 -73q-120 0 -195 65q-77 66 -92 181h68q44 -179 217 -179q79 0 134 50q54 50 69 129z" />
    <glyph glyph-name="Aogonek" unicode="&#x104;" horiz-adv-x="1214" 
d="M1239 0h-47q-168 -147 -168 -248q0 -38 26 -62t60 -24q40 0 67 16q25 15 54 56l47 -17q-52 -122 -176 -122q-168 0 -168 139q0 122 209 262l-185 469h-700l-186 -469h-97l588 1462h99zM287 547h643l-314 827h-4z" />
    <glyph glyph-name="aogonek" unicode="&#x105;" horiz-adv-x="1024" 
d="M891 803v-608q0 -38 1 -48q2 -16 7 -36q6 -22 22 -33q14 -10 40 -10q19 0 57 6v-66q-32 -8 -64 -8h-20q-168 -147 -168 -248q0 -38 26 -62t60 -24q40 0 67 16q25 15 54 56l47 -17q-52 -122 -176 -122q-168 0 -168 139q0 90 102 182q33 27 115 86q-7 2 -14 6
q-66 30 -66 142v55h-4q-39 -102 -142 -167q-105 -67 -249 -67q-352 0 -352 297q0 91 33 150q35 62 97 93q63 31 120 46q61 16 137 23q110 6 172 15q52 8 104 22q42 12 59 39q17 28 22 56q5 30 5 87q0 24 -13 53q-14 31 -42 68t-91 61q-66 25 -147 25q-142 0 -229 -73
q-86 -73 -94 -208h-78q7 171 110 260q101 88 291 88q369 0 369 -274zM813 401v197q-26 -32 -81 -47q-51 -14 -158 -22q-109 -8 -142 -13q-144 -18 -217 -74q-72 -56 -72 -170q0 -103 71 -166q70 -63 206 -63q100 0 176 33q74 32 116 77q40 42 64 99q26 59 31 90q6 35 6 59z
" />
    <glyph glyph-name="Cacute" unicode="&#x106;" horiz-adv-x="1441" 
d="M1358 1026h-90q-29 181 -169 287t-329 106q-279 0 -442 -197q-164 -199 -164 -491q0 -291 164 -490q164 -198 442 -198q209 0 359 158q151 159 163 368h90q-24 -261 -197 -433q-173 -171 -415 -171q-319 0 -508 217q-188 216 -188 549t188 549q189 217 508 217
q145 0 259 -48q112 -47 172 -112q57 -61 97 -137q40 -75 50 -117q10 -41 10 -57zM721 1597l246 287h104l-274 -287h-76z" />
    <glyph glyph-name="cacute" unicode="&#x107;" 
d="M985 727h-78q-12 136 -110 209q-100 74 -246 74q-187 0 -296 -141q-110 -142 -110 -332q0 -224 105 -359t301 -135q146 0 246 91t121 237h77q-24 -185 -147 -290q-124 -106 -297 -106q-241 0 -363 160q-120 157 -120 402q0 231 129 386q129 154 354 154q177 0 298 -89
q119 -88 136 -261zM502 1208l246 287h104l-274 -287h-76z" />
    <glyph glyph-name="Ccircumflex" unicode="&#x108;" horiz-adv-x="1441" 
d="M1358 1026h-90q-29 181 -169 287t-329 106q-279 0 -442 -197q-164 -199 -164 -491q0 -291 164 -490q164 -198 442 -198q209 0 359 158q151 159 163 368h90q-24 -261 -197 -433q-173 -171 -415 -171q-319 0 -508 217q-188 216 -188 549t188 549q189 217 508 217
q145 0 259 -48q112 -47 172 -112q57 -61 97 -137q40 -75 50 -117q10 -41 10 -57zM717 1884h82l237 -287h-78l-200 236l-199 -236h-78z" />
    <glyph glyph-name="ccircumflex" unicode="&#x109;" 
d="M985 727h-78q-12 136 -110 209q-100 74 -246 74q-187 0 -296 -141q-110 -142 -110 -332q0 -224 105 -359t301 -135q146 0 246 91t121 237h77q-24 -185 -147 -290q-124 -106 -297 -106q-241 0 -363 160q-120 157 -120 402q0 231 129 386q129 154 354 154q177 0 298 -89
q119 -88 136 -261zM512 1495h82l237 -287h-77l-201 236l-199 -236h-78z" />
    <glyph glyph-name="Cdotaccent" unicode="&#x10a;" horiz-adv-x="1441" 
d="M1358 1026h-90q-29 181 -169 287t-329 106q-279 0 -442 -197q-164 -199 -164 -491q0 -291 164 -490q164 -198 442 -198q209 0 359 158q151 159 163 368h90q-24 -261 -197 -433q-173 -171 -415 -171q-319 0 -508 217q-188 216 -188 549t188 549q189 217 508 217
q145 0 259 -48q112 -47 172 -112q57 -61 97 -137q40 -75 50 -117q10 -41 10 -57zM811 1624h-90v211h90v-211z" />
    <glyph glyph-name="cdotaccent" unicode="&#x10b;" 
d="M985 727h-78q-12 136 -110 209q-100 74 -246 74q-187 0 -296 -141q-110 -142 -110 -332q0 -224 105 -359t301 -135q146 0 246 91t121 237h77q-24 -185 -147 -290q-124 -106 -297 -106q-241 0 -363 160q-120 157 -120 402q0 231 129 386q129 154 354 154q177 0 298 -89
q119 -88 136 -261zM594 1235h-90v211h90v-211z" />
    <glyph glyph-name="Ccaron" unicode="&#x10c;" horiz-adv-x="1441" 
d="M1358 1026h-90q-29 181 -169 287t-329 106q-279 0 -442 -197q-164 -199 -164 -491q0 -291 164 -490q164 -198 442 -198q209 0 359 158q151 159 163 368h90q-24 -261 -197 -433q-173 -171 -415 -171q-319 0 -508 217q-188 216 -188 549t188 549q189 217 508 217
q145 0 259 -48q112 -47 172 -112q57 -61 97 -137q40 -75 50 -117q10 -41 10 -57zM799 1597h-82l-236 287h78l199 -235l200 235h78z" />
    <glyph glyph-name="ccaron" unicode="&#x10d;" 
d="M985 727h-78q-12 136 -110 209q-100 74 -246 74q-187 0 -296 -141q-110 -142 -110 -332q0 -224 105 -359t301 -135q146 0 246 91t121 237h77q-24 -185 -147 -290q-124 -106 -297 -106q-241 0 -363 160q-120 157 -120 402q0 231 129 386q129 154 354 154q177 0 298 -89
q119 -88 136 -261zM582 1208h-82l-236 287h78l199 -235l200 235h78z" />
    <glyph glyph-name="Dcaron" unicode="&#x10e;" horiz-adv-x="1366" 
d="M129 0v1462h479q151 0 271 -41q117 -40 194 -108q75 -66 124 -164t68 -198q19 -99 19 -218q0 -330 -171 -531q-172 -202 -509 -202h-475zM219 1384v-1306h393q88 0 165 19q76 19 157 67q74 44 134 120q56 71 91 188t35 261q0 171 -43 296q-45 129 -104 193
q-61 66 -150 105t-156 48t-147 9h-375zM635 1597h-82l-236 287h78l199 -235l201 235h77z" />
    <glyph glyph-name="dcaron" unicode="&#x10f;" horiz-adv-x="1259" 
d="M928 0v225h-4q-133 -250 -404 -250q-225 0 -340 157q-114 156 -114 392q0 248 119 400q120 153 350 153q132 0 240 -69t149 -191h4v645h78v-1462h-78zM537 43q187 0 288 141q101 142 101 340q0 200 -101 343t-290 143q-196 0 -294 -139t-98 -347q0 -200 102 -341
q101 -140 292 -140zM1116 1176l133 286h105l-178 -286h-60z" />
    <glyph glyph-name="Dcroat" unicode="&#x110;" horiz-adv-x="1366" 
d="M219 811h541v-68h-541v-665h393q88 0 165 19q76 19 157 67q74 44 134 120q56 71 91 188t35 261q0 171 -43 296q-45 129 -104 193q-61 66 -150 105t-156 48t-147 9h-375v-573zM129 811v651h479q151 0 271 -41q117 -40 194 -108q75 -66 124 -164t68 -198q19 -99 19 -218
q0 -330 -171 -531q-172 -202 -509 -202h-475v743h-139v68h139z" />
    <glyph glyph-name="dcroat" unicode="&#x111;" horiz-adv-x="1159" 
d="M928 0v225h-4q-133 -250 -404 -250q-225 0 -340 157q-114 156 -114 392q0 248 119 400q120 153 350 153q132 0 240 -69t149 -191h4v418h-305v68h305v159h78v-159h153v-68h-153v-1235h-78zM537 43q187 0 288 141q101 142 101 340q0 200 -101 343t-290 143
q-196 0 -294 -139t-98 -347q0 -200 102 -341q101 -140 292 -140z" />
    <glyph glyph-name="Emacron" unicode="&#x112;" horiz-adv-x="1146" 
d="M219 78h903v-78h-993v1462h983v-78h-893v-585h840v-78h-840v-643zM870 1696h-495v67h495v-67z" />
    <glyph glyph-name="emacron" unicode="&#x113;" 
d="M145 584h773q-5 177 -109 301q-105 125 -277 125q-165 0 -269 -128q-103 -127 -118 -298zM995 516h-850q-4 -195 99 -335q102 -138 288 -138q149 0 249 83q99 83 128 230h78q-30 -183 -147 -282t-308 -99q-220 0 -345 153q-124 152 -119 380q-4 233 117 401t347 168
q236 0 356 -161q119 -159 107 -400zM793 1307h-496v67h496v-67z" />
    <glyph glyph-name="Ebreve" unicode="&#x114;" horiz-adv-x="1146" 
d="M219 78h903v-78h-993v1462h983v-78h-893v-585h840v-78h-840v-643zM821 1864h68q-12 -101 -89 -173q-78 -73 -179 -73q-121 0 -196 65q-76 65 -91 181h67q43 -178 217 -178q82 0 135 49q53 48 68 129z" />
    <glyph glyph-name="ebreve" unicode="&#x115;" 
d="M145 584h773q-5 177 -109 301q-105 125 -277 125q-165 0 -269 -128q-103 -127 -118 -298zM995 516h-850q-4 -195 99 -335q102 -138 288 -138q149 0 249 83q99 83 128 230h78q-30 -183 -147 -282t-308 -99q-220 0 -345 153q-124 152 -119 380q-4 233 117 401t347 168
q236 0 356 -161q119 -159 107 -400zM760 1475h67q-12 -101 -89 -173q-78 -73 -179 -73q-120 0 -195 65q-77 66 -92 181h68q44 -179 217 -179q79 0 134 50q54 50 69 129z" />
    <glyph glyph-name="Edotaccent" unicode="&#x116;" horiz-adv-x="1146" 
d="M219 78h903v-78h-993v1462h983v-78h-893v-585h840v-78h-840v-643zM668 1624h-90v211h90v-211z" />
    <glyph glyph-name="edotaccent" unicode="&#x117;" 
d="M145 584h773q-5 177 -109 301q-105 125 -277 125q-165 0 -269 -128q-103 -127 -118 -298zM995 516h-850q-4 -195 99 -335q102 -138 288 -138q149 0 249 83q99 83 128 230h78q-30 -183 -147 -282t-308 -99q-220 0 -345 153q-124 152 -119 380q-4 233 117 401t347 168
q236 0 356 -161q119 -159 107 -400zM580 1235h-91v211h91v-211z" />
    <glyph glyph-name="Eogonek" unicode="&#x118;" horiz-adv-x="1146" 
d="M1122 0h-84q-168 -147 -168 -248q0 -38 26 -62t60 -24q40 0 67 16q25 15 54 56l47 -17q-52 -122 -176 -122q-168 0 -168 139q0 122 209 262h-860v1462h983v-78h-893v-585h840v-78h-840v-643h903v-78z" />
    <glyph glyph-name="eogonek" unicode="&#x119;" 
d="M995 516h-850q-4 -195 99 -335q102 -138 288 -138q149 0 249 83q99 83 128 230h78q-30 -184 -149 -284q-97 -79 -248 -95q-38 -35 -58 -57q-83 -99 -83 -168q0 -38 25 -62q26 -24 61 -24q39 0 66 16q25 15 54 56l47 -17q-52 -122 -176 -122q-168 0 -168 139q0 90 103 182
q40 35 69 55q-218 0 -343 153q-124 152 -119 380q-4 233 117 401t347 168q236 0 356 -161q119 -159 107 -400zM145 584h773q-5 177 -109 301q-105 125 -277 125q-165 0 -269 -128q-103 -127 -118 -298z" />
    <glyph glyph-name="Ecaron" unicode="&#x11a;" horiz-adv-x="1146" 
d="M219 78h903v-78h-993v1462h983v-78h-893v-585h840v-78h-840v-643zM653 1597h-82l-235 287h78l198 -235l201 235h78z" />
    <glyph glyph-name="ecaron" unicode="&#x11b;" 
d="M145 584h773q-5 177 -109 301q-105 125 -277 125q-165 0 -269 -128q-103 -127 -118 -298zM995 516h-850q-4 -195 99 -335q102 -138 288 -138q149 0 249 83q99 83 128 230h78q-30 -183 -147 -282t-308 -99q-220 0 -345 153q-124 152 -119 380q-4 233 117 401t347 168
q236 0 356 -161q119 -159 107 -400zM575 1208h-81l-236 287h78l199 -235l200 235h78z" />
    <glyph glyph-name="Gcircumflex" unicode="&#x11c;" horiz-adv-x="1517" 
d="M782 717h617v-717h-78v311h-4q-52 -157 -206 -252q-152 -94 -347 -94q-322 0 -505 215t-183 543q0 325 186 550q185 224 504 224q232 0 401 -132q170 -132 207 -355h-86q-51 193 -186 301t-334 108q-283 0 -442 -202q-160 -204 -160 -494q0 -291 157 -486
q156 -194 445 -194q262 0 414 164q151 163 139 432h-539v78zM735 1884h82l238 -287h-78l-201 236l-198 -236h-78z" />
    <glyph glyph-name="gcircumflex" unicode="&#x11d;" horiz-adv-x="1099" 
d="M907 1053h78v-998q0 -38 -1 -53q-2 -27 -10 -75q-8 -46 -25 -92q-15 -40 -49 -89q-36 -52 -80 -80q-47 -30 -121 -51q-73 -21 -169 -16q-396 0 -411 327h78q12 -133 104 -196q93 -64 231 -64q106 0 181 34t111 76t57 102q20 56 23 92q3 31 3 67v242h-4
q-113 -240 -381 -240q-224 0 -339 144q-115 143 -115 376q0 221 120 369q121 149 334 149q129 0 233 -64t148 -179h4v219zM522 1010q-179 0 -278 -134t-99 -317q0 -193 100 -323t277 -130q181 0 283 132q100 130 100 321t-100 321t-283 130zM524 1495h82l238 -287h-78
l-201 236l-198 -236h-78z" />
    <glyph glyph-name="Gbreve" unicode="&#x11e;" horiz-adv-x="1517" 
d="M782 717h617v-717h-78v311h-4q-52 -157 -206 -252q-152 -94 -347 -94q-322 0 -505 215t-183 543q0 325 186 550q185 224 504 224q232 0 401 -132q170 -132 207 -355h-86q-51 193 -186 301t-334 108q-283 0 -442 -202q-160 -204 -160 -494q0 -291 157 -486
q156 -194 445 -194q262 0 414 164q151 163 139 432h-539v78zM977 1864h67q-12 -101 -89 -173q-78 -73 -179 -73q-120 0 -195 65q-77 66 -92 181h68q43 -178 217 -178q81 0 134 49q54 49 69 129z" />
    <glyph glyph-name="gbreve" unicode="&#x11f;" horiz-adv-x="1099" 
d="M907 1053h78v-998q0 -38 -1 -53q-2 -27 -10 -75q-8 -46 -25 -92q-15 -40 -49 -89q-36 -52 -80 -80q-47 -30 -121 -51q-73 -21 -169 -16q-396 0 -411 327h78q12 -133 104 -196q93 -64 231 -64q106 0 181 34t111 76t57 102q20 56 23 92q3 31 3 67v242h-4
q-113 -240 -381 -240q-224 0 -339 144q-115 143 -115 376q0 221 120 369q121 149 334 149q129 0 233 -64t148 -179h4v219zM522 1010q-179 0 -278 -134t-99 -317q0 -193 100 -323t277 -130q181 0 283 132q100 130 100 321t-100 321t-283 130zM758 1475h67q-12 -101 -89 -173
q-78 -73 -179 -73q-121 0 -196 65q-76 65 -91 181h68q44 -179 217 -179q79 0 134 50q54 50 69 129z" />
    <glyph glyph-name="Gdotaccent" unicode="&#x120;" horiz-adv-x="1517" 
d="M782 717h617v-717h-78v311h-4q-52 -157 -206 -252q-152 -94 -347 -94q-322 0 -505 215t-183 543q0 325 186 550q185 224 504 224q232 0 401 -132q170 -132 207 -355h-86q-51 193 -186 301t-334 108q-283 0 -442 -202q-160 -204 -160 -494q0 -291 157 -486
q156 -194 445 -194q262 0 414 164q151 163 139 432h-539v78zM801 1624h-90v211h90v-211z" />
    <glyph glyph-name="gdotaccent" unicode="&#x121;" horiz-adv-x="1099" 
d="M907 1053h78v-998q0 -38 -1 -53q-2 -27 -10 -75q-8 -46 -25 -92q-15 -40 -49 -89q-36 -52 -80 -80q-47 -30 -121 -51q-73 -21 -169 -16q-396 0 -411 327h78q12 -133 104 -196q93 -64 231 -64q106 0 181 34t111 76t57 102q20 56 23 92q3 31 3 67v242h-4
q-113 -240 -381 -240q-224 0 -339 144q-115 143 -115 376q0 221 120 369q121 149 334 149q129 0 233 -64t148 -179h4v219zM522 1010q-179 0 -278 -134t-99 -317q0 -193 100 -323t277 -130q181 0 283 132q100 130 100 321t-100 321t-283 130zM598 1235h-90v211h90v-211z" />
    <glyph glyph-name="Gcommaaccent" unicode="&#x122;" horiz-adv-x="1517" 
d="M782 717h617v-717h-78v311h-4q-52 -157 -206 -252q-152 -94 -347 -94q-322 0 -505 215t-183 543q0 325 186 550q185 224 504 224q232 0 401 -132q170 -132 207 -355h-86q-51 193 -186 301t-334 108q-283 0 -442 -202q-160 -204 -160 -494q0 -291 157 -486
q156 -194 445 -194q262 0 414 164q151 163 139 432h-539v78zM686 -401v41q57 12 64 67h-52v191h117v-164q0 -124 -129 -135z" />
    <glyph glyph-name="gcommaaccent" unicode="&#x123;" horiz-adv-x="1099" 
d="M907 1053h78v-998q0 -38 -1 -53q-2 -27 -10 -75q-8 -46 -25 -92q-15 -40 -49 -89q-36 -52 -80 -80q-47 -30 -121 -51q-73 -21 -169 -16q-396 0 -411 327h78q12 -133 104 -196q93 -64 231 -64q106 0 181 34t111 76t57 102q20 56 23 92q3 31 3 67v242h-4
q-113 -240 -381 -240q-224 0 -339 144q-115 143 -115 376q0 221 120 369q121 149 334 149q129 0 233 -64t148 -179h4v219zM522 1010q-179 0 -278 -134t-99 -317q0 -193 100 -323t277 -130q181 0 283 132q100 130 100 321t-100 321t-283 130zM612 1571v-41q-55 -12 -63 -68
h51v-190h-117v164q0 124 129 135z" />
    <glyph glyph-name="Hcircumflex" unicode="&#x124;" horiz-adv-x="1372" 
d="M1153 721h-934v-721h-90v1462h90v-663h934v663h90v-1462h-90v721zM647 1884h82l238 -287h-78l-201 236l-199 -236h-77z" />
    <glyph glyph-name="hcircumflex" unicode="&#x125;" 
d="M115 1462h78v-635h4q41 119 145 184q105 66 231 66q89 0 156 -21q68 -21 107 -62q41 -42 63 -80q25 -42 35 -97q10 -57 12 -89q2 -42 2 -77v-651h-78v666q0 344 -299 344q-175 0 -277 -122q-101 -120 -101 -319v-569h-78v1462zM481 1884h82l238 -287h-78l-201 236
l-198 -236h-78z" />
    <glyph glyph-name="Hbar" unicode="&#x126;" horiz-adv-x="1372" 
d="M1153 721h-934v-721h-90v1462h90v-409h934v409h90v-1462h-90v721zM1153 985h-934v-186h934v186z" />
    <glyph glyph-name="hbar" unicode="&#x127;" horiz-adv-x="1073" 
d="M125 1462h78v-159h309v-68h-309v-408h4q41 119 145 184q105 66 232 66q88 0 155 -21q68 -21 107 -62q41 -42 63 -80q25 -42 35 -97q10 -57 12 -89q2 -42 2 -77v-651h-77v666q0 344 -299 344q-176 0 -278 -122q-101 -120 -101 -319v-569h-78v1235h-150v68h150v159z" />
    <glyph glyph-name="Itilde" unicode="&#x128;" horiz-adv-x="348" 
d="M129 0v1462h90v-1462h-90zM-61 1636h-60q5 75 47 129q44 56 111 56q48 4 146 -56q97 -59 136 -61q39 0 63 35q24 34 30 82h59q-7 -77 -46 -131t-110 -54q-45 0 -141 60q-57 35 -88 47q-23 10 -51 10q-78 0 -96 -117z" />
    <glyph glyph-name="itilde" unicode="&#x129;" horiz-adv-x="344" 
d="M211 0h-78v1053h78v-1053zM-63 1247h-60q5 75 47 129q44 56 111 56q48 4 146 -56q97 -59 136 -61q39 0 63 35q24 34 30 82h59q-8 -78 -46 -132q-38 -53 -110 -53q-45 0 -141 60q-57 35 -88 47q-23 10 -51 10q-78 0 -96 -117z" />
    <glyph glyph-name="Imacron" unicode="&#x12a;" horiz-adv-x="348" 
d="M129 0v1462h90v-1462h-90zM422 1696h-496v67h496v-67z" />
    <glyph glyph-name="imacron" unicode="&#x12b;" horiz-adv-x="344" 
d="M211 0h-78v1053h78v-1053zM422 1307h-496v67h496v-67z" />
    <glyph glyph-name="Ibreve" unicode="&#x12c;" horiz-adv-x="348" 
d="M129 1462h90v-1462h-90v1462zM453 1864q-6 -50 -30 -95q-23 -44 -59 -78q-36 -35 -82 -54q-45 -19 -98 -19q-117 0 -194 64t-92 182h67q12 -52 37 -88q25 -35 54 -56q27 -19 63 -27q31 -7 63 -7q81 0 134 49q54 49 69 129h68z" />
    <glyph glyph-name="ibreve" unicode="&#x12d;" horiz-adv-x="344" 
d="M133 0v1053h78v-1053h-78zM451 1475q-6 -50 -30 -95q-22 -42 -60 -78q-37 -36 -81 -54q-45 -19 -98 -19q-117 0 -194 64t-92 182h67q12 -53 37 -89q23 -34 54 -55q27 -19 63 -27q35 -8 63 -8q79 0 134 50q54 50 69 129h68z" />
    <glyph glyph-name="Iogonek" unicode="&#x12e;" horiz-adv-x="348" 
d="M219 1462v-1462q-151 -147 -151 -248q0 -39 22 -62q22 -24 55 -24q36 0 60 16q21 14 49 56l43 -17q-49 -122 -160 -122q-31 0 -59 6q-30 6 -61 40t-31 93q0 122 188 262h-45v1462h90z" />
    <glyph glyph-name="iogonek" unicode="&#x12f;" horiz-adv-x="344" 
d="M211 1053v-1053q-152 -147 -152 -248q0 -37 23 -62q22 -24 55 -24q36 0 60 16q21 14 49 56l43 -17q-49 -122 -160 -122q-31 0 -59 6q-30 6 -61 40q-32 35 -32 93q0 121 189 262h-33v1053h78zM211 1251h-78v211h78v-211z" />
    <glyph glyph-name="Idotaccent" unicode="&#x130;" horiz-adv-x="348" 
d="M129 0v1462h90v-1462h-90zM219 1624h-90v211h90v-211z" />
    <glyph glyph-name="dotlessi" unicode="&#x131;" horiz-adv-x="344" 
d="M211 0h-78v1053h78v-1053z" />
    <glyph glyph-name="Jcircumflex" unicode="&#x134;" horiz-adv-x="985" 
d="M41 465h90q-6 -90 3 -159q9 -66 40 -132q30 -62 99 -97q68 -34 171 -34q51 0 97 8q34 6 74 21q32 12 57 37t40 43q13 16 26 54q14 40 17 58q5 26 8 66q3 43 3 64v67v24v977h90v-1007q0 -65 -1 -83q-2 -43 -8 -88q-8 -62 -21 -96q-15 -38 -43 -83q-29 -47 -70 -74
q-38 -25 -108 -46q-68 -20 -150 -20q-113 0 -194 33t-123 78q-41 44 -64 120q-24 80 -28 131q-5 63 -5 138zM762 1884h82l237 -287h-77l-201 236l-199 -236h-78z" />
    <glyph glyph-name="jcircumflex" unicode="&#x135;" horiz-adv-x="344" 
d="M133 1053h78v-1166q0 -123 -45 -193q-45 -71 -170 -71h-33q-19 0 -33 2v68q25 -4 52 -4q82 0 117 44q34 43 34 161v1159zM123 1495h82l237 -287h-77l-201 236l-199 -236h-78z" />
    <glyph glyph-name="Kcommaaccent" unicode="&#x136;" horiz-adv-x="1255" 
d="M129 0v1462h90v-841l920 841h116l-667 -608l708 -854h-112l-662 793l-303 -277v-516h-90zM596 -401v41q56 12 63 67h-51v191h117v-164q0 -124 -129 -135z" />
    <glyph glyph-name="kcommaaccent" unicode="&#x137;" horiz-adv-x="948" 
d="M119 0v1462h78v-968l649 559h112l-460 -394l493 -659h-106l-449 600l-239 -203v-397h-78zM461 -401v41q56 12 63 67h-51v191h117v-164q0 -124 -129 -135z" />
    <glyph glyph-name="kgreenlandic" unicode="&#x138;" horiz-adv-x="948" 
d="M115 1053h78v-576l653 576h112l-464 -410l497 -643h-106l-453 584l-239 -203v-381h-78v1053z" />
    <glyph glyph-name="Lacute" unicode="&#x139;" horiz-adv-x="1024" 
d="M129 0v1462h90v-1384h830v-78h-920zM133 1597l246 287h104l-274 -287h-76z" />
    <glyph glyph-name="lacute" unicode="&#x13a;" horiz-adv-x="344" 
d="M133 1462h78v-1462h-78v1462zM133 1597l246 287h104l-274 -287h-76z" />
    <glyph glyph-name="Lcommaaccent" unicode="&#x13b;" horiz-adv-x="1024" 
d="M129 0v1462h90v-1384h830v-78h-920zM489 -401v41q57 12 64 67h-51v191h116v-164q0 -124 -129 -135z" />
    <glyph glyph-name="lcommaaccent" unicode="&#x13c;" horiz-adv-x="344" 
d="M133 1462h78v-1462h-78v1462zM106 -401v41q57 12 64 67h-51v191h117v-164q0 -124 -130 -135z" />
    <glyph glyph-name="Lcaron" unicode="&#x13d;" horiz-adv-x="1024" 
d="M129 0v1462h90v-1384h830v-78h-920zM432 1176l133 286h105l-178 -286h-60z" />
    <glyph glyph-name="lcaron" unicode="&#x13e;" horiz-adv-x="466" 
d="M133 1462h78v-1462h-78v1462zM324 1176l133 286h104l-178 -286h-59z" />
    <glyph glyph-name="Ldot" unicode="&#x13f;" horiz-adv-x="1024" 
d="M129 0v1462h90v-1384h830v-78h-920zM631 842h-90v211h90v-211z" />
    <glyph glyph-name="ldot" unicode="&#x140;" horiz-adv-x="503" 
d="M133 1462h78v-1462h-78v1462zM430 842h-90v211h90v-211z" />
    <glyph glyph-name="Lslash" unicode="&#x141;" horiz-adv-x="1024" 
d="M129 1462h90v-784l481 293v-74l-481 -291v-528h830v-78h-920v551l-174 -109v78l174 105v837z" />
    <glyph glyph-name="lslash" unicode="&#x142;" horiz-adv-x="344" 
d="M133 684v778h78v-717l133 105v-68l-133 -104v-678h-78v616l-133 -104v68z" />
    <glyph glyph-name="Nacute" unicode="&#x143;" horiz-adv-x="1388" 
d="M129 0v1462h113l923 -1341h4v1341h91v-1462h-107l-930 1352h-4v-1352h-90zM647 1597l246 287h104l-274 -287h-76z" />
    <glyph glyph-name="nacute" unicode="&#x144;" 
d="M115 0v1053h78v-226h4q41 119 145 184q105 66 231 66q89 0 156 -21q68 -21 107 -62q41 -42 63 -80q25 -42 35 -97q10 -57 12 -89q2 -42 2 -77v-651h-78v666q0 344 -299 344q-175 0 -277 -122q-101 -120 -101 -319v-569h-78zM485 1208l246 287h105l-275 -287h-76z" />
    <glyph glyph-name="Ncommaaccent" unicode="&#x145;" horiz-adv-x="1388" 
d="M129 0v1462h113l923 -1341h4v1341h91v-1462h-107l-930 1352h-4v-1352h-90zM614 -401v41q57 12 64 67h-51v191h116v-164q0 -124 -129 -135z" />
    <glyph glyph-name="ncommaaccent" unicode="&#x146;" 
d="M115 0v1053h78v-226h4q41 119 145 184q105 66 231 66q89 0 156 -21q68 -21 107 -62q41 -42 63 -80q25 -42 35 -97q10 -57 12 -89q2 -42 2 -77v-651h-78v666q0 344 -299 344q-175 0 -277 -122q-101 -120 -101 -319v-569h-78zM461 -401v41q56 12 63 67h-51v191h117v-164
q0 -124 -129 -135z" />
    <glyph glyph-name="Ncaron" unicode="&#x147;" horiz-adv-x="1388" 
d="M129 0v1462h113l923 -1341h4v1341h91v-1462h-107l-930 1352h-4v-1352h-90zM729 1597h-82l-235 287h77l199 -235l201 235h78z" />
    <glyph glyph-name="ncaron" unicode="&#x148;" 
d="M115 0v1053h78v-226h4q41 119 145 184q105 66 231 66q89 0 156 -21q68 -21 107 -62q41 -42 63 -80q25 -42 35 -97q10 -57 12 -89q2 -42 2 -77v-651h-78v666q0 344 -299 344q-175 0 -277 -122q-101 -120 -101 -319v-569h-78zM573 1208h-81l-236 287h78l198 -235l201 235
h78z" />
    <glyph glyph-name="Eng" unicode="&#x14a;" horiz-adv-x="1388" 
d="M1169 -23l-946 1375h-4v-1352h-90v1462h113l923 -1341h4v1341h91v-1503q0 -183 -75 -260q-75 -76 -253 -76q-29 0 -45 1q-8 0 -24.5 1t-24.5 2v80q44 -6 80 -6q71 0 114 11q50 13 78 38q30 27 45 73q14 43 14 118v36z" />
    <glyph glyph-name="eng" unicode="&#x14b;" 
d="M870 666q0 38 -6 98t-36 114t-90 93t-167 39q-90 0 -159 -33q-71 -34 -119 -91q-49 -58 -75 -140q-25 -79 -25 -177v-569h-78v1053h78v-226h4q21 60 58 106q35 44 88 79q48 32 110 49q58 16 120 16q94 0 157 -22q66 -23 106 -60q41 -38 64 -83t34 -93q10 -46 12 -91
q2 -58 2 -77v-723q0 -165 -62 -234q-63 -71 -220 -71q-27 0 -41 1q-28 2 -43 3v70q15 -3 41 -5q14 -1 34 -1q119 0 166 48q47 49 47 177v750z" />
    <glyph glyph-name="Omacron" unicode="&#x14c;" horiz-adv-x="1517" 
d="M154 731q0 -293 163 -490q163 -198 443 -198q276 0 440 198q164 199 164 490q0 292 -164 491q-163 197 -440 197q-280 0 -443 -197t-163 -491zM1454 731q0 -331 -187 -548q-188 -218 -507 -218t-508 217q-189 218 -189 549t189 549q189 217 508 217t507 -218
q187 -217 187 -548zM1010 1696h-496v67h496v-67z" />
    <glyph glyph-name="omacron" unicode="&#x14d;" horiz-adv-x="1099" 
d="M143 526q0 -200 109 -342q108 -141 297 -141t297 141t108 342t-108 342q-109 142 -297 142t-297 -142t-109 -342zM66 526q0 236 129 394q129 157 354 157t354 -157t129 -394q0 -236 -129 -393q-129 -158 -354 -158t-354 158q-129 157 -129 393zM799 1307h-496v67h496v-67
z" />
    <glyph glyph-name="Obreve" unicode="&#x14e;" horiz-adv-x="1517" 
d="M154 731q0 -293 163 -490q163 -198 443 -198q276 0 440 198q164 199 164 490q0 292 -164 491q-163 197 -440 197q-280 0 -443 -197t-163 -491zM1454 731q0 -331 -187 -548q-188 -218 -507 -218t-508 217q-189 218 -189 549t189 549q189 217 508 217t507 -218
q187 -217 187 -548zM967 1864h67q-12 -101 -89 -173q-78 -73 -179 -73q-121 0 -196 65q-76 65 -91 181h68q43 -178 217 -178q81 0 134 49q54 49 69 129z" />
    <glyph glyph-name="obreve" unicode="&#x14f;" horiz-adv-x="1099" 
d="M143 526q0 -200 109 -342q108 -141 297 -141t297 141t108 342t-108 342q-109 142 -297 142t-297 -142t-109 -342zM66 526q0 236 129 394q129 157 354 157t354 -157t129 -394q0 -236 -129 -393q-129 -158 -354 -158t-354 158q-129 157 -129 393zM756 1475h67
q-12 -101 -89 -173q-78 -73 -179 -73q-121 0 -196 65q-76 65 -91 181h68q44 -179 217 -179q79 0 134 50q54 50 69 129z" />
    <glyph glyph-name="Ohungarumlaut" unicode="&#x150;" horiz-adv-x="1517" 
d="M154 731q0 -293 163 -490q163 -198 443 -198q276 0 440 198q164 199 164 490q0 292 -164 491q-163 197 -440 197q-280 0 -443 -197t-163 -491zM1454 731q0 -331 -187 -548q-188 -218 -507 -218t-508 217q-189 218 -189 549t189 549q189 217 508 217t507 -218
q187 -217 187 -548zM958 1599h-75l245 287h105zM635 1599h-76l246 287h104z" />
    <glyph glyph-name="ohungarumlaut" unicode="&#x151;" horiz-adv-x="1099" 
d="M143 526q0 -200 109 -342q108 -141 297 -141t297 141t108 342t-108 342q-109 142 -297 142t-297 -142t-109 -342zM66 526q0 236 129 394q129 157 354 157t354 -157t129 -394q0 -236 -129 -393q-129 -158 -354 -158t-354 158q-129 157 -129 393zM743 1210h-75l245 287h105
zM420 1210h-76l246 287h104z" />
    <glyph glyph-name="OE" unicode="&#x152;" horiz-adv-x="2162" 
d="M1264 1384v-585h774v-78h-774v-643h868v-78h-958v135h-5q-55 -71 -168 -121q-111 -49 -264 -49q-316 0 -494 214q-180 216 -180 546q0 211 78 384q78 172 238 281q158 107 375 107q117 0 231 -44q113 -43 189 -126v135h954v-78h-864zM1174 260l-1 924q0 38 -37 79
q-36 41 -79 66q-133 90 -295 90q-288 0 -448 -200t-160 -494q0 -295 151 -488q152 -194 438 -194q157 0 258 55q60 30 115 75q58 47 58 87z" />
    <glyph glyph-name="oe" unicode="&#x153;" horiz-adv-x="1820" 
d="M950 584h727q0 177 -93 302q-93 124 -263 124q-180 0 -278 -125t-93 -301zM1755 516h-805q-15 -195 81 -335q95 -138 290 -138q141 0 227 81q87 82 121 222h78q-39 -174 -146 -272q-108 -99 -280 -99q-165 0 -273 81t-137 229h-4q-84 -310 -393 -310q-232 0 -340 153
t-108 384q0 244 114 404q114 161 340 161q154 0 255 -82t134 -229h4q84 311 408 311q225 0 336 -164q110 -162 98 -397zM516 43q102 0 176 42q73 42 111 115q36 69 53 148q16 74 16 164q0 138 -30 244q-29 105 -114 180q-83 74 -210 74q-101 0 -178 -44q-76 -44 -117 -120
t-60 -159q-20 -85 -20 -175q0 -201 95 -335t278 -134z" />
    <glyph glyph-name="Racute" unicode="&#x154;" horiz-adv-x="1290" 
d="M129 0v1462h610q210 0 337 -89q126 -89 126 -288q0 -148 -83 -249t-230 -125v-4q95 -12 158 -52q62 -39 89 -105q28 -68 35 -126q9 -72 9 -145q0 -92 1 -115q2 -41 11 -86q11 -52 31 -78h-101q-23 44 -31 119q-8 80 -4 144q5 71 -6 146q-10 73 -38 130q-27 55 -104 91
q-76 36 -200 36h-520v-666h-90zM219 743h520q169 0 272 83q101 82 101 253q0 156 -105 231q-104 74 -268 74h-520v-641zM553 1597l246 287h104l-274 -287h-76z" />
    <glyph glyph-name="racute" unicode="&#x155;" horiz-adv-x="569" 
d="M193 1053v-234h6q29 105 145 174q119 70 258 66v-78q-162 21 -291 -102q-61 -66 -88 -128q-25 -59 -30 -176v-575h-78v1053h78zM115 1208l245 287h105l-275 -287h-75z" />
    <glyph glyph-name="Rcommaaccent" unicode="&#x156;" horiz-adv-x="1290" 
d="M129 0v1462h610q210 0 337 -89q126 -89 126 -288q0 -148 -83 -249t-230 -125v-4q95 -12 158 -52q62 -39 89 -105q28 -68 35 -126q9 -72 9 -145q0 -92 1 -115q2 -41 11 -86q11 -52 31 -78h-101q-23 44 -31 119q-8 80 -4 144q5 71 -6 146q-10 73 -38 130q-27 55 -104 91
q-76 36 -200 36h-520v-666h-90zM219 743h520q169 0 272 83q101 82 101 253q0 156 -105 231q-104 74 -268 74h-520v-641zM586 -401v41q56 12 63 67h-51v191h117v-164q0 -124 -129 -135z" />
    <glyph glyph-name="rcommaaccent" unicode="&#x157;" horiz-adv-x="569" 
d="M193 1053v-234h6q29 105 145 174q119 70 258 66v-78q-162 21 -291 -102q-61 -66 -88 -128q-25 -59 -30 -176v-575h-78v1053h78zM92 -401v41q57 12 64 67h-52v191h117v-164q0 -124 -129 -135z" />
    <glyph glyph-name="Rcaron" unicode="&#x158;" horiz-adv-x="1290" 
d="M129 0v1462h610q210 0 337 -89q126 -89 126 -288q0 -148 -83 -249t-230 -125v-4q95 -12 158 -52q62 -39 89 -105q28 -68 35 -126q9 -72 9 -145q0 -92 1 -115q2 -41 11 -86q11 -52 31 -78h-101q-23 44 -31 119q-8 80 -4 144q5 71 -6 146q-10 73 -38 130q-27 55 -104 91
q-76 36 -200 36h-520v-666h-90zM219 743h520q169 0 272 83q101 82 101 253q0 156 -105 231q-104 74 -268 74h-520v-641zM641 1597h-82l-235 287h77l199 -235l201 235h78z" />
    <glyph glyph-name="rcaron" unicode="&#x159;" horiz-adv-x="569" 
d="M193 1053v-234h6q29 105 145 174q119 70 258 66v-78q-162 21 -291 -102q-61 -66 -88 -128q-25 -59 -30 -176v-575h-78v1053h78zM379 1208h-82l-236 287h78l199 -235l201 235h77z" />
    <glyph glyph-name="Sacute" unicode="&#x15a;" horiz-adv-x="1290" 
d="M1174 1044h-91q-7 183 -134 279q-126 96 -335 96q-67 0 -133 -15t-128 -49q-61 -33 -101 -98q-39 -63 -39 -149q0 -66 27 -116q28 -52 70 -82q41 -30 107 -55q64 -24 127 -39q67 -16 142 -30q9 -1 25 -4q82 -17 149 -33q53 -13 133 -48q73 -32 115 -71q43 -40 73 -106
q29 -64 29 -147q0 -109 -48 -192t-126 -129q-75 -44 -164 -68q-87 -23 -176 -23q-278 0 -449 126q-172 126 -167 392h90q-8 -153 66 -255q73 -101 190 -143t270 -42q77 0 142 17q69 18 135 54t106 104q41 70 41 159q0 52 -16 94q-15 41 -38 73q-19 27 -66 56q-39 24 -76 41
q-25 12 -97 32q-39 11 -98 24q-10 2 -25.5 5t-40 8t-42.5 9q-92 18 -149 33q-58 15 -132 45q-73 30 -116 68q-40 36 -71 101q-30 63 -30 142q0 195 147 292q146 97 344 97q243 0 396 -112q152 -111 164 -341zM598 1597l246 287h104l-274 -287h-76z" />
    <glyph glyph-name="sacute" unicode="&#x15b;" horiz-adv-x="985" 
d="M74 350h78q7 -142 105 -225q97 -82 243 -82q60 0 110 10q56 11 107 33q54 23 85 69q32 47 32 111q0 99 -75 151q-73 51 -181 71q-120 22 -212 43q-105 24 -181 91q-74 65 -74 185q0 142 112 206t269 64q176 0 282 -82q107 -83 107 -254h-78q0 136 -85 202q-87 67 -226 67
q-120 0 -213 -51q-91 -50 -91 -152q0 -21 6 -51q4 -22 20 -42q5 -7 27 -34q12 -15 39 -27t43 -20q20 -10 51 -19t51 -13q25 -5 57 -13q49 -12 57 -13q187 -35 279 -97q93 -63 93 -212q0 -80 -38 -141q-38 -60 -100 -90q-63 -30 -130 -45t-143 -15q-186 0 -304 99
q-118 98 -122 276zM438 1208l246 287h104l-274 -287h-76z" />
    <glyph glyph-name="Scircumflex" unicode="&#x15c;" horiz-adv-x="1290" 
d="M1174 1044h-91q-7 183 -134 279q-126 96 -335 96q-67 0 -133 -15t-128 -49q-61 -33 -101 -98q-39 -63 -39 -149q0 -66 27 -116q28 -52 70 -82q41 -30 107 -55q64 -24 127 -39q67 -16 142 -30q9 -1 25 -4q82 -17 149 -33q53 -13 133 -48q73 -32 115 -71q43 -40 73 -106
q29 -64 29 -147q0 -109 -48 -192t-126 -129q-75 -44 -164 -68q-87 -23 -176 -23q-278 0 -449 126q-172 126 -167 392h90q-8 -153 66 -255q73 -101 190 -143t270 -42q77 0 142 17q69 18 135 54t106 104q41 70 41 159q0 52 -16 94q-15 41 -38 73q-19 27 -66 56q-39 24 -76 41
q-25 12 -97 32q-39 11 -98 24q-10 2 -25.5 5t-40 8t-42.5 9q-92 18 -149 33q-58 15 -132 45q-73 30 -116 68q-40 36 -71 101q-30 63 -30 142q0 195 147 292q146 97 344 97q243 0 396 -112q152 -111 164 -341zM608 1884h82l238 -287h-78l-201 236l-198 -236h-78z" />
    <glyph glyph-name="scircumflex" unicode="&#x15d;" horiz-adv-x="985" 
d="M74 350h78q7 -142 105 -225q97 -82 243 -82q60 0 110 10q56 11 107 33q54 23 85 69q32 47 32 111q0 99 -75 151q-73 51 -181 71q-120 22 -212 43q-105 24 -181 91q-74 65 -74 185q0 142 112 206t269 64q176 0 282 -82q107 -83 107 -254h-78q0 136 -85 202q-87 67 -226 67
q-120 0 -213 -51q-91 -50 -91 -152q0 -21 6 -51q4 -22 20 -42q5 -7 27 -34q12 -15 39 -27t43 -20q20 -10 51 -19t51 -13q25 -5 57 -13q49 -12 57 -13q187 -35 279 -97q93 -63 93 -212q0 -80 -38 -141q-38 -60 -100 -90q-63 -30 -130 -45t-143 -15q-186 0 -304 99
q-118 98 -122 276zM467 1495h82l237 -287h-77l-201 236l-199 -236h-78z" />
    <glyph glyph-name="Scedilla" unicode="&#x15e;" horiz-adv-x="1290" 
d="M1174 1044h-91q-7 183 -134 279q-126 96 -335 96q-67 0 -133 -15t-128 -49q-61 -33 -101 -98q-39 -63 -39 -149q0 -66 27 -116q28 -52 70 -82q41 -30 107 -55q64 -24 127 -39q67 -16 142 -30q9 -1 25 -4q82 -17 149 -33q53 -13 133 -48q73 -32 115 -71q43 -40 73 -106
q29 -64 29 -147q0 -109 -48 -192t-126 -129q-75 -44 -164 -68q-87 -23 -176 -23q-29 0 -51 2l-67 -82l4 -4q39 17 75 17q66 2 108 -35q44 -38 44 -107q0 -157 -201 -157q-108 0 -188 51l22 49q94 -45 164 -45q54 0 89 25q36 25 36 77q0 41 -32 65q-30 23 -66 23
q-57 0 -109 -24l-32 26l92 125q-58 6 -129 23q-175 44 -276 166q-101 121 -99 323h90q-8 -153 66 -255q73 -101 190 -143t270 -42q77 0 142 17q69 18 135 54t106 104q41 70 41 159q0 52 -16 94q-15 41 -38 73q-19 27 -66 56q-39 24 -76 41q-25 12 -97 32q-39 11 -98 24
q-10 2 -25.5 5t-40 8t-42.5 9q-92 18 -149 33q-58 15 -132 45q-73 30 -116 68q-40 36 -71 101q-30 63 -30 142q0 195 147 292q146 97 344 97q243 0 396 -112q152 -111 164 -341z" />
    <glyph glyph-name="scedilla" unicode="&#x15f;" horiz-adv-x="985" 
d="M74 350h78q7 -142 105 -225q97 -82 243 -82q60 0 110 10q56 11 107 33q54 23 85 69q32 47 32 111q0 99 -75 151q-73 51 -181 71q-120 22 -212 43q-105 24 -181 91q-74 65 -74 185q0 142 112 206t269 64q176 0 282 -82q107 -83 107 -254h-78q0 136 -85 202q-87 67 -226 67
q-120 0 -213 -51q-91 -50 -91 -152q0 -21 6 -51q4 -22 20 -42q5 -7 27 -34q12 -15 39 -27t43 -20q20 -10 51 -19t51 -13q25 -5 57 -13q49 -12 57 -13q187 -35 279 -97q93 -63 93 -212q0 -118 -76 -187q-75 -68 -194 -89q-55 -10 -123 -15l-76 -90l4 -4q39 17 76 17
q66 2 108 -35q44 -38 44 -107q0 -157 -201 -157q-109 0 -188 51l22 49q95 -45 164 -45q54 0 89 25q36 25 36 77q0 41 -32 65q-30 23 -66 23q-56 0 -109 -24l-33 26l97 131q-56 1 -121 23q-118 35 -187 126q-70 92 -71 224z" />
    <glyph glyph-name="Scaron" unicode="&#x160;" horiz-adv-x="1290" 
d="M1174 1044h-91q-7 183 -134 279q-126 96 -335 96q-67 0 -133 -15t-128 -49q-61 -33 -101 -98q-39 -63 -39 -149q0 -66 27 -116q28 -52 70 -82q41 -30 107 -55q64 -24 127 -39q67 -16 142 -30q9 -1 25 -4q82 -17 149 -33q53 -13 133 -48q73 -32 115 -71q43 -40 73 -106
q29 -64 29 -147q0 -109 -48 -192t-126 -129q-75 -44 -164 -68q-87 -23 -176 -23q-278 0 -449 126q-172 126 -167 392h90q-8 -153 66 -255q73 -101 190 -143t270 -42q77 0 142 17q69 18 135 54t106 104q41 70 41 159q0 52 -16 94q-15 41 -38 73q-19 27 -66 56q-39 24 -76 41
q-25 12 -97 32q-39 11 -98 24q-10 2 -25.5 5t-40 8t-42.5 9q-92 18 -149 33q-58 15 -132 45q-73 30 -116 68q-40 36 -71 101q-30 63 -30 142q0 195 147 292q146 97 344 97q243 0 396 -112q152 -111 164 -341zM694 1597h-82l-235 287h78l198 -235l201 235h78z" />
    <glyph glyph-name="scaron" unicode="&#x161;" horiz-adv-x="985" 
d="M74 350h78q7 -142 105 -225q97 -82 243 -82q60 0 110 10q56 11 107 33q54 23 85 69q32 47 32 111q0 99 -75 151q-73 51 -181 71q-120 22 -212 43q-105 24 -181 91q-74 65 -74 185q0 142 112 206t269 64q176 0 282 -82q107 -83 107 -254h-78q0 136 -85 202q-87 67 -226 67
q-120 0 -213 -51q-91 -50 -91 -152q0 -21 6 -51q4 -22 20 -42q5 -7 27 -34q12 -15 39 -27t43 -20q20 -10 51 -19t51 -13q25 -5 57 -13q49 -12 57 -13q187 -35 279 -97q93 -63 93 -212q0 -80 -38 -141q-38 -60 -100 -90q-63 -30 -130 -45t-143 -15q-186 0 -304 99
q-118 98 -122 276zM545 1208h-82l-236 287h78l199 -235l201 235h77z" />
    <glyph glyph-name="Tcommaaccent" unicode="&#x162;" 
d="M485 1384h-514v78h1121v-78h-517v-1384h-90v1384zM467 -401v41q56 12 63 67h-51v191h117v-164q0 -124 -129 -135z" />
    <glyph glyph-name="tcommaaccent" unicode="&#x163;" horiz-adv-x="530" 
d="M502 1053v-68h-230v-735q0 -118 53 -153q51 -34 175 -29v-68q-65 -4 -117 2q-49 6 -97 30t-72 78q-24 53 -19 140v735h-195v68h195v327h77v-327h230zM262 -401v41q57 12 64 67h-52v191h117v-164q0 -124 -129 -135z" />
    <glyph glyph-name="Tcaron" unicode="&#x164;" 
d="M485 1384h-514v78h1121v-78h-517v-1384h-90v1384zM571 1597h-82l-235 287h78l198 -235l201 235h78z" />
    <glyph glyph-name="tcaron" unicode="&#x165;" horiz-adv-x="622" 
d="M479 1176l133 286h105l-178 -286h-60zM502 1053v-68h-230v-735q0 -118 53 -153q51 -34 175 -29v-68q-65 -4 -117 2q-49 6 -97 30t-72 78q-24 53 -19 140v735h-195v68h195v327h77v-327h230z" />
    <glyph glyph-name="Tbar" unicode="&#x166;" 
d="M485 1384h-514v78h1121v-78h-517v-393h326v-67h-326v-924h-90v924h-325v67h325v393z" />
    <glyph glyph-name="tbar" unicode="&#x167;" horiz-adv-x="530" 
d="M502 1053v-68h-230v-276h246v-68h-246v-391q0 -118 53 -153q51 -34 175 -29v-68q-65 -4 -117 2q-49 6 -97 30t-72 78q-24 53 -19 140v391h-207v68h207v276h-195v68h195v327h77v-327h230z" />
    <glyph glyph-name="Utilde" unicode="&#x168;" horiz-adv-x="1376" 
d="M129 1462h90v-876q0 -65 6 -125q5 -54 34 -140q27 -82 74 -139q47 -58 135 -98q90 -41 210 -41q258 0 369 139q110 138 110 404v876h90v-876q0 -621 -569 -621q-549 0 -549 621v876zM457 1636h-60q5 75 47 129q44 56 111 56q48 4 146 -56q97 -59 137 -61q38 0 62 35
q24 34 30 82h59q-7 -77 -46 -131t-109 -54q-46 0 -142 60q-57 35 -88 47q-23 10 -51 10q-78 0 -96 -117z" />
    <glyph glyph-name="utilde" unicode="&#x169;" 
d="M948 1053v-1053h-78v225h-4q-41 -117 -145 -183q-107 -67 -232 -67q-84 0 -155 22q-69 21 -107 61q-41 42 -63 80q-25 41 -35 98t-12 89q-2 42 -2 76v652h78v-666q0 -344 299 -344q175 0 277 122q101 120 101 318v570h78zM297 1247h-59q5 75 47 129q44 56 110 56
q49 4 147 -56q97 -59 136 -61q38 0 62 35q24 34 30 82h59q-8 -78 -46 -132q-38 -53 -109 -53q-46 0 -142 60q-57 35 -88 47q-23 10 -51 10q-78 0 -96 -117z" />
    <glyph glyph-name="Umacron" unicode="&#x16a;" horiz-adv-x="1376" 
d="M129 1462h90v-876q0 -65 6 -125q5 -54 34 -140q27 -82 74 -139q47 -58 135 -98q90 -41 210 -41q258 0 369 139q110 138 110 404v876h90v-876q0 -621 -569 -621q-549 0 -549 621v876zM936 1696h-496v67h496v-67z" />
    <glyph glyph-name="umacron" unicode="&#x16b;" 
d="M948 1053v-1053h-78v225h-4q-41 -117 -145 -183q-107 -67 -232 -67q-84 0 -155 22q-69 21 -107 61q-41 42 -63 80q-25 41 -35 98t-12 89q-2 42 -2 76v652h78v-666q0 -344 299 -344q175 0 277 122q101 120 101 318v570h78zM782 1307h-495v67h495v-67z" />
    <glyph glyph-name="Ubreve" unicode="&#x16c;" horiz-adv-x="1376" 
d="M129 1462h90v-876q0 -65 6 -125q5 -54 34 -140q27 -82 74 -139q47 -58 135 -98q90 -41 210 -41q258 0 369 139q110 138 110 404v876h90v-876q0 -621 -569 -621q-549 0 -549 621v876zM895 1864h68q-12 -99 -90 -173q-78 -73 -179 -73q-120 0 -195 65q-76 65 -91 181h67
q43 -178 217 -178q81 0 134 49q54 49 69 129z" />
    <glyph glyph-name="ubreve" unicode="&#x16d;" 
d="M948 1053v-1053h-78v225h-4q-41 -117 -145 -183q-107 -67 -232 -67q-84 0 -155 22q-69 21 -107 61q-41 42 -63 80q-25 41 -35 98t-12 89q-2 42 -2 76v652h78v-666q0 -344 299 -344q175 0 277 122q101 120 101 318v570h78zM733 1475h68q-12 -101 -89 -173
q-78 -73 -180 -73q-120 0 -195 65q-76 65 -91 181h67q44 -179 217 -179q80 0 135 50q53 48 68 129z" />
    <glyph glyph-name="Uring" unicode="&#x16e;" horiz-adv-x="1376" 
d="M129 1462h90v-876q0 -65 6 -125q5 -54 34 -140q27 -82 74 -139q47 -58 135 -98q90 -41 210 -41q258 0 369 139q110 138 110 404v876h90v-876q0 -621 -569 -621q-549 0 -549 621v876zM530 1741q0 -62 43 -105t105 -43q61 0 104 43t43 105q0 61 -43 104t-104 43
q-62 0 -105 -43t-43 -104zM475 1741q0 85 59 144t144 59t144 -59t59 -144q0 -86 -59 -145q-58 -58 -144 -58t-144 58q-59 59 -59 145z" />
    <glyph glyph-name="uring" unicode="&#x16f;" 
d="M948 1053v-1053h-78v225h-4q-41 -117 -145 -183q-107 -67 -232 -67q-84 0 -155 22q-69 21 -107 61q-41 42 -63 80q-25 41 -35 98t-12 89q-2 42 -2 76v652h78v-666q0 -344 299 -344q175 0 277 122q101 120 101 318v570h78zM381 1372q0 -61 43 -104t104 -43q62 0 105 43
t43 104q0 62 -43 105t-105 43q-61 0 -104 -43t-43 -105zM326 1372q0 87 58 145t144 58q87 0 145 -58t58 -145q0 -86 -58 -144q-59 -59 -145 -59q-85 0 -144 59q-58 58 -58 144z" />
    <glyph glyph-name="Uhungarumlaut" unicode="&#x170;" horiz-adv-x="1376" 
d="M129 1462h90v-876q0 -65 6 -125q5 -54 34 -140q27 -82 74 -139q47 -58 135 -98q90 -41 210 -41q258 0 369 139q110 138 110 404v876h90v-876q0 -621 -569 -621q-549 0 -549 621v876zM866 1599h-75l245 287h105zM543 1599h-76l246 287h104z" />
    <glyph glyph-name="uhungarumlaut" unicode="&#x171;" 
d="M948 1053v-1053h-78v225h-4q-41 -117 -145 -183q-107 -67 -232 -67q-84 0 -155 22q-69 21 -107 61q-41 42 -63 80q-25 41 -35 98t-12 89q-2 42 -2 76v652h78v-666q0 -344 299 -344q175 0 277 122q101 120 101 318v570h78zM717 1210h-76l246 287h104zM393 1210h-76
l246 287h105z" />
    <glyph glyph-name="Uogonek" unicode="&#x172;" horiz-adv-x="1376" 
d="M129 1462h90v-876q0 -65 6 -125q5 -54 34 -140q27 -82 74 -139q47 -58 135 -98q90 -41 210 -41q258 0 369 139q110 138 110 404v876h90v-876q0 -444 -297 -574q-86 -34 -213 -45q-22 -24 -45 -47q-84 -100 -84 -168q0 -38 26 -62t60 -24q40 0 67 16q25 15 54 56l47 -17
q-52 -122 -176 -122q-168 0 -168 139q0 90 103 182q50 40 57 45q-549 0 -549 621v876z" />
    <glyph glyph-name="uogonek" unicode="&#x173;" 
d="M948 1053v-1053h-78v225h-4q-30 -85 -98 -147t-158 -86q-7 0 -18 -4t-19 -4l-63 -64q-84 -100 -84 -168q0 -38 26 -62t60 -24q40 0 67 16q25 15 54 56l47 -17q-52 -122 -176 -122q-168 0 -168 139q0 90 102 182q31 28 72 55h-21q-84 0 -155 22q-69 21 -107 61
q-41 42 -63 80q-25 41 -35 98t-12 89q-2 42 -2 76v652h78v-666q0 -344 299 -344q175 0 277 122q101 120 101 318v570h78z" />
    <glyph glyph-name="Wcircumflex" unicode="&#x174;" horiz-adv-x="1820" 
d="M410 0l-422 1462h92l381 -1366h4l387 1366h113l393 -1366h4l375 1366h96l-420 -1462h-102l-402 1384h-4l-395 -1384h-100zM866 1884h82l238 -287h-78l-201 236l-198 -236h-78z" />
    <glyph glyph-name="wcircumflex" unicode="&#x175;" horiz-adv-x="1441" 
d="M80 1053l297 -963h4l287 963h104l289 -963h4l295 963h86l-338 -1053h-96l-289 954h-4l-291 -954h-98l-334 1053h84zM680 1495h82l237 -287h-77l-201 236l-199 -236h-78z" />
    <glyph glyph-name="Ycircumflex" unicode="&#x176;" horiz-adv-x="1175" 
d="M588 688l530 774h101l-588 -850v-612h-90v612l-584 850h102zM549 1884h82l237 -287h-77l-201 236l-199 -236h-78z" />
    <glyph glyph-name="ycircumflex" unicode="&#x177;" horiz-adv-x="909" 
d="M428 6l-440 1047h92l391 -961l360 961h89l-451 -1166q-73 -182 -123 -217q-42 -32 -91 -39q-56 -8 -155 -8v68q87 0 132 13q46 14 87 54q32 32 109 248zM430 1495h82l238 -287h-78l-201 236l-199 -236h-77z" />
    <glyph glyph-name="Ydieresis" unicode="&#x178;" horiz-adv-x="1175" 
d="M588 688l530 774h101l-588 -850v-612h-90v612l-584 850h102zM795 1624h-90v211h90v-211zM471 1624h-90v211h90v-211z" />
    <glyph glyph-name="Zacute" unicode="&#x179;" horiz-adv-x="1099" 
d="M57 1384v78h1026v-78l-991 -1306h1010v-78h-1104v78l987 1306h-928zM508 1597l246 287h104l-274 -287h-76z" />
    <glyph glyph-name="zacute" unicode="&#x17a;" horiz-adv-x="872" 
d="M113 68h741v-68h-836v74l707 911h-651v68h747v-74zM391 1208l246 287h104l-274 -287h-76z" />
    <glyph glyph-name="Zdotaccent" unicode="&#x17b;" horiz-adv-x="1099" 
d="M57 1384v78h1026v-78l-991 -1306h1010v-78h-1104v78l987 1306h-928zM604 1624h-90v211h90v-211z" />
    <glyph glyph-name="zdotaccent" unicode="&#x17c;" horiz-adv-x="872" 
d="M113 68h741v-68h-836v74l707 911h-651v68h747v-74zM496 1235h-90v211h90v-211z" />
    <glyph glyph-name="Zcaron" unicode="&#x17d;" horiz-adv-x="1099" 
d="M57 1384v78h1026v-78l-991 -1306h1010v-78h-1104v78l987 1306h-928zM588 1597h-82l-236 287h78l199 -235l201 235h77z" />
    <glyph glyph-name="zcaron" unicode="&#x17e;" horiz-adv-x="872" 
d="M113 68h741v-68h-836v74l707 911h-651v68h747v-74zM473 1208h-82l-235 287h77l199 -235l201 235h78z" />
    <glyph glyph-name="longs" unicode="&#x17f;" horiz-adv-x="493" 
d="M0 985v68h188v217q0 52 19 95q18 41 50 65q31 24 74 36q46 13 89 13q32 0 92 -11v-67q-54 10 -92 10q-66 0 -110 -30t-44 -117v-1264h-78v985h-188z" />
    <glyph glyph-name="uni018E" unicode="&#x18e;" horiz-adv-x="1146" 
d="M1153 0h-983v78h893v586h-840v77h840v643h-903v78h993v-1462z" />
    <glyph glyph-name="uni018F" unicode="&#x18f;" horiz-adv-x="1435" 
d="M1280 776q-6 135 -43 250t-107 205q-68 88 -172 138q-103 50 -239 50q-103 0 -181 -26q-82 -27 -146 -75q-62 -46 -110 -116t-77 -149h-94q31 94 86 180q51 81 129 140q76 59 174 91q99 33 219 33q166 0 287 -59q122 -60 203 -163q82 -105 122 -244q41 -143 41 -300
t-41 -300q-40 -139 -122 -244q-80 -102 -203 -162t-287 -60t-287 60q-124 61 -205 162q-83 104 -123 244q-41 143 -41 300v45h1217zM719 43q135 0 240 50q106 51 174 138q69 88 106 206q36 115 41 251h-1126q6 -134 43 -251q37 -118 106 -206t173 -138q105 -50 243 -50z" />
    <glyph glyph-name="florin" unicode="&#x192;" horiz-adv-x="1138" 
d="M850 877l-14 -68h-246l-150 -782q-22 -104 -25 -116q-13 -47 -36 -106q-22 -58 -55 -95q-28 -32 -83 -59q-54 -26 -120 -26q-46 0 -103 13l13 73q50 -8 88 -8q32 0 57 7q27 8 48 24q23 18 37 32q16 16 29 44q4 7 11.5 23.5t10.5 23.5q12 23 18 55q7 34 12 53q1 5 11 57
q8 44 9 50l142 737h-225l14 68h223l39 200q18 93 34 141q19 56 52 108q35 54 92 80q58 26 141 26q59 0 123 -11l-14 -73q-74 10 -106 10q-113 0 -163 -73q-51 -74 -73 -200l-39 -208h248z" />
    <glyph glyph-name="Ohorn" unicode="&#x1a0;" horiz-adv-x="1585" 
d="M1454 731q0 -157 -47 -300q-46 -138 -136 -244q-86 -101 -218 -162q-129 -60 -293 -60t-294 60q-133 61 -219 162q-90 106 -136 244q-48 146 -48 300t48 300q46 138 136 244q88 103 219 163q128 59 294 59q178 0 316 -70q137 -69 227 -192q27 -21 63 -21q60 0 95 84
q34 83 34 250h66q0 -79 -11 -154q-11 -76 -31 -126q-21 -53 -56 -85t-79 -32q-23 0 -32 4q102 -183 102 -424zM154 731q0 -140 41 -266t118 -218q78 -93 191 -149q111 -55 256 -55t255 55t189 149t119 218q41 126 41 266t-41 266q-40 124 -119 218t-189 149t-255 55
t-256 -55q-113 -56 -191 -149q-77 -92 -118 -218t-41 -266z" />
    <glyph glyph-name="ohorn" unicode="&#x1a1;" horiz-adv-x="1259" 
d="M66 526q0 115 31 212q31 98 93 175q61 76 152 120t207 44q137 0 237 -60q99 -59 160 -161q17 -19 37 -30q19 -11 49 -11q60 0 95 84q34 83 34 250h66q0 -86 -10 -155q-11 -72 -32 -126q-21 -53 -56 -85q-34 -31 -78 -31q-18 0 -35 5q-12 4 -27 13q43 -110 43 -244
q0 -111 -32 -213q-31 -100 -93 -175q-63 -76 -151 -119q-91 -44 -207 -44t-207 44q-90 44 -152 119t-93 175q-31 99 -31 213zM143 526q0 -94 27 -181q27 -88 78 -155q50 -66 127 -107q76 -40 174 -40t174 40q77 41 127 107q51 67 78 155q26 84 26 181q0 98 -26 182
q-27 86 -78 154t-127 108t-174 40t-174 -40t-127 -108t-78 -154q-27 -87 -27 -182z" />
    <glyph glyph-name="uni01A2" unicode="&#x1a2;" horiz-adv-x="1392" 
d="M1174 1384h-177v-1384q-46 -11 -88 -18q-68 -11 -78 -12q-45 -5 -71 -5q-164 0 -294 60q-133 61 -219 162q-90 106 -136 244q-48 146 -48 300t48 300q46 138 136 244q88 103 219 163q128 59 294 59q30 0 62 -4q44 -6 70 -10q7 -1 60 -13q34 -8 37 -8h275v-1839h-90v1761z
M154 731q0 -140 41 -266t118 -218q78 -93 191 -149q111 -55 256 -55q45 0 77 4q35 4 70 12v1344q-70 16 -147 16q-145 0 -256 -55q-113 -56 -191 -149q-77 -92 -118 -218t-41 -266z" />
    <glyph glyph-name="uni01A3" unicode="&#x1a3;" horiz-adv-x="1142" 
d="M932 -330v1305h-178v-957q-35 -17 -97 -31q-53 -12 -108 -12q-116 0 -207 44q-90 44 -152 119t-93 175q-31 99 -31 213q0 115 31 212q31 98 93 175q61 76 152 120t207 44q44 0 82 -7q51 -10 76 -17h303v-1383h-78zM143 526q0 -94 27 -181q27 -88 78 -155q50 -66 127 -107
q76 -40 174 -40q28 0 65 5q34 5 62 15v926q-32 12 -61 16q-35 5 -66 5q-98 0 -174 -40t-127 -108t-78 -154q-27 -87 -27 -182z" />
    <glyph glyph-name="uni01A7" unicode="&#x1a7;" horiz-adv-x="1290" 
d="M207 1044q5 96 40 164q38 72 97 117q63 48 146 71q82 23 186 23q66 0 132 -14q74 -16 131 -50q59 -35 99 -97q39 -60 39 -150q0 -88 -43 -143q-43 -54 -112 -89q-66 -33 -160 -55q-87 -20 -182 -39q-92 -18 -184 -44q-88 -26 -159 -69q-70 -43 -114 -115
q-43 -70 -43 -177q0 -116 49 -193q49 -78 124 -127q74 -49 166 -70q96 -22 175 -22q125 0 242 28q112 27 196 90q85 64 132 161q48 98 46 239h-90q6 -120 -35 -203q-42 -85 -113 -137t-171 -76q-99 -24 -207 -24q-67 0 -140 16q-74 16 -138 56q-61 38 -104 102
q-42 63 -42 160q0 92 43 150q44 59 114 95q71 36 159 57q106 25 184 40q79 16 182 43q92 24 160 66q67 41 112 109q43 65 43 171q0 103 -44 179q-43 74 -114 121q-72 47 -159 68q-88 21 -174 21q-113 0 -214 -26q-100 -26 -174 -79t-120 -141q-45 -85 -51 -207h90z" />
    <glyph glyph-name="uni01A8" unicode="&#x1a8;" horiz-adv-x="985" 
d="M911 350q-2 -95 -35 -162q-35 -70 -91 -117q-57 -48 -133 -72t-167 -24q-67 0 -142 14q-76 14 -133 47q-62 36 -98 89q-38 56 -38 141q0 83 28 135q28 51 79 87q49 34 119 54q55 15 146 33q21 5 63 14.5t63 14.5q68 16 113 38q52 25 81 63q31 40 31 102q0 54 -28 94
t-71 64q-42 23 -97 34q-57 11 -107 11q-62 0 -123 -16q-58 -15 -100 -47q-40 -30 -65 -83q-24 -51 -24 -123h-78q0 91 30 154q31 64 82 104q55 43 123 60q70 18 155 18q70 0 135 -13q67 -13 122 -44q54 -30 89 -83q34 -52 34 -130q0 -107 -53 -165q-52 -57 -134 -87
q-86 -32 -174 -46q-86 -14 -174 -40q-80 -24 -134 -70q-53 -45 -53 -133q0 -69 32 -111q35 -45 83 -69q52 -25 109 -34q58 -9 109 -9q72 0 132 20q63 21 109 61q48 42 75 96q29 57 33 130h77z" />
    <glyph glyph-name="Uhorn" unicode="&#x1af;" horiz-adv-x="1581" 
d="M219 1462v-876q0 -50 4 -101q5 -57 21 -117q17 -63 46 -119q30 -59 81 -105q50 -46 126 -73q78 -28 181 -28q133 0 226 38q91 37 148 108t81 171t24 226v876h90v-61q6 -57 34 -93q27 -34 81 -34q60 0 95 84q34 83 34 250h65q0 -86 -10 -155q-11 -74 -33 -126
q-23 -54 -57 -85q-35 -32 -84 -32q-59 0 -87 26q-28 27 -38 62v-712q0 -132 -27 -244q-27 -111 -94 -197q-66 -84 -175 -132t-273 -48q-130 0 -221 33q-95 34 -153 85q-61 53 -95 120q-36 70 -53 136q-19 72 -23 133q-4 57 -4 114v876h90z" />
    <glyph glyph-name="uhorn" unicode="&#x1b0;" horiz-adv-x="1284" 
d="M948 981q6 -57 34 -93q27 -34 81 -34q61 0 95 84q34 83 34 250h65q0 -86 -10 -155q-11 -74 -33 -126q-23 -54 -57 -85t-84 -31q-61 0 -87 25q-28 26 -38 63v-879h-78v225h-4q-20 -58 -58 -105q-35 -44 -88 -79q-48 -32 -110 -49t-121 -17q-90 0 -156 23q-68 24 -106 59
q-41 38 -64 83t-34 93q-10 46 -12 92q-2 58 -2 76v652h78v-666q0 -41 6 -99q6 -61 35 -113q30 -54 90 -93t168 -39q88 0 158 33q71 33 120 91q50 59 75 139q25 79 25 177v570h78v-72z" />
    <glyph glyph-name="uni01B5" unicode="&#x1b5;" horiz-adv-x="1099" 
d="M123 717v78h907v-78h-907zM57 1462h1026v-78l-991 -1306h1010v-78h-1104v78l987 1306h-928v78z" />
    <glyph glyph-name="uni01B6" unicode="&#x1b6;" horiz-adv-x="872" 
d="M156 520v68h649v-68h-649zM854 68v-68h-836v74l707 911h-651v68h747v-74l-708 -911h741z" />
    <glyph glyph-name="uni01C0" unicode="&#x1c0;" horiz-adv-x="454" 
d="M188 1610h78v-2048h-78v2048z" />
    <glyph glyph-name="uni01C1" unicode="&#x1c1;" horiz-adv-x="909" 
d="M188 1610h78v-2048h-78v2048zM643 1610h78v-2048h-78v2048z" />
    <glyph glyph-name="uni01C3" unicode="&#x1c3;" horiz-adv-x="530" 
d="M217 969v493h98v-493l-24 -594h-49zM213 211h104v-211h-104v211z" />
    <glyph glyph-name="uni01C4" unicode="&#x1c4;" horiz-adv-x="2465" 
d="M129 1462h479q198 0 327 -61t208 -164q77 -101 109 -233q32 -133 32 -271q0 -158 -40 -290q-41 -134 -124 -232q-82 -97 -212 -155q-125 -56 -304 -56h-475v1462zM612 78q101 0 206 32t188 106t136 201q52 125 52 316q0 149 -30 256t-78 179q-50 75 -110 115
q-65 43 -129 65q-61 21 -133 29q-62 7 -120 7h-375v-1306h393zM1423 1462h1026v-78l-991 -1306h1010v-78h-1104v78l987 1306h-928v78zM1874 1616l-236 287h78l199 -236l201 236h77l-237 -287h-82z" />
    <glyph glyph-name="uni01C5" unicode="&#x1c5;" horiz-adv-x="2238" 
d="M129 1462h479q198 0 327 -61t208 -164q77 -101 109 -233q32 -133 32 -271q0 -158 -40 -290q-41 -134 -124 -232q-82 -97 -212 -155q-125 -56 -304 -56h-475v1462zM612 78q101 0 206 32t188 106t136 201q52 125 52 316q0 149 -30 256t-78 179q-50 75 -110 115
q-65 43 -129 65q-61 21 -133 29q-62 7 -120 7h-375v-1306h393zM2220 68v-68h-836v74l707 911h-651v68h747v-74l-708 -911h741zM1761 1206l-235 287h78l198 -236l201 236h78l-238 -287h-82z" />
    <glyph glyph-name="uni01C6" unicode="&#x1c6;" horiz-adv-x="2011" 
d="M928 225h-4q-66 -125 -164 -187q-99 -63 -240 -63q-120 0 -205 45q-86 45 -141 121t-82 175q-26 95 -26 208q0 118 28 218q29 103 87 176q57 72 147 116q87 43 207 43q66 0 124 -17q64 -19 114 -50q52 -33 91 -82q39 -50 60 -111h4v645h78v-1462h-78v225zM537 43
q100 0 173 41q71 40 120 109q48 68 72 154q24 87 24 177q0 92 -24 179q-24 86 -71 156t-121 110q-76 41 -175 41q-106 0 -179 -40q-74 -41 -122 -108q-48 -68 -69 -155q-22 -93 -22 -183q0 -92 24 -179q24 -88 72 -155q47 -66 121 -107q73 -40 177 -40zM1993 68v-68h-836v74
l707 911h-652v68h748v-74l-709 -911h742zM1534 1206l-236 287h78l199 -236l201 236h77l-237 -287h-82z" />
    <glyph glyph-name="uni01C7" unicode="&#x1c7;" horiz-adv-x="2009" 
d="M129 1462h90v-1384h830v-78h-920v1462zM1468 43q125 0 192 41q66 41 95 104q29 64 32 143t3 154v977h90v-1007q0 -62 -1 -97q-2 -61 -12 -107q-13 -60 -35 -106q-24 -50 -69 -91q-45 -40 -113 -64q-72 -25 -171 -25q-147 0 -232 47q-82 46 -124 121q-40 72 -49 162
q-9 89 -9 170h90q-6 -79 2 -158q7 -74 41 -134q33 -58 97 -94q65 -36 173 -36z" />
    <glyph glyph-name="uni01C8" unicode="&#x1c8;" horiz-adv-x="1368" 
d="M129 1462h90v-1384h830v-78h-920v1462zM1157 1251v211h78v-211h-78zM1235 1053v-1166q0 -50 -8 -101q-7 -47 -32 -84q-24 -36 -66 -57q-44 -22 -109 -22h-33h-16q-7 0 -17 2v68q7 -1 23 -3q8 -1 29 -1q40 0 69 9t47 33q20 27 27 63q8 43 8 100v1159h78z" />
    <glyph glyph-name="uni01C9" unicode="&#x1c9;" horiz-adv-x="688" 
d="M211 1462v-1462h-78v1462h78zM477 1251v211h78v-211h-78zM555 1053v-1166q0 -50 -8 -101q-7 -47 -32 -84t-65 -57q-44 -22 -110 -22h-33h-16q-7 0 -17 2v68q7 -1 23 -3q8 -1 29 -1q40 0 69 9t47 33q20 27 27 63q8 43 8 100v1159h78z" />
    <glyph glyph-name="uni01CA" unicode="&#x1ca;" horiz-adv-x="2373" 
d="M129 1462h113l923 -1341h4v1341h91v-1462h-107l-930 1352h-4v-1352h-90v1462zM1833 43q124 0 191 41q68 42 96 104t31 143q3 79 3 154v977h91v-1007q0 -62 -1 -97q-2 -56 -13 -107q-13 -60 -35 -106q-24 -52 -68 -91q-44 -40 -114 -64q-72 -25 -171 -25q-146 0 -231 47
q-82 46 -124 121q-40 72 -49 162q-9 89 -9 170h90q-6 -79 2 -158q7 -74 41 -134q33 -58 97 -94t173 -36z" />
    <glyph glyph-name="uni01CB" unicode="&#x1cb;" horiz-adv-x="1732" 
d="M129 1462h113l923 -1341h4v1341h91v-1462h-107l-930 1352h-4v-1352h-90v1462zM1522 1251v211h77v-211h-77zM1599 1053v-1166q0 -50 -8 -101q-8 -49 -31 -84q-24 -36 -66 -57q-44 -22 -110 -22h-32h-17q-6 0 -16 2v68q14 -2 22 -3t29 -1q42 0 70 9q29 9 47 33q19 25 26 63
q9 49 9 100v1159h77z" />
    <glyph glyph-name="uni01CC" unicode="&#x1cc;" horiz-adv-x="1406" 
d="M115 1053h78v-226h4q21 60 58 106q35 44 88 79q48 32 110 49q58 16 120 16q94 0 157 -22q66 -23 106 -60q41 -38 64 -83t34 -93q10 -46 12 -91q2 -58 2 -77v-651h-78v666q0 38 -6 98t-36 114t-90 93t-167 39q-90 0 -159 -33q-71 -34 -119 -91q-49 -58 -75 -140
q-25 -79 -25 -177v-569h-78v1053zM1196 1251v211h78v-211h-78zM1274 1053v-1166q0 -50 -8 -101q-7 -47 -32 -84q-24 -36 -66 -57q-44 -22 -109 -22h-33h-16q-7 0 -17 2v68q7 -1 23 -3q8 -1 28 -1q42 0 70 9q29 9 47 33q20 27 27 63q8 43 8 99v1160h78z" />
    <glyph glyph-name="uni01CD" unicode="&#x1cd;" horiz-adv-x="1214" 
d="M563 1462h99l577 -1462h-96l-185 469h-700l-186 -469h-97zM930 547l-314 827h-4l-325 -827h643zM565 1597l-235 287h78l198 -235l201 235h78l-238 -287h-82z" />
    <glyph glyph-name="uni01CE" unicode="&#x1ce;" horiz-adv-x="1024" 
d="M813 209h-4q-18 -46 -53 -89q-33 -41 -85 -75q-48 -32 -114 -51q-67 -19 -139 -19q-167 0 -260 73q-92 72 -92 224q0 95 36 151q37 57 94 92q54 32 125 48q69 15 132 21l120 10q88 6 133 19q49 14 72 37q25 25 31 61q6 37 6 92q0 44 -16 80t-51 65q-34 28 -91 45t-135 17
q-140 0 -228 -70q-87 -69 -95 -211h-78q7 174 111 261t294 87q191 0 278 -75t87 -195v-612q0 -30 1 -45q2 -25 7 -41q6 -18 21 -30q14 -11 41 -11q19 0 57 6v-66q-32 -8 -64 -8q-47 0 -74 12t-42 33q-16 22 -20 48q-5 30 -5 61v55zM813 598q-29 -35 -87 -47
q-67 -14 -130 -19l-131 -12q-68 -7 -115 -17q-59 -12 -103 -38q-47 -27 -75 -73q-29 -47 -29 -120q0 -116 74 -173q72 -56 203 -56q133 0 211 48q79 49 119 111t52 121q11 54 11 78v197zM500 1231l-236 287h78l199 -236l200 236h78l-237 -287h-82z" />
    <glyph glyph-name="uni01CF" unicode="&#x1cf;" horiz-adv-x="348" 
d="M129 1462h90v-1462h-90v1462zM133 1597l-235 287h77l199 -235l201 235h78l-238 -287h-82z" />
    <glyph glyph-name="uni01D0" unicode="&#x1d0;" horiz-adv-x="344" 
d="M133 0v1053h78v-1053h-78zM131 1206l-235 287h77l199 -236l201 236h78l-238 -287h-82z" />
    <glyph glyph-name="uni01D1" unicode="&#x1d1;" horiz-adv-x="1517" 
d="M1454 731q0 -157 -47 -300q-46 -138 -136 -244q-86 -101 -218 -162q-129 -60 -293 -60t-294 60q-133 61 -219 162q-90 106 -136 244q-48 146 -48 300t48 300q46 138 136 244q88 103 219 163q128 59 294 59t293 -59q131 -61 218 -163q90 -106 136 -244q47 -143 47 -300z
M154 731q0 -140 41 -266t118 -218q78 -93 191 -149q111 -55 256 -55t255 55t189 149t119 218q41 126 41 266t-41 266q-40 124 -119 218t-189 149t-255 55t-256 -55q-113 -56 -191 -149q-77 -92 -118 -218t-41 -266zM717 1597l-236 287h78l199 -235l200 235h78l-237 -287h-82
z" />
    <glyph glyph-name="uni01D2" unicode="&#x1d2;" horiz-adv-x="1099" 
d="M66 526q0 115 31 212q31 98 93 175q61 76 152 120t207 44t207 -44q89 -43 151 -120t93 -175q32 -101 32 -212t-32 -213q-31 -100 -93 -175q-63 -76 -151 -119q-91 -44 -207 -44t-207 44q-90 44 -152 119t-93 175q-31 99 -31 213zM143 526q0 -94 27 -181q27 -88 78 -155
q50 -66 127 -107q76 -40 174 -40t174 40q77 41 127 107q51 67 78 155q26 84 26 181q0 98 -26 182q-27 86 -78 154t-127 108t-174 40t-174 -40t-127 -108t-78 -154q-27 -87 -27 -182zM508 1231l-236 287h78l199 -236l201 236h77l-237 -287h-82z" />
    <glyph glyph-name="uni01D3" unicode="&#x1d3;" horiz-adv-x="1376" 
d="M219 1462v-876q0 -50 4 -101q5 -57 21 -117q17 -63 46 -119q30 -59 81 -105q50 -46 126 -73q78 -28 181 -28q133 0 226 38q91 37 148 108t81 171t24 226v876h90v-876q0 -132 -27 -244q-27 -111 -94 -197q-66 -84 -175 -132t-273 -48q-130 0 -221 33q-95 34 -153 85
q-61 53 -95 120q-36 70 -53 136q-19 72 -23 133q-4 57 -4 114v876h90zM647 1597l-235 287h77l199 -235l201 235h78l-238 -287h-82z" />
    <glyph glyph-name="uni01D4" unicode="&#x1d4;" 
d="M948 0h-78v225h-4q-20 -58 -58 -105q-35 -44 -88 -79q-48 -32 -110 -49t-121 -17q-90 0 -156 23q-68 24 -106 59q-41 38 -64 83t-34 93q-10 46 -12 92q-2 58 -2 76v652h78v-666q0 -41 6 -99q6 -61 35 -113q30 -54 90 -93t168 -39q88 0 158 33q71 33 120 91q50 59 75 139
q25 79 25 177v570h78v-1053zM489 1206l-235 287h78l198 -236l201 236h78l-238 -287h-82z" />
    <glyph glyph-name="uni01D5" unicode="&#x1d5;" horiz-adv-x="1376" 
d="M219 1462v-876q0 -50 4 -101q5 -57 21 -117q17 -63 46 -119q30 -59 81 -105q50 -46 126 -73q78 -28 181 -28q133 0 226 38q91 37 148 108t81 171t24 226v876h90v-876q0 -132 -27 -244q-27 -111 -94 -197q-66 -84 -175 -132t-273 -48q-130 0 -221 33q-95 34 -153 85
q-61 53 -95 120q-36 70 -53 136q-19 72 -23 133q-4 57 -4 114v876h90zM805 1616v211h90v-211h-90zM481 1616v211h90v-211h-90zM440 1980v68h496v-68h-496z" />
    <glyph glyph-name="uni01D6" unicode="&#x1d6;" 
d="M948 0h-78v225h-4q-20 -58 -58 -105q-35 -44 -88 -79q-48 -32 -110 -49t-121 -17q-90 0 -156 23q-68 24 -106 59q-41 38 -64 83t-34 93q-10 46 -12 92q-2 58 -2 76v652h78v-666q0 -41 6 -99q6 -61 35 -113q30 -54 90 -93t168 -39q88 0 158 33q71 33 120 91q50 59 75 139
q25 79 25 177v570h78v-1053zM647 1206v211h90v-211h-90zM324 1206v211h90v-211h-90zM283 1571v67h495v-67h-495z" />
    <glyph glyph-name="uni01D7" unicode="&#x1d7;" horiz-adv-x="1376" 
d="M219 1462v-876q0 -50 4 -101q5 -57 21 -117q17 -63 46 -119q30 -59 81 -105q50 -46 126 -73q78 -28 181 -28q133 0 226 38q91 37 148 108t81 171t24 226v876h90v-876q0 -132 -27 -244q-27 -111 -94 -197q-66 -84 -175 -132t-273 -48q-130 0 -221 33q-95 34 -153 85
q-61 53 -95 120q-36 70 -53 136q-19 72 -23 133q-4 57 -4 114v876h90zM805 1616v211h90v-211h-90zM481 1616v211h90v-211h-90zM883 2185h104l-274 -287h-76z" />
    <glyph glyph-name="uni01D8" unicode="&#x1d8;" 
d="M948 0h-78v225h-4q-20 -58 -58 -105q-35 -44 -88 -79q-48 -32 -110 -49t-121 -17q-90 0 -156 23q-68 24 -106 59q-41 38 -64 83t-34 93q-10 46 -12 92q-2 58 -2 76v652h78v-666q0 -41 6 -99q6 -61 35 -113q30 -54 90 -93t168 -39q88 0 158 33q71 33 120 91q50 59 75 139
q25 79 25 177v570h78v-1053zM647 1206v211h90v-211h-90zM324 1206v211h90v-211h-90zM733 1796h105l-275 -287h-76z" />
    <glyph glyph-name="uni01D9" unicode="&#x1d9;" horiz-adv-x="1376" 
d="M219 1462v-876q0 -50 4 -101q5 -57 21 -117q17 -63 46 -119q30 -59 81 -105q50 -46 126 -73q78 -28 181 -28q133 0 226 38q91 37 148 108t81 171t24 226v876h90v-876q0 -132 -27 -244q-27 -111 -94 -197q-66 -84 -175 -132t-273 -48q-130 0 -221 33q-95 34 -153 85
q-61 53 -95 120q-36 70 -53 136q-19 72 -23 133q-4 57 -4 114v876h90zM805 1616v211h90v-211h-90zM481 1616v211h90v-211h-90zM647 1939l-235 287h77l199 -235l201 235h78l-238 -287h-82z" />
    <glyph glyph-name="uni01DA" unicode="&#x1da;" 
d="M948 0h-78v225h-4q-20 -58 -58 -105q-35 -44 -88 -79q-48 -32 -110 -49t-121 -17q-90 0 -156 23q-68 24 -106 59q-41 38 -64 83t-34 93q-10 46 -12 92q-2 58 -2 76v652h78v-666q0 -41 6 -99q6 -61 35 -113q30 -54 90 -93t168 -39q88 0 158 33q71 33 120 91q50 59 75 139
q25 79 25 177v570h78v-1053zM647 1206v211h90v-211h-90zM324 1206v211h90v-211h-90zM489 1530l-235 287h78l198 -236l201 236h78l-238 -287h-82z" />
    <glyph glyph-name="uni01DB" unicode="&#x1db;" horiz-adv-x="1376" 
d="M219 1462v-876q0 -50 4 -101q5 -57 21 -117q17 -63 46 -119q30 -59 81 -105q50 -46 126 -73q78 -28 181 -28q133 0 226 38q91 37 148 108t81 171t24 226v876h90v-876q0 -132 -27 -244q-27 -111 -94 -197q-66 -84 -175 -132t-273 -48q-130 0 -221 33q-95 34 -153 85
q-61 53 -95 120q-36 70 -53 136q-19 72 -23 133q-4 57 -4 114v876h90zM805 1616v211h90v-211h-90zM481 1616v211h90v-211h-90zM645 1919l-274 287h104l246 -287h-76z" />
    <glyph glyph-name="uni01DC" unicode="&#x1dc;" 
d="M948 0h-78v225h-4q-20 -58 -58 -105q-35 -44 -88 -79q-48 -32 -110 -49t-121 -17q-90 0 -156 23q-68 24 -106 59q-41 38 -64 83t-34 93q-10 46 -12 92q-2 58 -2 76v652h78v-666q0 -41 6 -99q6 -61 35 -113q30 -54 90 -93t168 -39q88 0 158 33q71 33 120 91q50 59 75 139
q25 79 25 177v570h78v-1053zM647 1206v211h90v-211h-90zM324 1206v211h90v-211h-90zM487 1530l-274 287h104l246 -287h-76z" />
    <glyph glyph-name="uni01DD" unicode="&#x1dd;" 
d="M918 537v12q0 89 -25 176q-23 82 -73 147q-48 63 -121 101q-71 37 -169 37q-157 0 -249 -83t-127 -231h-78q34 184 150 283q114 98 306 98q117 0 204 -42q88 -42 146 -114q58 -71 87 -172q28 -97 28 -214q0 -113 -29 -212q-31 -105 -89 -179q-59 -75 -150 -122t-209 -47
q-108 0 -195 41q-85 40 -143 112q-57 70 -87 164q-29 90 -29 200q0 14 1 23t1 22h850zM145 469q1 -83 28 -164q25 -76 74 -136q47 -57 115 -92q67 -34 158 -34q94 0 166 36t121 94q49 57 76 135q26 73 32 161h-770z" />
    <glyph glyph-name="uni01DE" unicode="&#x1de;" horiz-adv-x="1214" 
d="M563 1462h99l577 -1462h-96l-185 469h-700l-186 -469h-97zM930 547l-314 827h-4l-325 -827h643zM723 1616v211h90v-211h-90zM399 1616v211h90v-211h-90zM358 1939v68h496v-68h-496z" />
    <glyph glyph-name="uni01DF" unicode="&#x1df;" horiz-adv-x="1024" 
d="M813 209h-4q-18 -46 -53 -89q-33 -41 -85 -75q-48 -32 -114 -51q-67 -19 -139 -19q-167 0 -260 73q-92 72 -92 224q0 95 36 151q37 57 94 92q54 32 125 48q69 15 132 21l120 10q88 6 133 19q49 14 72 37q25 25 31 61q6 37 6 92q0 44 -16 80t-51 65q-34 28 -91 45t-135 17
q-140 0 -228 -70q-87 -69 -95 -211h-78q7 174 111 261t294 87q191 0 278 -75t87 -195v-612q0 -30 1 -45q2 -25 7 -41q6 -18 21 -30q14 -11 41 -11q19 0 57 6v-66q-32 -8 -64 -8q-47 0 -74 12t-42 33q-16 22 -20 48q-5 30 -5 61v55zM813 598q-29 -35 -87 -47
q-67 -14 -130 -19l-131 -12q-68 -7 -115 -17q-59 -12 -103 -38q-47 -27 -75 -73q-29 -47 -29 -120q0 -116 74 -173q72 -56 203 -56q133 0 211 48q79 49 119 111t52 121q11 54 11 78v197zM657 1231v211h91v-211h-91zM334 1231v211h90v-211h-90zM293 1554v68h495v-68h-495z
" />
    <glyph glyph-name="uni01E0" unicode="&#x1e0;" horiz-adv-x="1214" 
d="M563 1462h99l577 -1462h-96l-185 469h-700l-186 -469h-97zM930 547l-314 827h-4l-325 -827h643zM561 1616v211h90v-211h-90zM358 1939v68h496v-68h-496z" />
    <glyph glyph-name="uni01E1" unicode="&#x1e1;" horiz-adv-x="1024" 
d="M813 209h-4q-18 -46 -53 -89q-33 -41 -85 -75q-48 -32 -114 -51q-67 -19 -139 -19q-167 0 -260 73q-92 72 -92 224q0 95 36 151q37 57 94 92q54 32 125 48q69 15 132 21l120 10q88 6 133 19q49 14 72 37q25 25 31 61q6 37 6 92q0 44 -16 80t-51 65q-34 28 -91 45t-135 17
q-140 0 -228 -70q-87 -69 -95 -211h-78q7 174 111 261t294 87q191 0 278 -75t87 -195v-612q0 -30 1 -45q2 -25 7 -41q6 -18 21 -30q14 -11 41 -11q19 0 57 6v-66q-32 -8 -64 -8q-47 0 -74 12t-42 33q-16 22 -20 48q-5 30 -5 61v55zM813 598q-29 -35 -87 -47
q-67 -14 -130 -19l-131 -12q-68 -7 -115 -17q-59 -12 -103 -38q-47 -27 -75 -73q-29 -47 -29 -120q0 -116 74 -173q72 -56 203 -56q133 0 211 48q79 49 119 111t52 121q11 54 11 78v197zM496 1231v211h90v-211h-90zM293 1554v68h495v-68h-495z" />
    <glyph glyph-name="uni01E2" unicode="&#x1e2;" horiz-adv-x="1781" 
d="M745 1462h1004v-78h-776v-585h717v-78h-717v-643h778v-78h-868v520h-549l-271 -520h-81zM883 1384h-97l-411 -786h508v786zM985 1616v67h496v-67h-496z" />
    <glyph glyph-name="uni01E3" unicode="&#x1e3;" horiz-adv-x="1820" 
d="M911 516q-6 -93 16 -182q21 -87 69 -151q48 -65 123 -102q76 -38 177 -38q150 0 247 79q98 80 120 228h78q-28 -177 -147 -276q-118 -99 -298 -99q-160 0 -272 76t-150 230h-4q-51 -142 -162 -224q-110 -82 -266 -82q-71 0 -142 17q-69 17 -121 52q-54 37 -83 91
q-30 55 -30 133q0 97 36 155q37 59 95 94q54 33 124 47q71 15 128 16q67 8 138 9q76 2 127 15q56 15 90 49q33 33 27 111q0 130 -75 187q-77 59 -232 59q-141 0 -233 -68q-93 -68 -103 -219h-77q12 182 125 268t288 86q70 0 134 -12t115 -43q50 -30 82 -82t38 -131h4
q50 137 153 203q102 65 246 65q122 0 211 -46q91 -47 149 -123q59 -78 83 -178q24 -103 14 -214h-842zM1675 584q2 88 -23 162q-26 78 -75 136q-50 59 -121 93q-73 35 -160 35q-96 0 -166 -35t-116 -93q-48 -60 -73 -136q-26 -78 -32 -162h766zM831 592h-4q-12 -23 -50 -35
q-37 -12 -90 -18q-64 -7 -117 -11q-86 -6 -130 -10q-66 -5 -113 -18q-58 -16 -96 -43q-40 -28 -64 -75q-24 -46 -24 -114q0 -60 26 -103q26 -44 69 -70q46 -29 96 -40q52 -12 108 -12q76 0 146 29q72 30 123 78q54 51 86 116q32 66 34 146v180zM664 1231v67h495v-67h-495z
" />
    <glyph glyph-name="Gcaron" unicode="&#x1e6;" horiz-adv-x="1517" 
d="M76 723q0 157 46 296q47 142 134 247q88 106 216 169q125 62 294 62q113 0 215 -33t183 -96q79 -61 136 -154q56 -91 74 -204h-86q-51 194 -184 301q-134 108 -336 108q-148 0 -260 -57q-111 -56 -189 -154q-74 -93 -114 -222q-39 -126 -39 -263t38 -263
q38 -125 112 -216q77 -94 188 -147q112 -54 264 -54q132 0 236 43q106 44 177 121t109 187q37 108 31 245h-539v78h617v-717h-78v311h-4q-27 -78 -80 -144q-53 -65 -126 -109q-72 -44 -162 -68q-92 -25 -185 -25q-166 0 -294 60q-129 61 -216 161t-133 241q-45 138 -45 296z
M696 1597l-235 287h78l198 -235l201 235h78l-238 -287h-82z" />
    <glyph glyph-name="gcaron" unicode="&#x1e7;" horiz-adv-x="1099" 
d="M985 1053v-998q0 -92 -20 -171q-21 -82 -71 -146q-51 -65 -138 -102t-224 -37q-88 0 -157 17q-75 18 -129 55q-53 36 -89 101q-33 61 -38 154h78q6 -71 34 -119t75 -80q45 -30 104 -46q57 -15 122 -15q110 0 182 33t115 85q43 51 61 119q17 62 17 134v242h-4
q-56 -118 -150 -179t-231 -61q-117 0 -201 40q-86 41 -142 110q-57 71 -84 165t-27 205q0 108 29 199q30 94 87 165q56 69 143 112q86 42 195 42q126 0 231 -63t150 -180h4v219h78zM522 1010q-96 0 -167 -39q-68 -37 -116 -103q-46 -62 -70 -144q-24 -81 -24 -165
q0 -93 24 -175t72 -144q49 -63 118 -98q71 -36 163 -36q97 0 168 37t120 101q48 63 72 144q23 78 23 171q0 91 -23 170q-23 80 -72 144q-47 62 -120 100q-71 37 -168 37zM485 1231l-235 287h78l198 -236l201 236h78l-238 -287h-82z" />
    <glyph glyph-name="uni01E8" unicode="&#x1e8;" horiz-adv-x="1255" 
d="M129 1462h90v-841l920 841h116l-667 -608l708 -854h-112l-662 793l-303 -277v-516h-90v1462zM565 1597l-235 287h78l198 -235l201 235h78l-238 -287h-82z" />
    <glyph glyph-name="uni01E9" unicode="&#x1e9;" horiz-adv-x="948" 
d="M119 1462h78v-968l649 559h112l-460 -394l493 -659h-106l-449 600l-239 -203v-397h-78v1462zM442 1616l-235 287h78l198 -236l201 236h78l-238 -287h-82z" />
    <glyph glyph-name="uni01EA" unicode="&#x1ea;" horiz-adv-x="1517" 
d="M1454 731q0 -157 -47 -300q-46 -138 -136 -244q-86 -101 -218 -162q-129 -60 -293 -60t-294 60q-133 61 -219 162q-90 106 -136 244q-48 146 -48 300t48 300q46 138 136 244q88 103 219 163q128 59 294 59t293 -59q131 -61 218 -163q90 -106 136 -244q47 -143 47 -300z
M154 731q0 -140 41 -266t118 -218q78 -93 191 -149q111 -55 256 -55t255 55t189 149t119 218q41 126 41 266t-41 266q-40 124 -119 218t-189 149t-255 55t-256 -55q-113 -56 -191 -149q-77 -92 -118 -218t-41 -266zM844 -35q-48 -42 -84 -80q-34 -35 -51 -64
q-19 -32 -26 -54t-7 -50q0 -41 25 -63q26 -23 63 -23q36 0 65 16q26 15 54 56l47 -16q-51 -123 -176 -123q-76 0 -122 34t-46 105q0 22 8 51q7 25 31 60q22 32 63 70q39 36 107 81h49z" />
    <glyph glyph-name="uni01EB" unicode="&#x1eb;" horiz-adv-x="1099" 
d="M66 526q0 115 31 212q31 98 93 175q61 76 152 120t207 44t207 -44q89 -43 151 -120t93 -175q32 -101 32 -212t-32 -213q-31 -100 -93 -175q-63 -76 -151 -119q-91 -44 -207 -44t-207 44q-90 44 -152 119t-93 175q-31 99 -31 213zM143 526q0 -94 27 -181q27 -88 78 -155
q50 -66 127 -107q76 -40 174 -40t174 40q77 41 127 107q51 67 78 155q26 84 26 181q0 98 -26 182q-27 86 -78 154t-127 108t-174 40t-174 -40t-127 -108t-78 -154q-27 -87 -27 -182zM635 -25q-54 -48 -84 -79q-32 -34 -51 -65q-19 -32 -26 -54t-7 -49q0 -41 26 -64
q25 -22 62 -22q39 0 66 15q25 14 53 56l47 -16q-51 -123 -176 -123q-76 0 -122 34t-46 105q0 22 8 51q7 25 31 60q23 34 63 71q36 33 107 80h49z" />
    <glyph glyph-name="uni01EC" unicode="&#x1ec;" horiz-adv-x="1517" 
d="M1454 731q0 -157 -47 -300q-46 -138 -136 -244q-86 -101 -218 -162q-129 -60 -293 -60t-294 60q-133 61 -219 162q-90 106 -136 244q-48 146 -48 300t48 300q46 138 136 244q88 103 219 163q128 59 294 59t293 -59q131 -61 218 -163q90 -106 136 -244q47 -143 47 -300z
M154 731q0 -140 41 -266t118 -218q78 -93 191 -149q111 -55 256 -55t255 55t189 149t119 218q41 126 41 266t-41 266q-40 124 -119 218t-189 149t-255 55t-256 -55q-113 -56 -191 -149q-77 -92 -118 -218t-41 -266zM844 -35q-48 -42 -84 -80q-34 -35 -51 -64
q-19 -32 -26 -54t-7 -50q0 -41 25 -63q26 -23 63 -23q36 0 65 16q26 15 54 56l47 -16q-51 -123 -176 -123q-76 0 -122 34t-46 105q0 22 8 51q7 25 31 60q22 32 63 70q39 36 107 81h49zM510 1651v67h496v-67h-496z" />
    <glyph glyph-name="uni01ED" unicode="&#x1ed;" horiz-adv-x="1099" 
d="M66 526q0 115 31 212q31 98 93 175q61 76 152 120t207 44t207 -44q89 -43 151 -120t93 -175q32 -101 32 -212t-32 -213q-31 -100 -93 -175q-63 -76 -151 -119q-91 -44 -207 -44t-207 44q-90 44 -152 119t-93 175q-31 99 -31 213zM143 526q0 -94 27 -181q27 -88 78 -155
q50 -66 127 -107q76 -40 174 -40t174 40q77 41 127 107q51 67 78 155q26 84 26 181q0 98 -26 182q-27 86 -78 154t-127 108t-174 40t-174 -40t-127 -108t-78 -154q-27 -87 -27 -182zM635 -25q-54 -48 -84 -79q-32 -34 -51 -65q-19 -32 -26 -54t-7 -49q0 -41 26 -64
q25 -22 62 -22q39 0 66 15q25 14 53 56l47 -16q-51 -123 -176 -123q-76 0 -122 34t-46 105q0 22 8 51q7 25 31 60q23 34 63 71q36 33 107 80h49zM301 1231v67h496v-67h-496z" />
    <glyph glyph-name="uni01F0" unicode="&#x1f0;" horiz-adv-x="344" 
d="M211 1053v-1166q0 -50 -8 -101q-7 -47 -32 -84q-24 -36 -66 -57q-44 -22 -109 -22h-33h-16q-7 0 -17 2v68q7 -1 23 -3q8 -1 29 -1q40 0 69 9t47 33q20 27 27 63q8 43 8 100v1159h78zM127 1206l-236 287h78l199 -236l201 236h77l-237 -287h-82z" />
    <glyph glyph-name="uni01F1" unicode="&#x1f1;" horiz-adv-x="2465" 
d="M129 1462h479q198 0 327 -61t208 -164q77 -101 109 -233q32 -133 32 -271q0 -158 -40 -290q-41 -134 -124 -232q-82 -97 -212 -155q-125 -56 -304 -56h-475v1462zM612 78q101 0 206 32t188 106t136 201q52 125 52 316q0 149 -30 256t-78 179q-50 75 -110 115
q-65 43 -129 65q-61 21 -133 29q-62 7 -120 7h-375v-1306h393zM1423 1462h1026v-78l-991 -1306h1010v-78h-1104v78l987 1306h-928v78z" />
    <glyph glyph-name="uni01F2" unicode="&#x1f2;" horiz-adv-x="2238" 
d="M129 1462h479q198 0 327 -61t208 -164q77 -101 109 -233q32 -133 32 -271q0 -158 -40 -290q-41 -134 -124 -232q-82 -97 -212 -155q-125 -56 -304 -56h-475v1462zM612 78q101 0 206 32t188 106t136 201q52 125 52 316q0 149 -30 256t-78 179q-50 75 -110 115
q-65 43 -129 65q-61 21 -133 29q-62 7 -120 7h-375v-1306h393zM2220 68v-68h-836v74l707 911h-651v68h747v-74l-708 -911h741z" />
    <glyph glyph-name="uni01F3" unicode="&#x1f3;" horiz-adv-x="2011" 
d="M928 225h-4q-66 -125 -164 -187q-99 -63 -240 -63q-120 0 -205 45q-86 45 -141 121t-82 175q-26 95 -26 208q0 118 28 218q29 103 87 176q57 72 147 116q87 43 207 43q66 0 124 -17q64 -19 114 -50q52 -33 91 -82q39 -50 60 -111h4v645h78v-1462h-78v225zM537 43
q100 0 173 41q71 40 120 109q48 68 72 154q24 87 24 177q0 92 -24 179q-24 86 -71 156t-121 110q-76 41 -175 41q-106 0 -179 -40q-74 -41 -122 -108q-48 -68 -69 -155q-22 -93 -22 -183q0 -92 24 -179q24 -88 72 -155q47 -66 121 -107q73 -40 177 -40zM1993 68v-68h-836v74
l707 911h-652v68h748v-74l-709 -911h742z" />
    <glyph glyph-name="uni01F4" unicode="&#x1f4;" horiz-adv-x="1517" 
d="M76 723q0 157 46 296q47 142 134 247q88 106 216 169q125 62 294 62q113 0 215 -33t183 -96q79 -61 136 -154q56 -91 74 -204h-86q-51 194 -184 301q-134 108 -336 108q-148 0 -260 -57q-111 -56 -189 -154q-74 -93 -114 -222q-39 -126 -39 -263t38 -263
q38 -125 112 -216q77 -94 188 -147q112 -54 264 -54q132 0 236 43q106 44 177 121t109 187q37 108 31 245h-539v78h617v-717h-78v311h-4q-27 -78 -80 -144q-53 -65 -126 -109q-72 -44 -162 -68q-92 -25 -185 -25q-166 0 -294 60q-129 61 -216 161t-133 241q-45 138 -45 296z
M981 1937h104l-274 -286h-76z" />
    <glyph glyph-name="uni01F5" unicode="&#x1f5;" horiz-adv-x="1099" 
d="M985 1053v-998q0 -92 -20 -171q-21 -82 -71 -146q-51 -65 -138 -102t-224 -37q-88 0 -157 17q-75 18 -129 55q-53 36 -89 101q-33 61 -38 154h78q6 -71 34 -119t75 -80q45 -30 104 -46q57 -15 122 -15q110 0 182 33t115 85q43 51 61 119q17 62 17 134v242h-4
q-56 -118 -150 -179t-231 -61q-117 0 -201 40q-86 41 -142 110q-57 71 -84 165t-27 205q0 108 29 199q30 94 87 165q56 69 143 112q86 42 195 42q126 0 231 -63t150 -180h4v219h78zM522 1010q-96 0 -167 -39q-68 -37 -116 -103q-46 -62 -70 -144q-24 -81 -24 -165
q0 -93 24 -175t72 -144q49 -63 118 -98q71 -36 163 -36q97 0 168 37t120 101q48 63 72 144q23 78 23 171q0 91 -23 170q-23 80 -72 144q-47 62 -120 100q-71 37 -168 37zM752 1518h104l-274 -287h-76z" />
    <glyph glyph-name="uni01F8" unicode="&#x1f8;" horiz-adv-x="1388" 
d="M129 1462h113l923 -1341h4v1341h91v-1462h-107l-930 1352h-4v-1352h-90v1462zM795 1616l-275 287h105l245 -287h-75z" />
    <glyph glyph-name="uni01F9" unicode="&#x1f9;" 
d="M115 1053h78v-226h4q21 60 58 106q35 44 88 79q48 32 110 49q58 16 120 16q94 0 157 -22q66 -23 106 -60q41 -38 64 -83t34 -93q10 -46 12 -91q2 -58 2 -77v-651h-78v666q0 38 -6 98t-36 114t-90 93t-167 39q-90 0 -159 -33q-71 -34 -119 -91q-49 -58 -75 -140
q-25 -79 -25 -177v-569h-78v1053zM631 1231l-275 287h105l246 -287h-76z" />
    <glyph glyph-name="Aringacute" unicode="&#x1fa;" horiz-adv-x="1214" 
d="M711 1944h104l-194 -193h-76zM782 1554q0 -54 -26 -92t-72 -59l555 -1403h-96l-185 469h-700l-186 -469h-97l566 1407q-44 23 -66 57q-24 38 -24 90q0 71 47 118q46 46 118 46q73 0 119 -46q47 -47 47 -118zM616 1667q-48 0 -80 -32t-32 -81q0 -46 33 -79t79 -33
q49 0 81 32t32 80q0 47 -33 80t-80 33zM930 547l-314 831h-4l-325 -831h643z" />
    <glyph glyph-name="aringacute" unicode="&#x1fb;" horiz-adv-x="1024" 
d="M813 209h-4q-18 -46 -53 -89q-33 -41 -85 -75q-48 -32 -114 -51q-67 -19 -139 -19q-167 0 -260 73q-92 72 -92 224q0 95 36 151q37 57 94 92q54 32 125 48q69 15 132 21l120 10q88 6 133 19q49 14 72 37q25 25 31 61q6 37 6 92q0 44 -16 80t-51 65q-34 28 -91 45t-135 17
q-140 0 -228 -70q-87 -69 -95 -211h-78q7 174 111 261t294 87q191 0 278 -75t87 -195v-612q0 -30 1 -45q2 -25 7 -41q6 -18 21 -30q14 -11 41 -11q19 0 57 6v-66q-32 -8 -64 -8q-47 0 -74 12t-42 33q-16 22 -20 48q-5 30 -5 61v55zM813 598q-29 -35 -87 -47
q-67 -14 -130 -19l-131 -12q-68 -7 -115 -17q-59 -12 -103 -38q-47 -27 -75 -73q-29 -47 -29 -120q0 -116 74 -173q72 -56 203 -56q133 0 211 48q79 49 119 111t52 121q11 54 11 78v197zM324 1348q0 86 58 144t144 58q87 0 145 -58t58 -144q0 -87 -58 -145t-145 -58
q-86 0 -144 58t-58 145zM379 1348q0 -62 43 -105t104 -43q62 0 105 43t43 105q0 61 -43 104t-105 43q-61 0 -104 -43t-43 -104zM702 1884h105l-275 -287h-75z" />
    <glyph glyph-name="AEacute" unicode="&#x1fc;" horiz-adv-x="1781" 
d="M745 1462h1004v-78h-776v-585h717v-78h-717v-643h778v-78h-868v520h-549l-271 -520h-81zM883 1384h-97l-411 -786h508v786zM1327 1884h105l-275 -287h-76z" />
    <glyph glyph-name="aeacute" unicode="&#x1fd;" horiz-adv-x="1820" 
d="M911 516q-6 -93 16 -182q21 -87 69 -151q48 -65 123 -102q76 -38 177 -38q150 0 247 79q98 80 120 228h78q-28 -177 -147 -276q-118 -99 -298 -99q-160 0 -272 76t-150 230h-4q-51 -142 -162 -224q-110 -82 -266 -82q-71 0 -142 17q-69 17 -121 52q-54 37 -83 91
q-30 55 -30 133q0 97 36 155q37 59 95 94q54 33 124 47q71 15 128 16q67 8 138 9q76 2 127 15q56 15 90 49q33 33 27 111q0 130 -75 187q-77 59 -232 59q-141 0 -233 -68q-93 -68 -103 -219h-77q12 182 125 268t288 86q70 0 134 -12t115 -43q50 -30 82 -82t38 -131h4
q50 137 153 203q102 65 246 65q122 0 211 -46q91 -47 149 -123q59 -78 83 -178q24 -103 14 -214h-842zM1675 584q2 88 -23 162q-26 78 -75 136q-50 59 -121 93q-73 35 -160 35q-96 0 -166 -35t-116 -93q-48 -60 -73 -136q-26 -78 -32 -162h766zM831 592h-4q-12 -23 -50 -35
q-37 -12 -90 -18q-64 -7 -117 -11q-86 -6 -130 -10q-66 -5 -113 -18q-58 -16 -96 -43q-40 -28 -64 -75q-24 -46 -24 -114q0 -60 26 -103q26 -44 69 -70q46 -29 96 -40q52 -12 108 -12q76 0 146 29q72 30 123 78q54 51 86 116q32 66 34 146v180zM1141 1495h104l-274 -287h-76
z" />
    <glyph glyph-name="Oslashacute" unicode="&#x1fe;" horiz-adv-x="1517" 
d="M231 209q-81 104 -125 236q-43 130 -43 286q0 154 48 300q46 138 136 244q88 103 219 163q128 59 294 59q148 0 267 -49q121 -50 208 -137l139 151l53 -49l-143 -156q87 -107 128 -237q42 -134 42 -289q0 -157 -47 -300q-46 -138 -136 -244q-86 -101 -218 -162
q-129 -60 -293 -60q-155 0 -274 49q-116 48 -207 142l-156 -172l-53 49zM1178 1247q-78 79 -183 126q-104 46 -235 46q-145 0 -256 -55q-113 -56 -191 -149q-77 -92 -118 -218t-41 -266q0 -133 34 -248t105 -209zM338 221q79 -86 182 -132q104 -46 240 -46q145 0 255 55
t189 149t119 218q41 126 41 266q0 135 -36 252q-37 119 -103 209zM932 1884h104l-274 -287h-76z" />
    <glyph glyph-name="oslashacute" unicode="&#x1ff;" horiz-adv-x="1099" 
d="M932 877q100 -146 100 -351q0 -111 -32 -213q-31 -100 -93 -175q-63 -76 -151 -119q-91 -44 -207 -44q-110 0 -195 38q-82 36 -143 104l-111 -117l-49 47l117 125q-102 146 -102 354q0 115 31 212q31 98 93 175q61 76 152 120t207 44q109 0 195 -39q85 -39 145 -106
l112 119l50 -47zM836 877q-44 56 -120 96q-71 37 -167 37q-98 0 -174 -40t-127 -108t-78 -154q-27 -87 -27 -182q0 -80 20 -158t60 -139zM264 172q50 -59 122 -94t163 -35q98 0 174 40q77 41 127 107q51 67 78 155q26 84 26 181q0 80 -18 155q-18 74 -59 138zM721 1495h104
l-274 -287h-76z" />
    <glyph glyph-name="uni0200" unicode="&#x200;" horiz-adv-x="1214" 
d="M563 1462h99l577 -1462h-96l-185 469h-700l-186 -469h-97zM930 547l-314 827h-4l-325 -827h643zM813 1616l-274 287h104l246 -287h-76zM489 1616l-274 287h104l246 -287h-76z" />
    <glyph glyph-name="uni0201" unicode="&#x201;" horiz-adv-x="1024" 
d="M813 209h-4q-18 -46 -53 -89q-33 -41 -85 -75q-48 -32 -114 -51q-67 -19 -139 -19q-167 0 -260 73q-92 72 -92 224q0 95 36 151q37 57 94 92q54 32 125 48q69 15 132 21l120 10q88 6 133 19q49 14 72 37q25 25 31 61q6 37 6 92q0 44 -16 80t-51 65q-34 28 -91 45t-135 17
q-140 0 -228 -70q-87 -69 -95 -211h-78q7 174 111 261t294 87q191 0 278 -75t87 -195v-612q0 -30 1 -45q2 -25 7 -41q6 -18 21 -30q14 -11 41 -11q19 0 57 6v-66q-32 -8 -64 -8q-47 0 -74 12t-42 33q-16 22 -20 48q-5 30 -5 61v55zM813 598q-29 -35 -87 -47
q-67 -14 -130 -19l-131 -12q-68 -7 -115 -17q-59 -12 -103 -38q-47 -27 -75 -73q-29 -47 -29 -120q0 -116 74 -173q72 -56 203 -56q133 0 211 48q79 49 119 111t52 121q11 54 11 78v197zM725 1231l-274 287h104l246 -287h-76zM401 1231l-274 287h104l246 -287h-76z" />
    <glyph glyph-name="uni0202" unicode="&#x202;" horiz-adv-x="1214" 
d="M563 1462h99l577 -1462h-96l-185 469h-700l-186 -469h-97zM930 547l-314 827h-4l-325 -827h643zM817 1616q-15 81 -68 129q-53 49 -135 49q-28 0 -63 -8q-31 -7 -63 -28q-30 -20 -54 -54q-25 -36 -37 -88h-67q15 117 92 181q79 65 194 65q50 0 98 -20q47 -20 82 -53
q34 -33 59 -79q24 -45 30 -94h-68z" />
    <glyph glyph-name="uni0203" unicode="&#x203;" horiz-adv-x="1024" 
d="M813 209h-4q-18 -46 -53 -89q-33 -41 -85 -75q-48 -32 -114 -51q-67 -19 -139 -19q-167 0 -260 73q-92 72 -92 224q0 95 36 151q37 57 94 92q54 32 125 48q69 15 132 21l120 10q88 6 133 19q49 14 72 37q25 25 31 61q6 37 6 92q0 44 -16 80t-51 65q-34 28 -91 45t-135 17
q-140 0 -228 -70q-87 -69 -95 -211h-78q7 174 111 261t294 87q191 0 278 -75t87 -195v-612q0 -30 1 -45q2 -25 7 -41q6 -18 21 -30q14 -11 41 -11q19 0 57 6v-66q-32 -8 -64 -8q-47 0 -74 12t-42 33q-16 22 -20 48q-5 30 -5 61v55zM813 598q-29 -35 -87 -47
q-67 -14 -130 -19l-131 -12q-68 -7 -115 -17q-59 -12 -103 -38q-47 -27 -75 -73q-29 -47 -29 -120q0 -116 74 -173q72 -56 203 -56q133 0 211 48q79 49 119 111t52 121q11 54 11 78v197zM752 1229q-15 79 -69 129q-53 49 -134 49q-29 0 -64 -8q-29 -7 -62 -28
q-30 -19 -54 -54q-25 -36 -37 -88h-68q15 117 92 181q79 65 195 65q49 0 97 -20q47 -20 82 -53q37 -35 60 -79q23 -43 29 -94h-67z" />
    <glyph glyph-name="uni0204" unicode="&#x204;" horiz-adv-x="1146" 
d="M129 1462h983v-78h-893v-585h840v-78h-840v-643h903v-78h-993v1462zM860 1616l-274 287h104l246 -287h-76zM537 1616l-275 287h105l245 -287h-75z" />
    <glyph glyph-name="uni0205" unicode="&#x205;" 
d="M145 516v-12q0 -88 25 -176q24 -84 73 -148q47 -61 121 -100q71 -37 168 -37q158 0 250 83q93 84 127 230h78q-34 -183 -150 -282q-115 -99 -307 -99q-116 0 -203 42q-86 42 -146 115q-58 71 -87 172q-28 97 -28 214q0 113 29 212q30 103 89 178q60 76 149 123
q88 46 210 46q108 0 195 -41q86 -41 143 -111t87 -164q29 -90 29 -200q0 -14 -1 -23t-1 -22h-850zM917 584q-5 87 -28 162q-24 76 -73 136q-48 58 -117 93q-70 35 -156 35q-94 0 -166 -36t-121 -94q-48 -57 -76 -137q-27 -78 -33 -159h770zM733 1231l-274 287h104l246 -287
h-76zM410 1231l-275 287h105l245 -287h-75z" />
    <glyph glyph-name="uni0206" unicode="&#x206;" horiz-adv-x="1146" 
d="M129 1462h983v-78h-893v-585h840v-78h-840v-643h903v-78h-993v1462zM836 1616q-15 80 -69 129q-53 49 -134 49q-29 0 -64 -8q-29 -7 -62 -28q-30 -20 -54 -54q-25 -36 -37 -88h-68q15 117 92 181q79 65 195 65q49 0 97 -20q47 -20 82 -53q34 -33 59 -79q24 -45 30 -94
h-67z" />
    <glyph glyph-name="uni0207" unicode="&#x207;" 
d="M145 516v-12q0 -88 25 -176q24 -84 73 -148q47 -61 121 -100q71 -37 168 -37q158 0 250 83q93 84 127 230h78q-34 -183 -150 -282q-115 -99 -307 -99q-116 0 -203 42q-86 42 -146 115q-58 71 -87 172q-28 97 -28 214q0 113 29 212q30 103 89 178q60 76 149 123
q88 46 210 46q108 0 195 -41q86 -41 143 -111t87 -164q29 -90 29 -200q0 -14 -1 -23t-1 -22h-850zM917 584q-5 87 -28 162q-24 76 -73 136q-48 58 -117 93q-70 35 -156 35q-94 0 -166 -36t-121 -94q-48 -57 -76 -137q-27 -78 -33 -159h770zM741 1229q-15 81 -68 129
q-53 49 -134 49q-29 0 -64 -8q-29 -7 -62 -28q-32 -21 -55 -54q-24 -34 -36 -88h-68q15 117 92 181q79 65 195 65q49 0 97 -20q47 -20 82 -53q34 -33 59 -79q24 -45 30 -94h-68z" />
    <glyph glyph-name="uni0208" unicode="&#x208;" horiz-adv-x="348" 
d="M129 1462h90v-1462h-90v1462zM336 1616l-275 287h105l246 -287h-76zM12 1616l-274 287h104l246 -287h-76z" />
    <glyph glyph-name="uni0209" unicode="&#x209;" horiz-adv-x="344" 
d="M133 0v1053h78v-1053h-78zM315 1206l-274 287h104l246 -287h-76zM-8 1206l-275 287h105l246 -287h-76z" />
    <glyph glyph-name="uni020A" unicode="&#x20a;" horiz-adv-x="348" 
d="M129 1462h90v-1462h-90v1462zM385 1616q-15 80 -69 129q-53 49 -134 49q-28 0 -63 -8q-31 -7 -63 -28q-30 -20 -54 -54q-25 -36 -37 -88h-67q15 117 92 181q79 65 194 65q50 0 98 -20q47 -20 82 -53q34 -33 59 -79q24 -45 30 -94h-68z" />
    <glyph glyph-name="uni020B" unicode="&#x20b;" horiz-adv-x="344" 
d="M133 0v1053h78v-1053h-78zM383 1229q-15 79 -69 129q-53 49 -134 49q-28 0 -63 -8q-31 -7 -63 -28q-30 -19 -54 -54q-25 -36 -37 -88h-67q15 117 92 181q79 65 194 65q50 0 98 -20q46 -19 81 -53q37 -35 60 -79q24 -45 30 -94h-68z" />
    <glyph glyph-name="uni020C" unicode="&#x20c;" horiz-adv-x="1517" 
d="M1454 731q0 -157 -47 -300q-46 -138 -136 -244q-86 -101 -218 -162q-129 -60 -293 -60t-294 60q-133 61 -219 162q-90 106 -136 244q-48 146 -48 300t48 300q46 138 136 244q88 103 219 163q128 59 294 59t293 -59q131 -61 218 -163q90 -106 136 -244q47 -143 47 -300z
M154 731q0 -140 41 -266t118 -218q78 -93 191 -149q111 -55 256 -55t255 55t189 149t119 218q41 126 41 266t-41 266q-40 124 -119 218t-189 149t-255 55t-256 -55q-113 -56 -191 -149q-77 -92 -118 -218t-41 -266zM940 1651l-274 286h104l246 -286h-76zM616 1651l-274 286
h104l246 -286h-76z" />
    <glyph glyph-name="uni020D" unicode="&#x20d;" horiz-adv-x="1099" 
d="M66 526q0 115 31 212q31 98 93 175q61 76 152 120t207 44t207 -44q89 -43 151 -120t93 -175q32 -101 32 -212t-32 -213q-31 -100 -93 -175q-63 -76 -151 -119q-91 -44 -207 -44t-207 44q-90 44 -152 119t-93 175q-31 99 -31 213zM143 526q0 -94 27 -181q27 -88 78 -155
q50 -66 127 -107q76 -40 174 -40t174 40q77 41 127 107q51 67 78 155q26 84 26 181q0 98 -26 182q-27 86 -78 154t-127 108t-174 40t-174 -40t-127 -108t-78 -154q-27 -87 -27 -182zM700 1231l-274 287h104l246 -287h-76zM377 1231l-275 287h105l246 -287h-76z" />
    <glyph glyph-name="uni020E" unicode="&#x20e;" horiz-adv-x="1517" 
d="M1454 731q0 -157 -47 -300q-46 -138 -136 -244q-86 -101 -218 -162q-129 -60 -293 -60t-294 60q-133 61 -219 162q-90 106 -136 244q-48 146 -48 300t48 300q46 138 136 244q88 103 219 163q128 59 294 59t293 -59q131 -61 218 -163q90 -106 136 -244q47 -143 47 -300z
M154 731q0 -140 41 -266t118 -218q78 -93 191 -149q111 -55 256 -55t255 55t189 149t119 218q41 126 41 266t-41 266q-40 124 -119 218t-189 149t-255 55t-256 -55q-113 -56 -191 -149q-77 -92 -118 -218t-41 -266zM969 1616q-15 80 -69 129q-53 49 -134 49q-29 0 -64 -8
q-29 -7 -62 -28q-30 -20 -54 -54q-25 -36 -37 -88h-68q15 117 92 181q79 65 195 65q49 0 97 -20q47 -20 82 -53q37 -35 60 -79q23 -43 29 -94h-67z" />
    <glyph glyph-name="uni020F" unicode="&#x20f;" horiz-adv-x="1099" 
d="M66 526q0 115 31 212q31 98 93 175q61 76 152 120t207 44t207 -44q89 -43 151 -120t93 -175q32 -101 32 -212t-32 -213q-31 -100 -93 -175q-63 -76 -151 -119q-91 -44 -207 -44t-207 44q-90 44 -152 119t-93 175q-31 99 -31 213zM143 526q0 -94 27 -181q27 -88 78 -155
q50 -66 127 -107q76 -40 174 -40t174 40q77 41 127 107q51 67 78 155q26 84 26 181q0 98 -26 182q-27 86 -78 154t-127 108t-174 40t-174 -40t-127 -108t-78 -154q-27 -87 -27 -182zM760 1229q-15 79 -69 129q-53 49 -134 49q-28 0 -63 -8q-31 -7 -63 -28q-30 -19 -54 -54
q-25 -36 -37 -88h-68q15 116 93 181q79 65 194 65q49 0 97 -20q47 -20 82 -53q37 -35 60 -79q23 -43 29 -94h-67z" />
    <glyph glyph-name="uni0210" unicode="&#x210;" horiz-adv-x="1290" 
d="M129 1462h610q99 0 181 -19t147 -64q63 -44 99 -115q36 -72 36 -179q0 -145 -83 -248q-82 -102 -230 -126v-4q98 -12 159 -54q59 -41 87 -100q29 -60 36 -131q9 -86 9 -143v-84q0 -45 4 -77q5 -41 13 -67q9 -29 26 -51h-101q-28 50 -31 120q-4 92 -4 142q0 75 -6 147
q-6 73 -39 130q-34 58 -103 92q-72 35 -200 35h-520v-666h-90v1462zM739 743q78 0 149 20q68 19 118 60q47 38 77 105q29 64 29 151q0 81 -31 141q-29 56 -82 95q-49 36 -118 53q-65 16 -142 16h-520v-641h520zM801 1616l-275 287h105l246 -287h-76zM477 1616l-274 287h104
l246 -287h-76z" />
    <glyph glyph-name="uni0211" unicode="&#x211;" horiz-adv-x="569" 
d="M193 819h6q15 52 52 96t92 78q50 31 121 50q64 18 138 16v-78q-65 8 -140 -12q-79 -21 -151 -90q-26 -27 -50 -60q-21 -29 -36 -63q-14 -33 -22 -78q-9 -50 -10 -103v-575h-78v1053h78v-234zM502 1214l-275 287h105l246 -287h-76zM178 1214l-274 287h104l246 -287h-76z
" />
    <glyph glyph-name="uni0212" unicode="&#x212;" horiz-adv-x="1290" 
d="M129 1462h610q99 0 181 -19t147 -64q63 -44 99 -115q36 -72 36 -179q0 -145 -83 -248q-82 -102 -230 -126v-4q98 -12 159 -54q59 -41 87 -100q29 -60 36 -131q9 -86 9 -143v-84q0 -45 4 -77q5 -41 13 -67q9 -29 26 -51h-101q-28 50 -31 120q-4 92 -4 142q0 75 -6 147
q-6 73 -39 130q-34 58 -103 92q-72 35 -200 35h-520v-666h-90v1462zM739 743q78 0 149 20q68 19 118 60q47 38 77 105q29 64 29 151q0 81 -31 141q-29 56 -82 95q-49 36 -118 53q-65 16 -142 16h-520v-641h520zM799 1616q-15 80 -69 129q-53 49 -134 49q-29 0 -64 -8
q-29 -7 -62 -28q-30 -20 -54 -54q-25 -36 -37 -88h-68q15 117 92 181q79 65 195 65q49 0 97 -20q47 -20 82 -53q37 -35 60 -79q23 -43 29 -94h-67z" />
    <glyph glyph-name="uni0213" unicode="&#x213;" horiz-adv-x="569" 
d="M193 819h6q15 52 52 96t92 78q50 31 121 50q64 18 138 16v-78q-65 8 -140 -12q-79 -21 -151 -90q-26 -27 -50 -60q-21 -29 -36 -63q-14 -33 -22 -78q-9 -50 -10 -103v-575h-78v1053h78v-234zM569 1229q-15 81 -68 129q-53 49 -134 49q-29 0 -64 -8q-29 -7 -62 -28
q-32 -21 -55 -54q-24 -34 -36 -88h-68q15 117 92 181q79 65 195 65q49 0 97 -20q47 -20 82 -53q34 -33 59 -79q24 -45 30 -94h-68z" />
    <glyph glyph-name="uni0214" unicode="&#x214;" horiz-adv-x="1376" 
d="M219 1462v-876q0 -50 4 -101q5 -57 21 -117q17 -63 46 -119q30 -59 81 -105q50 -46 126 -73q78 -28 181 -28q133 0 226 38q91 37 148 108t81 171t24 226v876h90v-876q0 -132 -27 -244q-27 -111 -94 -197q-66 -84 -175 -132t-273 -48q-130 0 -221 33q-95 34 -153 85
q-61 53 -95 120q-36 70 -53 136q-19 72 -23 133q-4 57 -4 114v876h90zM887 1616l-275 287h105l246 -287h-76zM563 1616l-274 287h104l246 -287h-76z" />
    <glyph glyph-name="uni0215" unicode="&#x215;" 
d="M948 0h-78v225h-4q-20 -58 -58 -105q-35 -44 -88 -79q-48 -32 -110 -49t-121 -17q-90 0 -156 23q-68 24 -106 59q-41 38 -64 83t-34 93q-10 46 -12 92q-2 58 -2 76v652h78v-666q0 -41 6 -99q6 -61 35 -113q30 -54 90 -93t168 -39q88 0 158 33q71 33 120 91q50 59 75 139
q25 79 25 177v570h78v-1053zM719 1206l-275 287h105l246 -287h-76zM395 1206l-274 287h104l246 -287h-76z" />
    <glyph glyph-name="uni0216" unicode="&#x216;" horiz-adv-x="1376" 
d="M219 1462v-876q0 -50 4 -101q5 -57 21 -117q17 -63 46 -119q30 -59 81 -105q50 -46 126 -73q78 -28 181 -28q133 0 226 38q91 37 148 108t81 171t24 226v876h90v-876q0 -132 -27 -244q-27 -111 -94 -197q-66 -84 -175 -132t-273 -48q-130 0 -221 33q-95 34 -153 85
q-61 53 -95 120q-36 70 -53 136q-19 72 -23 133q-4 57 -4 114v876h90zM899 1616q-15 80 -69 129q-53 49 -134 49q-28 0 -63 -8q-31 -7 -63 -28q-30 -20 -54 -54q-25 -36 -37 -88h-67q15 117 92 181q79 65 194 65q50 0 98 -20q47 -20 82 -53q34 -33 59 -79q24 -45 30 -94h-68
z" />
    <glyph glyph-name="uni0217" unicode="&#x217;" 
d="M948 0h-78v225h-4q-20 -58 -58 -105q-35 -44 -88 -79q-48 -32 -110 -49t-121 -17q-90 0 -156 23q-68 24 -106 59q-41 38 -64 83t-34 93q-10 46 -12 92q-2 58 -2 76v652h78v-666q0 -41 6 -99q6 -61 35 -113q30 -54 90 -93t168 -39q88 0 158 33q71 33 120 91q50 59 75 139
q25 79 25 177v570h78v-1053zM741 1229q-15 81 -68 129q-53 49 -134 49q-29 0 -64 -8q-29 -7 -62 -28q-32 -21 -55 -54q-24 -34 -36 -88h-68q15 117 92 181q79 65 195 65q49 0 97 -20q47 -20 82 -53q34 -33 59 -79q24 -45 30 -94h-68z" />
    <glyph glyph-name="Scommaaccent" unicode="&#x218;" horiz-adv-x="1290" 
d="M1174 1044h-91q-7 183 -134 279q-126 96 -335 96q-67 0 -133 -15t-128 -49q-61 -33 -101 -98q-39 -63 -39 -149q0 -66 27 -116q28 -52 70 -82q41 -30 107 -55q64 -24 127 -39q67 -16 142 -30q9 -1 25 -4q82 -17 149 -33q53 -13 133 -48q73 -32 115 -71q43 -40 73 -106
q29 -64 29 -147q0 -109 -48 -192t-126 -129q-75 -44 -164 -68q-87 -23 -176 -23q-278 0 -449 126q-172 126 -167 392h90q-8 -153 66 -255q73 -101 190 -143t270 -42q77 0 142 17q69 18 135 54t106 104q41 70 41 159q0 52 -16 94q-15 41 -38 73q-19 27 -66 56q-39 24 -76 41
q-25 12 -97 32q-39 11 -98 24q-10 2 -25.5 5t-40 8t-42.5 9q-92 18 -149 33q-58 15 -132 45q-73 30 -116 68q-40 36 -71 101q-30 63 -30 142q0 195 147 292q146 97 344 97q243 0 396 -112q152 -111 164 -341zM600 -401v41q57 12 64 67h-52v191h117v-164q0 -124 -129 -135z
" />
    <glyph glyph-name="scommaaccent" unicode="&#x219;" horiz-adv-x="985" 
d="M74 350h78q7 -142 105 -225q97 -82 243 -82q60 0 110 10q56 11 107 33q54 23 85 69q32 47 32 111q0 99 -75 151q-73 51 -181 71q-120 22 -212 43q-105 24 -181 91q-74 65 -74 185q0 142 112 206t269 64q176 0 282 -82q107 -83 107 -254h-78q0 136 -85 202q-87 67 -226 67
q-120 0 -213 -51q-91 -50 -91 -152q0 -21 6 -51q4 -22 20 -42q5 -7 27 -34q12 -15 39 -27t43 -20q20 -10 51 -19t51 -13q25 -5 57 -13q49 -12 57 -13q187 -35 279 -97q93 -63 93 -212q0 -80 -38 -141q-38 -60 -100 -90q-63 -30 -130 -45t-143 -15q-186 0 -304 99
q-118 98 -122 276zM446 -401v41q57 12 64 67h-51v191h116v-164q0 -124 -129 -135z" />
    <glyph glyph-name="uni021A" unicode="&#x21a;" 
d="M485 1384h-514v78h1121v-78h-517v-1384h-90v1384zM467 -401v41q56 12 63 67h-51v191h117v-164q0 -124 -129 -135z" />
    <glyph glyph-name="uni021B" unicode="&#x21b;" horiz-adv-x="530" 
d="M502 1053v-68h-230v-735q0 -118 53 -153q51 -34 175 -29v-68q-65 -4 -117 2q-49 6 -97 30t-72 78q-24 53 -19 140v735h-195v68h195v327h77v-327h230zM262 -401v41q57 12 64 67h-52v191h117v-164q0 -124 -129 -135z" />
    <glyph glyph-name="uni021E" unicode="&#x21e;" horiz-adv-x="1372" 
d="M129 1462h90v-663h934v663h90v-1462h-90v721h-934v-721h-90v1462zM645 1616l-235 287h77l199 -236l201 236h78l-238 -287h-82z" />
    <glyph glyph-name="uni021F" unicode="&#x21f;" 
d="M193 1462v-635h4q21 60 58 106q35 44 88 79q48 32 110 49q58 16 120 16q94 0 157 -22q66 -23 106 -60q41 -38 64 -83t34 -93q10 -46 12 -91q2 -58 2 -77v-651h-78v666q0 38 -6 98t-36 114t-90 93t-167 39q-90 0 -159 -33q-71 -34 -119 -91q-49 -58 -75 -140
q-25 -79 -25 -177v-569h-78v1462h78zM489 1616l-235 287h78l198 -236l201 236h78l-238 -287h-82z" />
    <glyph glyph-name="uni0226" unicode="&#x226;" horiz-adv-x="1214" 
d="M563 1462h99l577 -1462h-96l-185 469h-700l-186 -469h-97zM930 547l-314 827h-4l-325 -827h643zM561 1616v211h90v-211h-90z" />
    <glyph glyph-name="uni0227" unicode="&#x227;" horiz-adv-x="1024" 
d="M813 209h-4q-18 -46 -53 -89q-33 -41 -85 -75q-48 -32 -114 -51q-67 -19 -139 -19q-167 0 -260 73q-92 72 -92 224q0 95 36 151q37 57 94 92q54 32 125 48q69 15 132 21l120 10q88 6 133 19q49 14 72 37q25 25 31 61q6 37 6 92q0 44 -16 80t-51 65q-34 28 -91 45t-135 17
q-140 0 -228 -70q-87 -69 -95 -211h-78q7 174 111 261t294 87q191 0 278 -75t87 -195v-612q0 -30 1 -45q2 -25 7 -41q6 -18 21 -30q14 -11 41 -11q19 0 57 6v-66q-32 -8 -64 -8q-47 0 -74 12t-42 33q-16 22 -20 48q-5 30 -5 61v55zM813 598q-29 -35 -87 -47
q-67 -14 -130 -19l-131 -12q-68 -7 -115 -17q-59 -12 -103 -38q-47 -27 -75 -73q-29 -47 -29 -120q0 -116 74 -173q72 -56 203 -56q133 0 211 48q79 49 119 111t52 121q11 54 11 78v197zM496 1231v211h90v-211h-90z" />
    <glyph glyph-name="uni0228" unicode="&#x228;" horiz-adv-x="1146" 
d="M129 1462h983v-78h-893v-585h840v-78h-840v-643h903v-78h-993v1462zM686 0l-98 -115l2 -2q34 15 78 15q64 0 107 -34q44 -35 44 -104q0 -80 -57 -121q-56 -40 -144 -40q-62 0 -104 14q-47 16 -84 37l23 49q39 -20 74 -32q39 -13 89 -13q56 0 91 27q34 27 34 75
q0 41 -29 64q-30 24 -77 24q-31 0 -53 -7q-32 -10 -47 -17l-33 26l114 154h70z" />
    <glyph glyph-name="uni0229" unicode="&#x229;" 
d="M145 516v-12q0 -88 25 -176q24 -84 73 -148q47 -61 121 -100q71 -37 168 -37q158 0 250 83q93 84 127 230h78q-34 -183 -150 -282q-115 -99 -307 -99q-116 0 -203 42q-86 42 -146 115q-58 71 -87 172q-28 97 -28 214q0 113 29 212q30 103 89 178q60 76 149 123
q88 46 210 46q108 0 195 -41q86 -41 143 -111t87 -164q29 -90 29 -200q0 -14 -1 -23t-1 -22h-850zM917 584q-5 87 -28 162q-24 76 -73 136q-48 58 -117 93q-70 35 -156 35q-94 0 -166 -36t-121 -94q-48 -57 -76 -137q-27 -78 -33 -159h770zM592 -25l-98 -114l2 -2
q32 14 77 14q65 0 108 -34q44 -35 44 -103q0 -82 -57 -122q-56 -40 -144 -40q-62 0 -104 14q-47 16 -84 37l22 49q32 -17 75 -31q42 -14 89 -14q56 0 90 27q35 27 35 76q0 39 -30 63q-31 25 -76 25q-32 0 -54 -7q-26 -8 -47 -18l-32 27l114 153h70z" />
    <glyph glyph-name="uni022A" unicode="&#x22a;" horiz-adv-x="1517" 
d="M1454 731q0 -157 -47 -300q-46 -138 -136 -244q-86 -101 -218 -162q-129 -60 -293 -60t-294 60q-133 61 -219 162q-90 106 -136 244q-48 146 -48 300t48 300q46 138 136 244q88 103 219 163q128 59 294 59t293 -59q131 -61 218 -163q90 -106 136 -244q47 -143 47 -300z
M154 731q0 -140 41 -266t118 -218q78 -93 191 -149q111 -55 256 -55t255 55t189 149t119 218q41 126 41 266t-41 266q-40 124 -119 218t-189 149t-255 55t-256 -55q-113 -56 -191 -149q-77 -92 -118 -218t-41 -266zM874 1651v211h91v-211h-91zM551 1651v211h90v-211h-90z
M510 1974v68h496v-68h-496z" />
    <glyph glyph-name="uni022B" unicode="&#x22b;" horiz-adv-x="1099" 
d="M66 526q0 115 31 212q31 98 93 175q61 76 152 120t207 44t207 -44q89 -43 151 -120t93 -175q32 -101 32 -212t-32 -213q-31 -100 -93 -175q-63 -76 -151 -119q-91 -44 -207 -44t-207 44q-90 44 -152 119t-93 175q-31 99 -31 213zM143 526q0 -94 27 -181q27 -88 78 -155
q50 -66 127 -107q76 -40 174 -40t174 40q77 41 127 107q51 67 78 155q26 84 26 181q0 98 -26 182q-27 86 -78 154t-127 108t-174 40t-174 -40t-127 -108t-78 -154q-27 -87 -27 -182zM666 1231v211h90v-211h-90zM342 1231v211h90v-211h-90zM301 1554v68h496v-68h-496z" />
    <glyph glyph-name="uni022C" unicode="&#x22c;" horiz-adv-x="1517" 
d="M1454 731q0 -157 -47 -300q-46 -138 -136 -244q-86 -101 -218 -162q-129 -60 -293 -60t-294 60q-133 61 -219 162q-90 106 -136 244q-48 146 -48 300t48 300q46 138 136 244q88 103 219 163q128 59 294 59t293 -59q131 -61 218 -163q90 -106 136 -244q47 -143 47 -300z
M154 731q0 -140 41 -266t118 -218q78 -93 191 -149q111 -55 256 -55t255 55t189 149t119 218q41 126 41 266t-41 266q-40 124 -119 218t-189 149t-255 55t-256 -55q-113 -56 -191 -149q-77 -92 -118 -218t-41 -266zM463 1651q1 30 14 66q12 33 32 60q19 25 48 42
q28 16 66 16q37 0 75 -18q30 -14 72 -40q46 -28 69 -40q36 -19 64 -19q43 0 66 38q21 35 26 79h60q-5 -35 -15 -68q-11 -33 -28 -58q-17 -24 -46 -42q-26 -16 -67 -16q-35 0 -70 18q-14 7 -70 40q-48 28 -71 40q-34 18 -70 18q-40 0 -64 -34q-24 -35 -32 -82h-59zM510 1948
v67h496v-67h-496z" />
    <glyph glyph-name="uni022D" unicode="&#x22d;" horiz-adv-x="1099" 
d="M66 526q0 115 31 212q31 98 93 175q61 76 152 120t207 44t207 -44q89 -43 151 -120t93 -175q32 -101 32 -212t-32 -213q-31 -100 -93 -175q-63 -76 -151 -119q-91 -44 -207 -44t-207 44q-90 44 -152 119t-93 175q-31 99 -31 213zM143 526q0 -94 27 -181q27 -88 78 -155
q50 -66 127 -107q76 -40 174 -40t174 40q77 41 127 107q51 67 78 155q26 84 26 181q0 98 -26 182q-27 86 -78 154t-127 108t-174 40t-174 -40t-127 -108t-78 -154q-27 -87 -27 -182zM254 1231q1 30 14 66q12 33 32 60q20 25 48 42q28 16 66 16t75 -18q30 -14 72 -40
q46 -28 69 -40q36 -19 64 -19q43 0 66 38q21 35 26 79h60q-4 -34 -15 -67q-11 -35 -28 -59t-46 -42q-26 -16 -67 -16q-34 0 -69 18q-23 12 -71 40t-71 40q-36 19 -69 19q-41 0 -65 -35t-32 -82h-59zM301 1528v67h496v-67h-496z" />
    <glyph glyph-name="uni022E" unicode="&#x22e;" horiz-adv-x="1517" 
d="M1454 731q0 -157 -47 -300q-46 -138 -136 -244q-86 -101 -218 -162q-129 -60 -293 -60t-294 60q-133 61 -219 162q-90 106 -136 244q-48 146 -48 300t48 300q46 138 136 244q88 103 219 163q128 59 294 59t293 -59q131 -61 218 -163q90 -106 136 -244q47 -143 47 -300z
M154 731q0 -140 41 -266t118 -218q78 -93 191 -149q111 -55 256 -55t255 55t189 149t119 218q41 126 41 266t-41 266q-40 124 -119 218t-189 149t-255 55t-256 -55q-113 -56 -191 -149q-77 -92 -118 -218t-41 -266zM713 1651v211h90v-211h-90z" />
    <glyph glyph-name="uni022F" unicode="&#x22f;" horiz-adv-x="1099" 
d="M66 526q0 115 31 212q31 98 93 175q61 76 152 120t207 44t207 -44q89 -43 151 -120t93 -175q32 -101 32 -212t-32 -213q-31 -100 -93 -175q-63 -76 -151 -119q-91 -44 -207 -44t-207 44q-90 44 -152 119t-93 175q-31 99 -31 213zM143 526q0 -94 27 -181q27 -88 78 -155
q50 -66 127 -107q76 -40 174 -40t174 40q77 41 127 107q51 67 78 155q26 84 26 181q0 98 -26 182q-27 86 -78 154t-127 108t-174 40t-174 -40t-127 -108t-78 -154q-27 -87 -27 -182zM504 1231v211h90v-211h-90z" />
    <glyph glyph-name="uni0230" unicode="&#x230;" horiz-adv-x="1517" 
d="M1454 731q0 -157 -47 -300q-46 -138 -136 -244q-86 -101 -218 -162q-129 -60 -293 -60t-294 60q-133 61 -219 162q-90 106 -136 244q-48 146 -48 300t48 300q46 138 136 244q88 103 219 163q128 59 294 59t293 -59q131 -61 218 -163q90 -106 136 -244q47 -143 47 -300z
M154 731q0 -140 41 -266t118 -218q78 -93 191 -149q111 -55 256 -55t255 55t189 149t119 218q41 126 41 266t-41 266q-40 124 -119 218t-189 149t-255 55t-256 -55q-113 -56 -191 -149q-77 -92 -118 -218t-41 -266zM713 1651v211h90v-211h-90zM510 1974v68h496v-68h-496z
" />
    <glyph glyph-name="uni0231" unicode="&#x231;" horiz-adv-x="1099" 
d="M66 526q0 115 31 212q31 98 93 175q61 76 152 120t207 44t207 -44q89 -43 151 -120t93 -175q32 -101 32 -212t-32 -213q-31 -100 -93 -175q-63 -76 -151 -119q-91 -44 -207 -44t-207 44q-90 44 -152 119t-93 175q-31 99 -31 213zM143 526q0 -94 27 -181q27 -88 78 -155
q50 -66 127 -107q76 -40 174 -40t174 40q77 41 127 107q51 67 78 155q26 84 26 181q0 98 -26 182q-27 86 -78 154t-127 108t-174 40t-174 -40t-127 -108t-78 -154q-27 -87 -27 -182zM504 1231v211h90v-211h-90zM301 1554v68h496v-68h-496z" />
    <glyph glyph-name="uni0232" unicode="&#x232;" horiz-adv-x="1175" 
d="M1118 1462h101l-588 -850v-612h-90v612l-584 850h102l529 -774zM340 1616v67h496v-67h-496z" />
    <glyph glyph-name="uni0233" unicode="&#x233;" horiz-adv-x="909" 
d="M-12 1053h92l391 -961l360 961h89l-451 -1166q-29 -69 -60 -134q-25 -54 -63 -83q-40 -32 -97 -40q-53 -7 -149 -7v68q86 0 131 13q48 14 88 54q25 25 48 83q19 48 61 165zM205 1206v68h495v-68h-495z" />
    <glyph glyph-name="uni0259" unicode="&#x259;" 
d="M918 537v12q0 89 -25 176q-23 82 -73 147q-48 63 -121 101q-71 37 -169 37q-157 0 -249 -83t-127 -231h-78q34 184 150 283q114 98 306 98q117 0 204 -42q88 -42 146 -114q58 -71 87 -172q28 -97 28 -214q0 -113 -29 -212q-31 -105 -89 -179q-59 -75 -150 -122t-209 -47
q-108 0 -195 41q-85 40 -143 112q-57 70 -87 164q-29 90 -29 200q0 14 1 23t1 22h850zM145 469q1 -83 28 -164q25 -76 74 -136q47 -57 115 -92q67 -34 158 -34q94 0 166 36t121 94q49 57 76 135q26 73 32 161h-770z" />
    <glyph glyph-name="uni02BB" unicode="&#x2bb;" horiz-adv-x="417" 
d="M293 1395q-23 -11 -36 -34q-13 -24 -21 -51q-10 -36 -11 -57q-2 -38 -2 -49h43v-211h-104v211q0 40 6 81t21 75q14 33 41 61q24 25 63 41v-67z" />
    <glyph glyph-name="afii57929" unicode="&#x2bc;" horiz-adv-x="417" 
d="M256 1251q0 -41 -6 -81q-5 -35 -22 -74q-15 -34 -41 -62q-25 -26 -62 -41v68q23 11 36 34q13 24 21 51q10 36 11 56q2 38 2 49h-43v211h104v-211z" />
    <glyph glyph-name="circumflex" unicode="&#x2c6;" horiz-adv-x="342" 
d="M129 1495h82l238 -287h-78l-201 236l-199 -236h-77z" />
    <glyph glyph-name="caron" unicode="&#x2c7;" horiz-adv-x="342" 
d="M211 1208h-82l-235 287h77l199 -235l201 235h78z" />
    <glyph glyph-name="uni02C9" unicode="&#x2c9;" horiz-adv-x="342" 
d="M420 1307h-496v67h496v-67z" />
    <glyph glyph-name="breve" unicode="&#x2d8;" horiz-adv-x="342" 
d="M381 1475h68q-12 -99 -90 -173q-78 -73 -179 -73q-120 0 -195 65q-76 65 -91 181h67q44 -179 217 -179q79 0 134 50q54 50 69 129z" />
    <glyph glyph-name="dotaccent" unicode="&#x2d9;" horiz-adv-x="342" 
d="M215 1235h-90v211h90v-211z" />
    <glyph glyph-name="ring" unicode="&#x2da;" horiz-adv-x="342" 
d="M23 1372q0 -61 43 -104t104 -43t104 43t43 104q0 62 -43 105t-104 43t-104 -43t-43 -105zM-33 1372q0 86 59 145q58 58 144 58t144 -58q59 -59 59 -145q0 -85 -59 -144t-144 -59t-144 59t-59 144z" />
    <glyph glyph-name="ogonek" unicode="&#x2db;" horiz-adv-x="342" 
d="M221 0h49q-168 -147 -168 -248q0 -38 26 -62t60 -24q40 0 67 16q25 15 54 56l47 -17q-52 -122 -176 -122q-168 0 -168 139q0 122 209 262z" />
    <glyph glyph-name="tilde" unicode="&#x2dc;" horiz-adv-x="342" 
d="M-66 1247h-59q5 75 47 129q44 56 111 56q48 4 146 -56q97 -59 136 -61q39 0 63 35q24 34 30 82h59q-8 -78 -46 -132q-38 -53 -110 -53q-45 0 -141 60q-57 35 -88 47q-23 10 -51 10q-79 0 -97 -117z" />
    <glyph glyph-name="hungarumlaut" unicode="&#x2dd;" horiz-adv-x="342" 
d="M285 1210h-76l246 287h104zM-39 1210h-76l246 287h105z" />
    <glyph glyph-name="uni02EE" unicode="&#x2ee;" horiz-adv-x="645" 
d="M514 1251q0 -41 -6 -81q-5 -35 -22 -74q-15 -34 -41 -62q-25 -26 -62 -41v68q23 11 36 34q13 24 21 51q10 36 11 56q2 38 2 49h-43v211h104v-211zM256 1251q0 -41 -6 -81q-5 -35 -22 -74q-15 -34 -41 -62q-25 -26 -62 -41v68q23 11 36 34q13 24 21 51q10 36 11 56
q2 38 2 49h-43v211h104v-211z" />
    <glyph glyph-name="gravecomb" unicode="&#x300;" horiz-adv-x="0" 
d="M-68 1208l-274 287h104l246 -287h-76z" />
    <glyph glyph-name="acutecomb" unicode="&#x301;" horiz-adv-x="0" 
d="M-96 1495h104l-274 -287h-76z" />
    <glyph glyph-name="uni0302" unicode="&#x302;" horiz-adv-x="0" 
d="M-25 1495l238 -287h-78l-201 236l-198 -236h-78l236 287h81z" />
    <glyph glyph-name="tildecomb" unicode="&#x303;" horiz-adv-x="0" 
d="M-342 1247q1 31 14 67q11 31 32 59q20 25 48 42q29 17 66 17q36 0 76 -19q25 -12 71 -40t69 -40q34 -18 64 -18q43 0 66 38q21 35 26 79h60q-5 -41 -14 -68q-10 -31 -29 -58q-17 -24 -46 -42q-28 -17 -67 -17q-33 0 -69 19q-23 12 -71 40t-71 40q-35 18 -69 18
q-41 0 -65 -35t-32 -82h-59z" />
    <glyph glyph-name="uni0304" unicode="&#x304;" horiz-adv-x="0" 
d="M-342 1307v67h496v-67h-496z" />
    <glyph glyph-name="uni0306" unicode="&#x306;" horiz-adv-x="0" 
d="M213 1475q-6 -50 -30 -95q-23 -44 -59 -78q-36 -35 -82 -54q-45 -19 -97 -19q-118 0 -195 64t-92 182h68q13 -55 36 -89q22 -32 55 -55q27 -19 62 -27t64 -8q79 0 134 50q53 48 68 129h68z" />
    <glyph glyph-name="uni0307" unicode="&#x307;" horiz-adv-x="0" 
d="M-342 1235v211h90v-211h-90z" />
    <glyph glyph-name="uni0308" unicode="&#x308;" horiz-adv-x="0" 
d="M-18 1235v211h90v-211h-90zM-342 1235v211h90v-211h-90z" />
    <glyph glyph-name="hookabovecomb" unicode="&#x309;" horiz-adv-x="0" 
d="M-657 1378q-21 0 -33 -1q-23 -2 -33 -5l-6 55q17 5 37 6q14 1 35 1q99 0 146 -40q48 -40 48 -100q0 -57 -43 -99q-44 -42 -102 -54l-2 -41h-62v76q66 5 102 35q38 32 38 79q0 37 -32 63q-31 25 -93 25z" />
    <glyph glyph-name="uni030A" unicode="&#x30a;" horiz-adv-x="0" 
d="M-342 1372q0 87 58 145t145 58q86 0 144 -58t58 -145q0 -86 -58 -144q-59 -59 -144 -59q-86 0 -145 59q-58 58 -58 144zM-287 1372q0 -61 43 -104t105 -43q61 0 104 43t43 104q0 62 -43 105t-104 43q-62 0 -105 -43t-43 -105z" />
    <glyph glyph-name="uni030B" unicode="&#x30b;" horiz-adv-x="0" 
d="M-18 1208l245 287h105l-275 -287h-75zM-342 1208l246 287h104l-274 -287h-76z" />
    <glyph glyph-name="uni030C" unicode="&#x30c;" horiz-adv-x="0" 
d="M-106 1208l-236 287h78l198 -235l201 235h78l-238 -287h-81z" />
    <glyph glyph-name="uni030F" unicode="&#x30f;" horiz-adv-x="0" 
d="M-68 1208l-274 287h104l246 -287h-76zM-391 1208l-275 287h105l246 -287h-76z" />
    <glyph glyph-name="uni0311" unicode="&#x311;" horiz-adv-x="0" 
d="M-68 1229q-15 81 -68 129q-53 49 -134 49q-29 0 -64 -8q-29 -7 -62 -28q-32 -21 -55 -54q-24 -34 -36 -88h-68q15 117 92 181q79 65 195 65q49 0 97 -20q47 -20 82 -53t59 -79q24 -45 30 -94h-68z" />
    <glyph glyph-name="uni0312" unicode="&#x312;" horiz-adv-x="0" 
d="M74 1395q-23 -11 -36 -34q-15 -28 -22 -51q-9 -31 -10 -57q-2 -38 -2 -49h43v-211h-104v211q0 40 6 81t21 75q14 33 41 61q24 25 63 41v-67z" />
    <glyph glyph-name="uni0313" unicode="&#x313;" horiz-adv-x="0" 
d="M51 1251q0 -41 -6 -81q-6 -39 -21 -74q-15 -34 -41 -62q-24 -25 -63 -41v68q23 11 36 34q14 24 21 51q10 36 11 56q2 38 2 49h-43v211h104v-211z" />
    <glyph glyph-name="uni0314" unicode="&#x314;" horiz-adv-x="0" 
d="M-59 1462h104v-211h-43q0 -11 2 -49q1 -25 10 -56q7 -23 22 -51q13 -23 36 -34v-68q-39 16 -63 41q-26 28 -41 62q-15 35 -21 74q-6 40 -6 81v211z" />
    <glyph glyph-name="uni0316" unicode="&#x316;" horiz-adv-x="0" 
d="M180 -256h-76l-274 287h104z" />
    <glyph glyph-name="uni0317" unicode="&#x317;" horiz-adv-x="0" 
d="M66 31h104l-274 -287h-76z" />
    <glyph glyph-name="uni031B" unicode="&#x31b;" horiz-adv-x="0" 
d="M-18 1348q40 -71 99 -118q60 -48 132 -48q48 0 76 19q29 20 45 56q16 37 21 90q5 58 5 115h93q0 -96 -14 -164q-13 -64 -41 -106q-27 -40 -70 -58q-44 -18 -101 -18q-89 0 -162 58q-75 60 -126 155z" />
    <glyph glyph-name="dotbelowcomb" unicode="&#x323;" horiz-adv-x="0" 
d="M-569 -143h104v-211h-104v211z" />
    <glyph glyph-name="uni0324" unicode="&#x324;" horiz-adv-x="0" 
d="M-18 -354v211h90v-211h-90zM-342 -354v211h90v-211h-90z" />
    <glyph glyph-name="uni0325" unicode="&#x325;" horiz-adv-x="0" 
d="M-342 -346q0 86 58 144q59 59 145 59q85 0 144 -59q58 -58 58 -144t-58 -144q-59 -59 -144 -59q-86 0 -145 59q-58 58 -58 144zM-287 -346q0 -62 43 -105t105 -43q61 0 104 43t43 105q0 61 -43 104t-104 43q-62 0 -105 -43t-43 -104z" />
    <glyph glyph-name="uni0326" unicode="&#x326;" horiz-adv-x="0" 
d="M-543 -143h105v-211q0 -40 -6 -81q-5 -37 -22 -75q-14 -33 -41 -61q-25 -26 -62 -41v67q22 10 35 34q15 28 22 51q9 31 10 57q2 38 2 49h-43v211z" />
    <glyph glyph-name="uni0327" unicode="&#x327;" horiz-adv-x="0" 
d="M-86 0l-98 -115l2 -2q34 15 78 15q64 0 107 -34q44 -35 44 -104q0 -80 -57 -121q-56 -40 -144 -40q-62 0 -104 14q-47 16 -84 37l23 49q39 -20 74 -32q39 -13 89 -13q56 0 90 27q35 27 35 75q0 41 -29 64q-30 24 -77 24q-31 0 -53 -7q-35 -11 -48 -17l-32 26l114 154h70z
" />
    <glyph glyph-name="uni0328" unicode="&#x328;" horiz-adv-x="0" 
d="M-84 0q-48 -42 -84 -80q-34 -35 -51 -64q-18 -31 -26 -55q-7 -22 -7 -49q0 -40 26 -63t62 -23q37 0 66 16q25 14 53 56l47 -17q-51 -122 -176 -122q-78 0 -122 33q-46 34 -46 106q0 22 8 51q6 23 31 59q23 34 63 71q39 36 107 81h49z" />
    <glyph glyph-name="uni032D" unicode="&#x32d;" horiz-adv-x="0" 
d="M-25 -143l238 -287h-78l-201 235l-198 -235h-78l236 287h81z" />
    <glyph glyph-name="uni032E" unicode="&#x32e;" horiz-adv-x="0" 
d="M213 -143q-6 -50 -30 -95q-23 -44 -59 -78q-36 -35 -82 -54q-45 -19 -97 -19q-118 0 -195 64t-92 182h68q12 -54 36 -88t55 -56q27 -19 62 -27t64 -8q79 0 134 50q53 48 68 129h68z" />
    <glyph glyph-name="uni0330" unicode="&#x330;" horiz-adv-x="0" 
d="M-342 -328q1 31 14 67q11 31 32 59q20 26 48 42q29 17 66 17q36 0 76 -19q25 -12 71 -40t69 -40q35 -18 64 -18q43 0 66 38q21 35 26 79h60q-5 -41 -14 -68q-10 -31 -29 -58q-17 -24 -46 -42q-28 -17 -67 -17q-33 0 -69 19q-23 12 -71 40t-71 40q-35 18 -69 18
q-41 0 -65 -35t-32 -82h-59z" />
    <glyph glyph-name="uni0331" unicode="&#x331;" horiz-adv-x="0" 
d="M-342 -211v68h496v-68h-496z" />
    <glyph glyph-name="uni0338" unicode="&#x338;" horiz-adv-x="0" 
d="M-53 1497h84l-652 -1532h-84z" />
    <glyph glyph-name="uni0340" unicode="&#x340;" horiz-adv-x="0" 
d="M-68 1208l-274 287h104l246 -287h-76z" />
    <glyph glyph-name="uni0341" unicode="&#x341;" horiz-adv-x="0" 
d="M-96 1495h104l-274 -287h-76z" />
    <glyph glyph-name="uni0344" unicode="&#x344;" horiz-adv-x="0" 
d="M-18 1235v211h90v-211h-90zM-342 1235v211h90v-211h-90zM-63 1884h104l-274 -287h-76z" />
    <glyph glyph-name="uni034F" unicode="&#x34f;" horiz-adv-x="1024" 
 />
    <glyph glyph-name="uni0374" unicode="&#x374;" horiz-adv-x="450" 
d="M186 1161h-67l147 334h99z" />
    <glyph glyph-name="uni0375" unicode="&#x375;" horiz-adv-x="450" 
d="M240 -68h67l-147 -333h-99z" />
    <glyph glyph-name="uni037E" unicode="&#x37e;" horiz-adv-x="569" 
d="M336 1053v-211h-105v211h105zM205 -190q24 11 36 33q13 23 21 52q9 31 10 56q2 38 2 49h-43v211h105v-211q0 -40 -6 -81q-5 -37 -22 -75q-14 -33 -41 -61q-25 -26 -62 -41v68z" />
    <glyph glyph-name="tonos" unicode="&#x384;" horiz-adv-x="471" 
d="M299 1495h102l-186 -287h-78z" />
    <glyph glyph-name="dieresistonos" unicode="&#x385;" horiz-adv-x="342" 
d="M250 1495h102l-190 -293h-78zM371 1235v211h90v-211h-90zM-37 1235v211h90v-211h-90z" />
    <glyph glyph-name="Alphatonos" unicode="&#x386;" horiz-adv-x="1234" 
d="M584 1462h98l578 -1462h-97l-184 469h-700l-187 -469h-96zM950 547l-313 827h-4l-326 -827h643zM199 1462h102l-186 -286h-78z" />
    <glyph glyph-name="anoteleia" unicode="&#x387;" horiz-adv-x="569" 
d="M336 1053v-211h-105v211h105z" />
    <glyph glyph-name="Epsilontonos" unicode="&#x388;" horiz-adv-x="1427" 
d="M178 1462h103l-187 -286h-78zM410 1462h983v-78h-893v-585h839v-78h-839v-643h903v-78h-993v1462z" />
    <glyph glyph-name="Etatonos" unicode="&#x389;" horiz-adv-x="1652" 
d="M410 1462h90v-663h934v663h90v-1462h-90v721h-934v-721h-90v1462zM178 1462h103l-187 -286h-78z" />
    <glyph glyph-name="Iotatonos" unicode="&#x38a;" horiz-adv-x="628" 
d="M178 1462h103l-187 -286h-78zM410 1462h90v-1462h-90v1462z" />
    <glyph glyph-name="Omicrontonos" unicode="&#x38c;" horiz-adv-x="1699" 
d="M178 1462h103l-187 -286h-78zM1636 731q0 -157 -47 -300q-46 -138 -136 -244q-86 -101 -218 -162q-129 -60 -293 -60t-294 60q-133 61 -219 162q-90 106 -136 244q-47 143 -47 300t47 300q46 138 136 244q88 103 219 163q128 59 294 59t293 -59q131 -61 218 -163
q90 -106 136 -244q47 -143 47 -300zM336 731q0 -140 41 -266q40 -124 119 -218t190 -149t256 -55t255 55t189 149t119 218q41 126 41 266t-41 266q-40 124 -119 218t-189 149t-255 55t-256 -55t-190 -149t-119 -218q-41 -126 -41 -266z" />
    <glyph glyph-name="Upsilontonos" unicode="&#x38e;" horiz-adv-x="1574" 
d="M178 1462h103l-187 -286h-78zM1518 1462h100l-588 -850v-612h-90v612l-584 850h103l528 -774z" />
    <glyph glyph-name="Omegatonos" unicode="&#x38f;" horiz-adv-x="1699" 
d="M178 1462h103l-187 -286h-78zM940 1497q156 0 280 -56q127 -57 215 -153t138 -224q49 -126 49 -273q0 -242 -109 -419q-108 -175 -284 -288v-6h393v-78h-518v80q210 129 317 296q109 171 109 415q0 127 -42 241q-43 116 -119 201q-78 87 -186 136q-111 50 -243 50
q-130 0 -239 -47q-106 -46 -185 -132q-77 -84 -121 -200q-43 -113 -43 -249q0 -244 106 -415q104 -167 314 -296v-80h-510v78h379v6q-177 113 -279 286t-102 421q0 152 50 282q48 126 141 223q91 96 215 148q126 53 274 53z" />
    <glyph glyph-name="iotadieresistonos" unicode="&#x390;" horiz-adv-x="325" 
d="M190 182q0 -30 1 -45q2 -23 9 -41q8 -18 21 -29q15 -12 41 -12q20 0 57 6v-65q-32 -8 -63 -8q-48 0 -75 12t-42 33q-14 20 -19 48q-5 30 -5 60v912h75v-871zM254 1495h102l-190 -293h-78zM375 1235v211h90v-211h-90zM-33 1235v211h90v-211h-90z" />
    <glyph glyph-name="Alpha" unicode="&#x391;" horiz-adv-x="1214" 
d="M563 1462h99l577 -1462h-96l-185 469h-700l-186 -469h-97zM930 547l-314 827h-4l-325 -827h643z" />
    <glyph glyph-name="Beta" unicode="&#x392;" horiz-adv-x="1296" 
d="M129 1462h586q133 0 219 -32t141 -87q54 -54 77 -121q24 -69 24 -139q0 -59 -21 -112q-22 -55 -58 -94q-40 -43 -90 -69q-56 -29 -116 -36l4 -4q19 2 68 -12q54 -15 111 -55q60 -41 105 -110q46 -70 46 -181q0 -102 -37 -177q-36 -74 -104 -128q-63 -50 -160 -78
q-94 -27 -209 -27h-586v1462zM715 799q186 0 278 83t92 218q0 80 -30 134q-29 52 -82 88q-47 32 -118 48q-62 14 -140 14h-496v-585h496zM715 78q196 0 308 83t112 249q0 94 -39 154t-100 95q-63 36 -135 49t-146 13h-496v-643h496z" />
    <glyph glyph-name="Gamma" unicode="&#x393;" horiz-adv-x="993" 
d="M129 1462h893v-78h-803v-1384h-90v1462z" />
    <glyph glyph-name="uni0394" unicode="&#x394;" horiz-adv-x="1308" 
d="M1171 72l-522 1294l-516 -1294h1038zM1282 0h-1253l587 1458h70z" />
    <glyph glyph-name="Epsilon" unicode="&#x395;" horiz-adv-x="1146" 
d="M129 1462h983v-78h-893v-585h840v-78h-840v-643h903v-78h-993v1462z" />
    <glyph glyph-name="Zeta" unicode="&#x396;" horiz-adv-x="1085" 
d="M57 1462h1026v-78l-991 -1306h1010v-78h-1104v78l987 1306h-928v78z" />
    <glyph glyph-name="Eta" unicode="&#x397;" horiz-adv-x="1372" 
d="M129 1462h90v-663h934v663h90v-1462h-90v721h-934v-721h-90v1462z" />
    <glyph glyph-name="Theta" unicode="&#x398;" horiz-adv-x="1492" 
d="M1454 731q0 -157 -47 -300q-46 -138 -136 -244q-86 -101 -218 -162q-129 -60 -293 -60t-294 60q-133 61 -219 162q-90 106 -136 244q-48 146 -48 300t48 300q46 138 136 244q88 103 219 163q128 59 294 59t293 -59q131 -61 218 -163q90 -106 136 -244q47 -143 47 -300z
M154 731q0 -140 41 -266t118 -218q78 -93 191 -149q111 -55 256 -55t255 55t189 149t119 218q41 126 41 266t-41 266q-40 124 -119 218t-189 149t-255 55t-256 -55q-113 -56 -191 -149q-77 -92 -118 -218t-41 -266zM397 778h705v-78h-705v78z" />
    <glyph glyph-name="Iota" unicode="&#x399;" horiz-adv-x="348" 
d="M129 1462h90v-1462h-90v1462z" />
    <glyph glyph-name="Kappa" unicode="&#x39a;" horiz-adv-x="1259" 
d="M129 1462h90v-841l920 841h116l-667 -608l708 -854h-112l-662 793l-303 -277v-516h-90v1462z" />
    <glyph glyph-name="Lambda" unicode="&#x39b;" horiz-adv-x="1210" 
d="M616 1374h-4l-528 -1374h-96l575 1462h99l565 -1462h-97z" />
    <glyph glyph-name="Mu" unicode="&#x39c;" horiz-adv-x="1640" 
d="M129 1462h129l571 -1362h5l565 1362h129v-1462h-90v1352h-4l-557 -1352h-91l-563 1352h-4v-1352h-90v1462z" />
    <glyph glyph-name="Nu" unicode="&#x39d;" horiz-adv-x="1372" 
d="M129 1462h113l923 -1341h4v1341h91v-1462h-107l-930 1352h-4v-1352h-90v1462z" />
    <glyph glyph-name="Xi" unicode="&#x39e;" horiz-adv-x="1130" 
d="M119 1462h903v-78h-903v78zM188 797h764v-78h-764v78zM98 78h944v-78h-944v78z" />
    <glyph glyph-name="Omicron" unicode="&#x39f;" horiz-adv-x="1517" 
d="M1454 731q0 -157 -47 -300q-46 -138 -136 -244q-86 -101 -218 -162q-129 -60 -293 -60t-294 60q-133 61 -219 162q-90 106 -136 244q-48 146 -48 300t48 300q46 138 136 244q88 103 219 163q128 59 294 59t293 -59q131 -61 218 -163q90 -106 136 -244q47 -143 47 -300z
M154 731q0 -140 41 -266t118 -218q78 -93 191 -149q111 -55 256 -55t255 55t189 149t119 218q41 126 41 266t-41 266q-40 124 -119 218t-189 149t-255 55t-256 -55q-113 -56 -191 -149q-77 -92 -118 -218t-41 -266z" />
    <glyph glyph-name="Pi" unicode="&#x3a0;" horiz-adv-x="1339" 
d="M131 1462h1090v-1462h-93v1384h-907v-1384h-90v1462z" />
    <glyph glyph-name="Rho" unicode="&#x3a1;" horiz-adv-x="1220" 
d="M129 1462h623q66 0 136 -14q75 -15 139 -58t108 -125q43 -80 43 -212q0 -192 -119 -297t-340 -105h-500v-651h-90v1462zM219 729h514q98 0 167 30t110 77t59 104t18 115q0 40 -12 97t-49 109t-103 88q-64 35 -178 35h-526v-655z" />
    <glyph glyph-name="Sigma" unicode="&#x3a3;" horiz-adv-x="1167" 
d="M98 0v78l576 684l-553 622v78h966v-78h-864l555 -620l-581 -686h925v-78h-1024z" />
    <glyph glyph-name="Tau" unicode="&#x3a4;" horiz-adv-x="1069" 
d="M-29 1384v78h1121v-78h-517v-1384h-90v1384h-514z" />
    <glyph glyph-name="Upsilon" unicode="&#x3a5;" horiz-adv-x="1175" 
d="M1118 1462h101l-588 -850v-612h-90v612l-584 850h102l529 -774z" />
    <glyph glyph-name="Phi" unicode="&#x3a6;" horiz-adv-x="1499" 
d="M795 1524v-148q141 -4 258 -48q114 -42 201 -122q86 -78 132 -190q48 -116 48 -254q0 -137 -49 -249q-48 -109 -134 -186q-87 -78 -202 -119q-117 -42 -254 -48v-160h-93v160q-143 6 -258 46q-117 41 -200 116q-84 77 -130 183q-46 107 -46 249q0 137 48 251
q47 112 132 194q83 80 201 127q114 45 253 50v148h93zM795 240q120 5 219 40q100 36 174 102q74 67 115 162q40 93 40 218q0 126 -39 220q-40 97 -112 166t-173 106q-102 38 -224 42v-1056zM702 1296q-123 -5 -221 -44q-101 -41 -172 -110q-70 -68 -111 -169
q-40 -98 -40 -219q0 -126 40 -219q41 -96 112 -158q72 -63 172 -98q99 -35 220 -39v1056z" />
    <glyph glyph-name="Chi" unicode="&#x3a7;" horiz-adv-x="1110" 
d="M2 1462h104l463 -643l473 643h103l-516 -710l545 -752h-109l-496 684l-497 -684h-107l549 752z" />
    <glyph glyph-name="Psi" unicode="&#x3a8;" horiz-adv-x="1566" 
d="M825 410q129 0 227 26q103 27 171 85q70 59 107 153q38 96 38 231v557h90v-555q0 -293 -154 -432t-479 -145v-330h-90v330q-328 1 -479 143q-150 141 -150 434v555h91v-557q0 -138 34 -231q34 -94 104 -153q68 -58 169 -85q97 -26 231 -26v1052h90v-1052z" />
    <glyph glyph-name="uni03A9" unicode="&#x3a9;" horiz-adv-x="1497" 
d="M1374 0h-471v340q187 30 293 172q104 140 104 338q0 236 -161 396q-163 161 -398 161q-233 0 -394 -162q-161 -163 -161 -395q0 -194 107 -340t293 -170v-340h-475v68h409v215q-194 52 -301 207q-106 154 -106 362q0 264 183 444q184 181 447 181q264 0 448 -181
q183 -180 183 -442q0 -209 -103 -360t-302 -211v-215h405v-68z" />
    <glyph glyph-name="Iotadieresis" unicode="&#x3aa;" horiz-adv-x="348" 
d="M291 1624v211h90v-211h-90zM-33 1624v211h90v-211h-90zM129 1462h90v-1462h-90v1462z" />
    <glyph glyph-name="Upsilondieresis" unicode="&#x3ab;" horiz-adv-x="1175" 
d="M707 1624v211h90v-211h-90zM383 1624v211h90v-211h-90zM1118 1462h101l-588 -850v-612h-90v612l-584 850h102l529 -774z" />
    <glyph glyph-name="alphatonos" unicode="&#x3ac;" horiz-adv-x="1110" 
d="M899 225h-4q-33 -67 -78 -114t-95 -77q-46 -28 -102 -44q-52 -15 -100 -15q-119 0 -209 44q-86 42 -144 120q-56 75 -83 176q-27 100 -27 211q0 113 29 215q28 100 87 175t143 118q85 43 200 43q53 0 106 -14q54 -14 108 -45q52 -29 96 -80q46 -53 69 -121h4v236h78v-871
q0 -30 1 -45q2 -25 7 -41q6 -17 21 -29t41 -12q19 0 57 6v-65q-32 -8 -64 -8q-47 0 -74 12t-42 33q-16 22 -20 48q-5 30 -5 60v84zM135 526q0 -82 22 -172q21 -86 67 -154q47 -70 120 -113q74 -44 176 -44q96 0 167 42q72 43 118 111q48 72 70 154q22 84 22 174
q0 113 -30 203t-81 153q-49 60 -120 96q-68 34 -150 34q-104 0 -175 -43q-72 -44 -119 -113q-44 -65 -66 -156q-21 -86 -21 -172zM635 1495h102l-186 -287h-78z" />
    <glyph glyph-name="epsilontonos" unicode="&#x3ad;" horiz-adv-x="948" 
d="M311 543q-57 7 -100 34q-42 27 -67 60q-26 36 -38 75q-12 40 -12 79q0 75 32 130t84 89t122 51q67 16 147 16q144 0 240 -57q97 -58 127 -193h-76q-23 87 -89 135t-202 48q-56 0 -114 -11q-57 -11 -99 -34q-41 -23 -68 -67q-26 -43 -26 -105q0 -56 19 -95q20 -41 54 -68
q35 -27 78 -42t95 -15h141v-67h-137q-129 0 -207 -57t-78 -166q0 -63 26 -109q25 -45 69 -75q42 -29 104 -43q58 -13 129 -13q66 0 120 10q55 10 102 36q45 25 81 73q35 47 53 121h76q-38 -164 -151 -236q-114 -72 -281 -72q-78 0 -154 17q-74 17 -130 52t-89 94
q-33 58 -33 145q0 98 65 169t187 87v4zM311 539v4v-4zM592 1495h102l-186 -287h-78z" />
    <glyph glyph-name="etatonos" unicode="&#x3ae;" 
d="M115 1053h78v-226h4q21 60 58 106q35 44 88 79q48 32 110 49q58 16 120 16q94 0 157 -22q66 -23 106 -60q41 -38 64 -83t34 -93q10 -46 12 -91q2 -58 2 -77v-1028h-78v1043q0 38 -6 98t-36 114t-90 93t-167 39q-90 0 -159 -33q-71 -34 -119 -91q-49 -58 -75 -140
q-25 -79 -25 -177v-569h-78v1053zM651 1495h103l-187 -287h-78z" />
    <glyph glyph-name="iotatonos" unicode="&#x3af;" horiz-adv-x="325" 
d="M274 1495h103l-187 -287h-77zM190 182q0 -30 1 -45q2 -23 9 -41q8 -18 21 -29q15 -12 41 -12q20 0 57 6v-65q-32 -8 -63 -8q-48 0 -75 12t-42 33q-14 20 -19 48q-5 30 -5 60v912h75v-871z" />
    <glyph glyph-name="upsilondieresistonos" unicode="&#x3b0;" horiz-adv-x="1032" 
d="M211 1053v-672q-2 -107 19 -171q21 -65 64 -104q40 -36 99 -50q55 -13 127 -13q174 0 272 129q97 128 97 391q0 118 -25 245q-24 120 -80 245h78q56 -115 80 -243q25 -133 25 -243q0 -135 -27 -244q-28 -112 -82 -187q-56 -78 -139 -119q-84 -42 -199 -42q-196 0 -291 88
q-96 89 -96 291v699h78zM541 1495h102l-190 -293h-78zM661 1235v211h91v-211h-91zM254 1235v211h90v-211h-90z" />
    <glyph glyph-name="alpha" unicode="&#x3b1;" horiz-adv-x="1110" 
d="M899 225h-4q-33 -67 -78 -114t-95 -77q-46 -28 -102 -44q-52 -15 -100 -15q-119 0 -209 44q-86 42 -144 120q-56 75 -83 176q-27 100 -27 211q0 113 29 215q28 100 87 175t143 118q85 43 200 43q53 0 106 -14q54 -14 108 -45q52 -29 96 -80q46 -53 69 -121h4v236h78v-871
q0 -30 1 -45q2 -25 7 -41q6 -17 21 -29t41 -12q19 0 57 6v-65q-32 -8 -64 -8q-47 0 -74 12t-42 33q-16 22 -20 48q-5 30 -5 60v84zM135 526q0 -82 22 -172q21 -86 67 -154q47 -70 120 -113q74 -44 176 -44q96 0 167 42q72 43 118 111q48 72 70 154q22 84 22 174
q0 113 -30 203t-81 153q-49 60 -120 96q-68 34 -150 34q-104 0 -175 -43q-72 -44 -119 -113q-44 -65 -66 -156q-21 -86 -21 -172z" />
    <glyph glyph-name="beta" unicode="&#x3b2;" horiz-adv-x="1095" 
d="M133 1036q0 219 101 330q102 113 298 113q98 0 176 -28q72 -26 121 -75q48 -48 71 -109q24 -63 24 -130q0 -64 -17 -120t-43 -95q-29 -43 -59 -68q-34 -28 -66 -35v-6q78 -11 130 -44q55 -35 90 -86q37 -54 53 -118t16 -141q0 -125 -37 -209q-39 -89 -95 -139
q-60 -54 -133 -77q-75 -24 -149 -24q-159 0 -260 64q-98 63 -139 180h-4v-596h-78v1413zM211 528q0 -148 34 -241q36 -97 90 -149q57 -54 129 -75q69 -20 150 -20q61 0 117 14q58 15 109 56t80 115q30 75 30 196q0 96 -24 162q-22 62 -69 105q-43 40 -107 57q-61 16 -144 16
h-100v67h65q123 0 199 78q76 77 76 228q0 135 -88 204q-90 70 -226 70q-74 0 -131 -20q-58 -20 -101 -68q-42 -46 -66 -122q-23 -72 -23 -183v-490z" />
    <glyph glyph-name="gamma" unicode="&#x3b3;" horiz-adv-x="792" 
d="M797 1053q-28 -182 -74 -348q-47 -171 -97 -301q-54 -142 -109 -252q-73 -146 -107 -207v-322h-78v223q0 120 -31 287q-29 156 -80 328q-53 177 -108 321q-62 160 -117 271h90q40 -78 90 -204q50 -128 93 -265q42 -135 78 -274q33 -127 44 -228h6q42 79 89 189
q45 104 88 232q45 133 77 263q39 156 60 287h86z" />
    <glyph glyph-name="delta" unicode="&#x3b4;" horiz-adv-x="1054" 
d="M61 508q0 186 110 317q111 133 329 185q-78 33 -127 64q-50 31 -82 63q-30 30 -44 61t-14 62t17 71t55 72t103 54q66 22 157 22q66 0 144 -12q80 -12 141 -40v-67q-70 28 -149 40q-70 11 -136 11q-44 0 -92 -8q-40 -7 -81 -27q-35 -17 -58 -47q-23 -29 -23 -69
q0 -25 13 -51q11 -22 45 -50q35 -28 89 -57q100 -53 142 -74q71 -33 144 -83q72 -49 126 -112q54 -62 89 -147q34 -81 34 -182q0 -109 -26 -200q-28 -97 -82 -169q-55 -73 -142 -117q-85 -43 -204 -43q-111 0 -201 38q-87 37 -150 109q-61 70 -94 168t-33 218zM139 508
q0 -115 32 -205q30 -85 85 -146q52 -58 126 -87q73 -29 157 -29q90 0 162 35q71 35 119 96q48 62 72 146q23 82 23 186q0 150 -85 265q-87 117 -271 208q-199 -44 -309 -157q-111 -114 -111 -312z" />
    <glyph glyph-name="epsilon" unicode="&#x3b5;" horiz-adv-x="948" 
d="M311 543q-57 7 -100 34q-42 27 -67 60q-26 36 -38 75q-12 40 -12 79q0 75 32 130t84 89t122 51q67 16 147 16q144 0 240 -57q97 -58 127 -193h-76q-23 87 -89 135t-202 48q-56 0 -114 -11q-57 -11 -99 -34q-41 -23 -68 -67q-26 -43 -26 -105q0 -56 19 -95q20 -41 54 -68
q35 -27 78 -42t95 -15h141v-67h-137q-129 0 -207 -57t-78 -166q0 -63 26 -109q25 -45 69 -75q42 -29 104 -43q58 -13 129 -13q66 0 120 10q55 10 102 36q45 25 81 73q35 47 53 121h76q-38 -164 -151 -236q-114 -72 -281 -72q-78 0 -154 17q-74 17 -130 52t-89 94
q-33 58 -33 145q0 98 65 169t187 87v4zM311 539v4v-4z" />
    <glyph glyph-name="zeta" unicode="&#x3b6;" horiz-adv-x="837" 
d="M715 -276q12 61 12 112q0 74 -30 119t-124 45h-63q-216 0 -330 142t-114 395q0 140 49 269q50 133 133 242q85 112 198 200q116 90 246 147h-530v67h655v-69q-172 -76 -299 -172q-126 -95 -211 -207t-125 -233q-41 -123 -41 -244q7 -218 100 -344q92 -125 285 -125h49
q120 0 174 -54q52 -52 52 -168q0 -66 -15 -122h-71z" />
    <glyph glyph-name="eta" unicode="&#x3b7;" 
d="M115 1053h78v-226h4q21 60 58 106q35 44 88 79q48 32 110 49q58 16 120 16q94 0 157 -22q66 -23 106 -60q41 -38 64 -83t34 -93q10 -46 12 -91q2 -58 2 -77v-1028h-78v1043q0 38 -6 98t-36 114t-90 93t-167 39q-90 0 -159 -33q-71 -34 -119 -91q-49 -58 -75 -140
q-25 -79 -25 -177v-569h-78v1053z" />
    <glyph glyph-name="theta" unicode="&#x3b8;" horiz-adv-x="987" 
d="M494 1479q125 0 209 -52t133 -148q47 -94 69 -238q21 -141 21 -316q0 -176 -21 -314q-21 -140 -70 -236q-48 -95 -134 -148q-84 -52 -207 -52q-127 0 -210 53t-132 149t-70 237q-21 139 -21 311q0 171 21 311q21 137 71 238q49 97 133 151q85 54 208 54zM848 776
q0 324 -82 479q-82 156 -272 156q-191 0 -271 -160q-81 -161 -82 -475h707zM494 43q190 0 272 159q82 158 82 507h-709q1 -173 23 -302q22 -130 63 -207q44 -81 110 -119q67 -38 159 -38z" />
    <glyph glyph-name="iota" unicode="&#x3b9;" horiz-adv-x="325" 
d="M190 182q0 -30 1 -45q2 -23 9 -41q8 -18 21 -29q15 -12 41 -12q20 0 57 6v-65q-32 -8 -63 -8q-48 0 -75 12t-42 33q-14 20 -19 48q-5 30 -5 60v912h75v-871z" />
    <glyph glyph-name="kappa" unicode="&#x3ba;" horiz-adv-x="954" 
d="M119 1053h78v-576l649 576h112l-460 -410l493 -643h-106l-449 584l-239 -203v-381h-78v1053z" />
    <glyph glyph-name="lambda" unicode="&#x3bb;" horiz-adv-x="983" 
d="M834 174q22 -75 40 -96q22 -25 68 -25q14 0 20 1q12 2 19 3v-63q-8 -2 -29 -5q-7 -1 -20 -1q-60 0 -97 27q-39 28 -69 124l-254 807l-387 -946h-84l438 1030q-25 67 -41 120q-15 51 -35 103q-29 74 -65 114q-38 42 -102 42q-14 0 -50 -2q-26 -1 -49 -12v67q51 17 99 17
q100 0 158 -66q59 -67 110 -213z" />
    <glyph glyph-name="uni03BC" unicode="&#x3bc;" 
d="M948 1053v-1053h-78v225h-4q-41 -117 -145 -183q-107 -67 -232 -67q-203 0 -292 115h-4v-467h-78v1430h78v-666q0 -344 299 -344q175 0 277 122q101 120 101 318v570h78z" />
    <glyph glyph-name="nu" unicode="&#x3bd;" horiz-adv-x="884" 
d="M463 90q117 227 205 473q87 242 133 490h88q-49 -263 -155 -535q-104 -268 -236 -518h-84q-70 176 -210 526q-129 322 -208 527h90l373 -963h4z" />
    <glyph glyph-name="xi" unicode="&#x3be;" horiz-adv-x="825" 
d="M516 0q-108 0 -192 30q-87 31 -142 82q-57 52 -87 126q-29 71 -29 161q0 147 69 235q69 89 215 116v6q-62 18 -108 53t-73 79q-28 45 -41 95q-13 49 -13 102q0 96 31 168q32 74 89 124q59 52 134 76q80 26 170 26q60 0 135 -13q73 -13 131 -34v-70q-128 49 -266 49
q-166 0 -257 -88q-92 -89 -92 -238q0 -81 30 -138q29 -55 82 -90q52 -34 124 -49t156 -15h151v-68h-160q-103 0 -180 -16q-78 -16 -136 -56q-56 -38 -86 -101t-30 -155q0 -159 105 -244q104 -85 317 -85h12q120 0 174 -54q52 -52 52 -168q0 -66 -15 -122h-71q12 61 12 112
q0 74 -30 119t-124 45h-57z" />
    <glyph glyph-name="omicron" unicode="&#x3bf;" horiz-adv-x="1097" 
d="M66 526q0 115 31 212q31 98 93 175q61 76 152 120t207 44t207 -44q89 -43 151 -120t93 -175q32 -101 32 -212t-32 -213q-31 -100 -93 -175q-63 -76 -151 -119q-91 -44 -207 -44t-207 44q-90 44 -152 119t-93 175q-31 99 -31 213zM143 526q0 -94 27 -181q27 -88 78 -155
q50 -66 127 -107q76 -40 174 -40t174 40q77 41 127 107q51 67 78 155q26 84 26 181q0 98 -26 182q-27 86 -78 154t-127 108t-174 40t-174 -40t-127 -108t-78 -154q-27 -87 -27 -182z" />
    <glyph glyph-name="pi" unicode="&#x3c0;" horiz-adv-x="1138" 
d="M1075 84v-64q-66 -30 -104 -30q-41 0 -67 13q-28 14 -41 30t-19 50q-5 31 -7 54q-1 14 -1 64v684h-586v-885h-74v885h-143v65h1032v-65h-156v-690v-48q0 -90 78 -90q47 0 88 27z" />
    <glyph glyph-name="rho" unicode="&#x3c1;" horiz-adv-x="1107" 
d="M115 526q0 126 29 225q30 103 88 174q57 70 142 112q81 40 191 40q116 0 206 -44t148 -120t88 -176q29 -97 29 -211q0 -120 -28 -220t-86 -175q-57 -74 -144 -115t-198 -41q-36 0 -92 8q-54 8 -105 31q-52 24 -103 73q-50 49 -83 132h-4v-596h-78v903zM958 526
q0 104 -25 191q-24 84 -76 153q-48 64 -124 103q-73 37 -168 37q-88 0 -158 -35t-116 -99q-48 -67 -72 -154q-24 -88 -24 -196q0 -231 96 -357t289 -126q82 0 151 33q73 35 120 95q51 65 79 153t28 202z" />
    <glyph glyph-name="sigma1" unicode="&#x3c2;" horiz-adv-x="927" 
d="M606 68q122 0 174 -54q51 -52 51 -168q0 -70 -14 -122h-72q13 67 13 112q0 74 -30 119t-124 45h-74q-110 0 -194 37q-87 38 -146 106q-58 67 -92 169q-32 96 -32 225q0 116 28 213q29 100 88 171q60 72 148 114t209 42q128 0 233 -57q104 -57 150 -195h-76
q-46 104 -127 145q-79 40 -180 40q-99 0 -175 -35q-74 -34 -124 -98q-50 -63 -74 -150q-25 -89 -25 -190q0 -232 110 -351q109 -118 290 -118h65z" />
    <glyph glyph-name="sigma" unicode="&#x3c3;" horiz-adv-x="1112" 
d="M66 528q0 122 36 216q37 97 105 166q67 68 165 106q96 37 218 37h506v-70h-295q118 -99 165 -221q48 -123 48 -234q0 -100 -29 -201q-29 -99 -87 -177t-147 -126q-90 -49 -208 -49t-208 44t-150 119t-90 175q-29 97 -29 215zM143 528q0 -124 33 -215q33 -92 88 -151
q54 -58 128 -89q72 -30 151 -30q93 0 166 39q76 40 125 104t77 155q27 89 27 187q0 78 -18 147q-16 61 -50 126q-29 56 -69 103q-39 46 -78 81h-125q-93 0 -179 -28q-82 -27 -145 -85q-62 -57 -96 -142q-35 -87 -35 -202z" />
    <glyph glyph-name="tau" unicode="&#x3c4;" horiz-adv-x="858" 
d="M461 133q0 -47 22 -62q24 -16 56 -16q10 0 42 2q23 1 40 6v-67q-17 -4 -50 -6q-40 -2 -51 -2q-137 0 -137 143v854h-367v68h826v-68h-381v-852z" />
    <glyph glyph-name="upsilon" unicode="&#x3c5;" horiz-adv-x="1032" 
d="M211 1053v-672q-2 -107 19 -171q21 -65 64 -104q40 -36 99 -50q55 -13 127 -13q174 0 272 129q97 128 97 391q0 118 -25 245q-24 120 -80 245h78q56 -115 80 -243q25 -133 25 -243q0 -135 -27 -244q-28 -112 -82 -187q-56 -78 -139 -119q-84 -42 -199 -42q-196 0 -291 88
q-96 89 -96 291v699h78z" />
    <glyph glyph-name="phi" unicode="&#x3c6;" horiz-adv-x="1425" 
d="M748 1077q129 -1 243 -38t195 -104q81 -68 128 -168q46 -98 46 -228q0 -146 -49 -250q-50 -106 -133 -174q-85 -70 -194 -104q-110 -35 -232 -36v-352h-82v352q-126 1 -237 35q-108 33 -191 102q-83 70 -129 173q-47 106 -47 250q0 129 45 229q44 99 125 169
q77 67 190 105q111 38 244 39v244h78v-244zM748 45q100 0 200 28q95 27 170 88q74 61 119 153q45 93 45 225q0 113 -42 202q-42 88 -114 148t-169 90q-101 31 -209 31v-965zM670 1010q-111 0 -207 -30q-97 -30 -167 -90q-71 -60 -112 -150t-41 -205q0 -128 44 -224
q41 -90 117 -153q70 -59 168 -88q95 -29 198 -27v967z" />
    <glyph glyph-name="chi" unicode="&#x3c7;" horiz-adv-x="880" 
d="M905 -377h-98l-373 688l-362 -688h-97l414 764l-379 666h99l325 -590l338 590h98l-387 -662z" />
    <glyph glyph-name="psi" unicode="&#x3c8;" horiz-adv-x="1300" 
d="M700 45q96 1 181 35q84 33 145 97t96 161t35 225q0 123 -24 245q-24 120 -80 245h75q29 -57 50 -119q18 -55 32 -127q14 -73 19 -125q6 -62 6 -115q0 -143 -40 -251q-40 -109 -111 -184q-70 -75 -169 -115q-99 -41 -215 -42v-352h-77v352q-129 7 -226 50q-91 40 -151 109
q-59 68 -86 160t-27 200v559h76v-551q0 -206 99 -324q98 -118 315 -133v1274h77v-1274z" />
    <glyph glyph-name="omega" unicode="&#x3c9;" horiz-adv-x="1404" 
d="M991 43q69 0 121 35q51 34 85 94q33 58 50 141q17 85 17 176q0 126 -36 273t-126 291h78q91 -141 126 -281q33 -133 33 -283q0 -108 -21 -201t-65 -163q-45 -71 -108 -110q-65 -40 -154 -40q-107 0 -183 62q-75 61 -103 178h-7q-28 -116 -102 -178t-182 -62
q-89 0 -154 40q-63 39 -108 110q-44 70 -65 163t-21 201q0 150 33 283q35 140 126 281h78q-90 -144 -126 -291t-36 -273q0 -91 17 -176q17 -83 50 -141q34 -60 85 -94q52 -35 121 -35q106 0 178 78t72 231v443h75v-443q0 -76 21 -134q21 -59 55 -97q35 -39 80 -59
q44 -19 96 -19z" />
    <glyph glyph-name="iotadieresis" unicode="&#x3ca;" horiz-adv-x="325" 
d="M190 182q0 -30 1 -45q2 -23 9 -41q8 -18 21 -29q15 -12 41 -12q20 0 57 6v-65q-32 -8 -63 -8q-48 0 -75 12t-42 33q-14 20 -19 48q-5 30 -5 60v912h75v-871zM274 1235v211h91v-211h-91zM-49 1235v211h90v-211h-90z" />
    <glyph glyph-name="upsilondieresis" unicode="&#x3cb;" horiz-adv-x="1032" 
d="M211 1053v-672q-2 -107 19 -171q21 -65 64 -104q40 -36 99 -50q55 -13 127 -13q174 0 272 129q97 128 97 391q0 118 -25 245q-24 120 -80 245h78q56 -115 80 -243q25 -133 25 -243q0 -135 -27 -244q-28 -112 -82 -187q-56 -78 -139 -119q-84 -42 -199 -42q-196 0 -291 88
q-96 89 -96 291v699h78zM623 1235v211h90v-211h-90zM299 1235v211h90v-211h-90z" />
    <glyph glyph-name="omicrontonos" unicode="&#x3cc;" horiz-adv-x="1097" 
d="M659 1495h103l-187 -287h-77zM66 526q0 115 31 212q31 98 93 175q61 76 152 120t207 44t207 -44q89 -43 151 -120t93 -175q32 -101 32 -212t-32 -213q-31 -100 -93 -175q-63 -76 -151 -119q-91 -44 -207 -44t-207 44q-90 44 -152 119t-93 175q-31 99 -31 213zM143 526
q0 -94 27 -181q27 -88 78 -155q50 -66 127 -107q76 -40 174 -40t174 40q77 41 127 107q51 67 78 155q26 84 26 181q0 98 -26 182q-27 86 -78 154t-127 108t-174 40t-174 -40t-127 -108t-78 -154q-27 -87 -27 -182z" />
    <glyph glyph-name="upsilontonos" unicode="&#x3cd;" horiz-adv-x="1032" 
d="M211 1053v-672q-2 -107 19 -171q21 -65 64 -104q40 -36 99 -50q55 -13 127 -13q174 0 272 129q97 128 97 391q0 118 -25 245q-24 120 -80 245h78q56 -115 80 -243q25 -133 25 -243q0 -135 -27 -244q-28 -112 -82 -187q-56 -78 -139 -119q-84 -42 -199 -42q-196 0 -291 88
q-96 89 -96 291v699h78zM608 1495h103l-187 -287h-78z" />
    <glyph glyph-name="omegatonos" unicode="&#x3ce;" horiz-adv-x="1404" 
d="M991 43q69 0 121 35q51 34 85 94q33 58 50 141q17 85 17 176q0 126 -36 273t-126 291h78q91 -141 126 -281q33 -133 33 -283q0 -108 -21 -201t-65 -163q-45 -71 -108 -110q-65 -40 -154 -40q-107 0 -183 62q-75 61 -103 178h-7q-28 -116 -102 -178t-182 -62
q-89 0 -154 40q-63 39 -108 110q-44 70 -65 163t-21 201q0 150 33 283q35 140 126 281h78q-90 -144 -126 -291t-36 -273q0 -91 17 -176q17 -83 50 -141q34 -60 85 -94q52 -35 121 -35q106 0 178 78t72 231v443h75v-443q0 -76 21 -134q21 -59 55 -97q35 -39 80 -59
q44 -19 96 -19zM813 1495h102l-186 -287h-78z" />
    <glyph glyph-name="uni0400" unicode="&#x400;" horiz-adv-x="1146" 
d="M129 1462h983v-78h-893v-585h840v-78h-840v-643h903v-78h-993v1462zM610 1597l-274 287h104l246 -287h-76z" />
    <glyph glyph-name="afii10023" unicode="&#x401;" horiz-adv-x="1146" 
d="M1102 1458v-78h-895v-583h840v-78h-840v-639h903v-80h-991v1458h983zM817 1817v-211h-88v211h88zM459 1817v-211h-86v211h86z" />
    <glyph glyph-name="afii10051" unicode="&#x402;" horiz-adv-x="1441" 
d="M532 295v-295h-88v1380h-452v78h1116v-78h-576v-802q102 278 392 278q118 0 205 -43q91 -45 141 -114q52 -72 77 -152q25 -81 25 -170q0 -232 -143 -414t-361 -215v78q188 39 306 198q118 158 118 353q0 165 -96 286t-291 121q-172 0 -272 -130q-101 -131 -101 -359z" />
    <glyph glyph-name="afii10052" unicode="&#x403;" horiz-adv-x="1024" 
d="M760 1862l-271 -287h-73l239 287h105zM1032 1380h-807v-1380h-88v1458h895v-78z" />
    <glyph glyph-name="afii10053" unicode="&#x404;" horiz-adv-x="1441" 
d="M1362 565q-21 -265 -195 -432q-173 -166 -436 -166q-301 0 -484 208q-184 210 -184 550q0 344 188 556t490 212q223 0 398 -130q176 -131 200 -343h-86q-39 183 -178 288q-140 105 -338 105q-245 0 -404 -168q-158 -167 -179 -444h768v-78h-770q2 -305 161 -492
q159 -186 420 -186q231 0 375 145q143 144 170 375h84z" />
    <glyph glyph-name="afii10054" unicode="&#x405;" horiz-adv-x="1290" 
d="M1169 1042h-88q-23 369 -458 369q-193 0 -301 -81q-109 -82 -109 -224q0 -63 23 -111q24 -50 59 -78q39 -31 96 -54q61 -25 122 -39q72 -17 146 -33q31 -5 68 -15q24 -6 56.5 -13.5t42.5 -9.5q30 -7 93 -27t93 -36q29 -16 74 -47q47 -32 66 -64q22 -36 38 -84t16 -110
q0 -194 -145 -305t-402 -111q-267 0 -422 129t-155 385h84q5 -221 134 -330q131 -110 364 -110q213 0 335 89q121 88 121 249q0 50 -14 86q-16 42 -34 68q-20 29 -57 53q-33 21 -67 39q-24 13 -81 29q-70 20 -79 22q-63 14 -82 18q-44 9 -75 17q-225 52 -301 86
q-205 91 -205 305q0 177 134 281t370 104q239 0 383 -111q142 -109 157 -336z" />
    <glyph glyph-name="afii10055" unicode="&#x406;" horiz-adv-x="348" 
d="M219 1458v-1458h-88v1458h88z" />
    <glyph glyph-name="afii10056" unicode="&#x407;" horiz-adv-x="348" 
d="M215 1458v-1458h-88v1458h88zM397 1817v-211h-88v211h88zM39 1817v-211h-86v211h86z" />
    <glyph glyph-name="afii10057" unicode="&#x408;" horiz-adv-x="985" 
d="M858 1458v-1063q0 -428 -403 -428q-218 0 -313 111q-95 112 -95 328q0 19 2 55h84v-43q0 -189 69 -282t253 -93q176 0 245 92q70 93 70 266v1057h88z" />
    <glyph glyph-name="afii10058" unicode="&#x409;" horiz-adv-x="2048" 
d="M1157 1458v-651h395q219 0 338 -104t119 -295q0 -122 -41 -209q-40 -85 -110 -126q-68 -40 -136 -57q-64 -16 -137 -16h-516v1382h-577l-31 -919q-1 -81 -16 -164q-14 -77 -43 -152q-29 -74 -87 -120q-57 -45 -137 -45q-98 0 -147 18v82q48 -25 147 -25q53 0 93 40
t61 107q18 55 30 130q12 70 13 129l31 995h751zM1567 733h-410v-657h422q102 0 175 35t107 91q33 55 47 105q13 48 13 99q0 132 -86 230q-85 97 -268 97z" />
    <glyph glyph-name="afii10059" unicode="&#x40a;" horiz-adv-x="2048" 
d="M1585 0h-559v733h-809v-733h-88v1458h88v-651h809v651h88v-651h438q219 0 338 -104t119 -295q0 -122 -41 -209q-40 -85 -110 -126q-68 -40 -136 -57q-64 -16 -137 -16zM1567 733h-453v-657h465q102 0 175 35t107 91q33 55 47 105q13 48 13 99q0 132 -86 230
q-85 97 -268 97z" />
    <glyph glyph-name="afii10060" unicode="&#x40b;" horiz-adv-x="1441" 
d="M1333 303v-303h-88v303q0 261 -70 377q-71 117 -286 117q-36 0 -82 -8q-49 -8 -76 -17q-33 -10 -72 -27q-46 -19 -59 -26q-6 -3 -22.5 -12t-27.5 -14q-8 -4 -16.5 -8.5t-12.5 -6.5t-5 -2v-676h-88v1380h-453v78h1117v-78h-576v-620q217 112 373 112q116 0 195 -25
q80 -25 130 -69q49 -43 76 -119q28 -79 35 -156q8 -86 8 -200z" />
    <glyph glyph-name="afii10061" unicode="&#x40c;" horiz-adv-x="1255" 
d="M1251 1458l-671 -606l712 -852h-112l-664 793l-303 -277v-516h-88v1458h88v-837l922 837h116zM821 1862l-270 -287h-74l240 287h104z" />
    <glyph glyph-name="uni040D" unicode="&#x40d;" horiz-adv-x="1372" 
d="M1153 1350h-6l-907 -1350h-111v1462h90v-1349h6l905 1349h113v-1462h-90v1350zM688 1597l-274 287h104l246 -287h-76z" />
    <glyph glyph-name="afii10062" unicode="&#x40e;" horiz-adv-x="1138" 
d="M545 303l-570 1155h99l514 -1061l487 1061h94l-608 -1302q-39 -84 -105 -132q-67 -49 -139 -49q-35 0 -85 14q-47 13 -68 31v93q58 -58 143 -58q55 0 107 35q50 34 73 86zM858 1804q-12 -101 -90 -173t-178 -72q-116 0 -193 65t-92 180h68q43 -178 215 -178q75 0 133 50
t70 128h67z" />
    <glyph glyph-name="afii10145" unicode="&#x40f;" horiz-adv-x="1372" 
d="M729 0v-379h-88v379h-512v1458h88v-1380h934v1380h88v-1458h-510z" />
    <glyph glyph-name="afii10017" unicode="&#x410;" horiz-adv-x="1214" 
d="M659 1458l580 -1458h-98l-183 471h-702l-186 -471h-97l592 1458h94zM930 545l-266 676q-7 17 -28 77q-24 70 -26 76l-55 -147l-272 -682h647z" />
    <glyph glyph-name="afii10018" unicode="&#x411;" horiz-adv-x="1290" 
d="M129 1458h999v-78h-911v-569h541q220 0 342 -106q123 -107 123 -297q0 -117 -49 -202t-127 -127q-81 -44 -152 -61q-73 -18 -145 -18h-621v1458zM772 733h-555v-655h506q213 0 313 95q99 94 99 233q0 129 -91 229q-89 98 -272 98z" />
    <glyph glyph-name="afii10019" unicode="&#x412;" horiz-adv-x="1290" 
d="M127 1458h600q187 0 317 -92t130 -270q0 -126 -77 -218t-204 -114q147 -17 239 -113q91 -95 91 -245q0 -211 -170 -324q-124 -82 -363 -82h-563v1458zM215 1382v-589h459q411 0 411 292q0 157 -107 227t-276 70h-487zM215 719v-641h469q451 0 451 330q0 311 -439 311
h-481z" />
    <glyph glyph-name="afii10020" unicode="&#x413;" horiz-adv-x="1024" 
d="M1032 1380h-807v-1380h-88v1458h895v-78z" />
    <glyph glyph-name="afii10021" unicode="&#x414;" horiz-adv-x="1372" 
d="M1251 -379v379h-1142v-379h-89v457h130q217 401 217 1380h807v-1380h165v-457h-88zM1085 1382h-630q-18 -936 -211 -1304h841v1304z" />
    <glyph glyph-name="afii10022" unicode="&#x415;" horiz-adv-x="1146" 
d="M1102 1458v-78h-895v-583h840v-78h-840v-641h903v-78h-991v1458h983z" />
    <glyph glyph-name="afii10024" unicode="&#x416;" horiz-adv-x="2007" 
d="M1929 0l-620 829l-262 -239v-590h-89v590l-262 239l-620 -829h-109l666 889l-625 569h113l837 -766v766h89v-766l837 766h115l-625 -569l666 -889h-111z" />
    <glyph glyph-name="afii10025" unicode="&#x417;" horiz-adv-x="1290" 
d="M1206 406q0 -199 -162 -318q-163 -119 -385 -119q-267 0 -422 129t-155 385h84q5 -221 134 -330q131 -110 364 -110q180 0 319 102t139 261q0 320 -432 315q-121 0 -151 -2v78h151q168 0 282 77q115 78 115 240q0 148 -115 224q-116 77 -296 77q-439 0 -461 -368h-88
q15 224 162 335t387 111q222 0 361 -95t139 -284q0 -149 -87 -244q-86 -94 -210 -106v-4q327 -38 327 -354z" />
    <glyph glyph-name="afii10026" unicode="&#x418;" horiz-adv-x="1372" 
d="M1155 0v1346h-6l-909 -1346h-109v1458h88v-1345h6l908 1345h110v-1458h-88z" />
    <glyph glyph-name="afii10027" unicode="&#x419;" horiz-adv-x="1372" 
d="M981 1804q-12 -101 -90 -173t-178 -72q-116 0 -193 65t-92 180h68q43 -178 215 -178q75 0 133 50q57 49 69 128h68zM1155 0v1346h-6l-909 -1346h-109v1458h88v-1345h6l908 1345h110v-1458h-88z" />
    </font>
</defs>
</svg>
