<svg width="37" height="42" viewBox="0 0 37 42" fill="none" xmlns="http://www.w3.org/2000/svg">
<path d="M36.0171 21.7068C35.9942 22.3509 34.34 23.8965 31.8649 23.848C30.2784 23.7995 28.3788 23.7478 26.348 23.6993L25.8809 24.3433L13.843 40.5729C13.6094 40.895 13.0839 41.2459 12.7028 41.3425L11.7798 41.5614C11.3691 41.6805 11.2006 41.4229 11.3412 41.0268L17.4125 26.6772L18.0132 23.5213C16.0332 23.4825 10.6474 23.3305 10.1227 23.3434C10.0423 23.3562 9.94077 23.3369 9.83928 23.3176C9.68703 23.2886 9.50511 23.2821 9.30212 23.2435L9.25138 23.2338C9.14988 23.2145 9.04838 23.1951 8.96796 23.208C8.96796 23.208 8.96796 23.208 8.91721 23.1983C8.81572 23.179 8.68454 23.1822 8.56198 23.1307C8.56198 23.1307 8.56198 23.1307 8.51123 23.121C8.40974 23.1017 8.30824 23.0823 8.156 23.0533C8.10525 23.0437 8.10525 23.0437 8.0545 23.034C7.95301 23.0147 7.80076 22.9857 7.69927 22.9663C7.69927 22.9663 7.69927 22.9663 7.64852 22.9567C7.49628 22.9277 7.39478 22.9083 7.24254 22.8793L4.06176 27.32C3.79852 27.6645 3.27294 28.0155 2.91296 28.1443L1.38014 28.5853C0.969414 28.7044 0.821921 28.479 0.96259 28.0829L3.63649 21.7132C3.63649 21.7132 3.63649 21.7132 3.61542 21.681C2.95184 21.4136 2.52954 21.1076 2.54289 20.8564C2.55625 20.6053 2.9928 20.3219 3.68308 20.0869L1.16558 13.6587C0.993162 13.2593 1.20951 13.0468 1.58581 13.1467L3.09489 13.6879C3.49226 13.8199 3.97778 14.2225 4.23923 14.5543L7.38351 19.1566C8.58988 18.9635 9.68614 18.8058 10.1812 18.8155C10.6762 18.8252 13.9804 18.9189 18.0717 18.9934L17.5808 15.7987L11.9116 1.15815C11.7392 0.758797 11.9345 0.514066 12.3319 0.646142L13.2578 0.907092C13.6552 1.03917 14.1703 1.41923 14.4021 1.7735L26.4189 19.2583C28.4497 19.3068 30.3493 19.3586 31.9359 19.407C34.4109 19.4556 36.0399 21.0627 36.0171 21.7068Z" fill="white"/>
</svg>
