<svg width="60" height="60" viewBox="0 0 60 60" fill="none" xmlns="http://www.w3.org/2000/svg">
<path d="M50 15C52.7614 15 55 12.7614 55 10C55 7.23857 52.7614 5 50 5C47.2386 5 45 7.23857 45 10C45 12.7614 47.2386 15 50 15Z" stroke="#2E313F" stroke-width="2" stroke-linejoin="round"/>
<path d="M50 55C52.7614 55 55 52.7614 55 50C55 47.2386 52.7614 45 50 45C47.2386 45 45 47.2386 45 50C45 52.7614 47.2386 55 50 55Z" stroke="#2E313F" stroke-width="2" stroke-linejoin="round"/>
<path d="M10 15C12.7614 15 15 12.7614 15 10C15 7.23857 12.7614 5 10 5C7.23857 5 5 7.23857 5 10C5 12.7614 7.23857 15 10 15Z" stroke="#2E313F" stroke-width="2" stroke-linejoin="round"/>
<path d="M10 55C12.7614 55 15 52.7614 15 50C15 47.2386 12.7614 45 10 45C7.23857 45 5 47.2386 5 50C5 52.7614 7.23857 55 10 55Z" stroke="#2E313F" stroke-width="2" stroke-linejoin="round"/>
<path d="M25 10H35" stroke="#2E313F" stroke-width="2" stroke-linecap="round" stroke-linejoin="round"/>
<path d="M40 20L20 40" stroke="#2E313F" stroke-width="2" stroke-linecap="round" stroke-linejoin="round"/>
<path d="M50 25V35" stroke="#2E313F" stroke-width="2" stroke-linecap="round" stroke-linejoin="round"/>
</svg>
