<svg xmlns="http://www.w3.org/2000/svg" width="13.873" height="13.873" viewBox="0 0 13.873 13.873">
  <defs>
    <style>
      .cls-1 {
        fill: #0093c9;
      }
    </style>
  </defs>
  <path id="check_blue" data-name="check blue" class="cls-1" d="M12.506,5.537a.566.566,0,0,1-.163.406l-4.9,4.9a.578.578,0,0,1-.822,0L3.348,7.578a.566.566,0,0,1-.163-.406.587.587,0,0,1,.163-.415l.822-.813a.567.567,0,0,1,.813,0L7.024,7.984l3.685-3.676a.567.567,0,0,1,.813,0l.822.813A.587.587,0,0,1,12.506,5.537ZM14.782,7a6.936,6.936,0,1,0-6.936,6.936A6.938,6.938,0,0,0,14.782,7Z" transform="translate(-0.909 -0.064)"/>
</svg>
