<svg width="60" height="61" viewBox="0 0 60 61" fill="none" xmlns="http://www.w3.org/2000/svg">
<path d="M50 15.7803C52.7614 15.7803 55 13.5416 55 10.7803C55 8.01885 52.7614 5.78027 50 5.78027C47.2386 5.78027 45 8.01885 45 10.7803C45 13.5416 47.2386 15.7803 50 15.7803Z" stroke="#2E313F" stroke-width="2" stroke-linejoin="round"/>
<path d="M50 55.7803C52.7614 55.7803 55 53.5416 55 50.7803C55 48.0189 52.7614 45.7803 50 45.7803C47.2386 45.7803 45 48.0189 45 50.7803C45 53.5416 47.2386 55.7803 50 55.7803Z" stroke="#2E313F" stroke-width="2" stroke-linejoin="round"/>
<path d="M10 15.7803C12.7614 15.7803 15 13.5416 15 10.7803C15 8.01885 12.7614 5.78027 10 5.78027C7.23857 5.78027 5 8.01885 5 10.7803C5 13.5416 7.23857 15.7803 10 15.7803Z" stroke="#2E313F" stroke-width="2" stroke-linejoin="round"/>
<path d="M10 55.7803C12.7614 55.7803 15 53.5416 15 50.7803C15 48.0189 12.7614 45.7803 10 45.7803C7.23857 45.7803 5 48.0189 5 50.7803C5 53.5416 7.23857 55.7803 10 55.7803Z" stroke="#2E313F" stroke-width="2" stroke-linejoin="round"/>
<path d="M25 10.7803H35" stroke="#2E313F" stroke-width="2" stroke-linecap="round" stroke-linejoin="round"/>
<path d="M40 20.7803L20 40.7803" stroke="#2E313F" stroke-width="2" stroke-linecap="round" stroke-linejoin="round"/>
<path d="M50 25.7803V35.7803" stroke="#2E313F" stroke-width="2" stroke-linecap="round" stroke-linejoin="round"/>
</svg>
