<svg width="1920" height="654" viewBox="0 0 1920 654" fill="none" xmlns="http://www.w3.org/2000/svg">
<g clip-path="url(#clip0_1711_11094)">
<mask id="mask0_1711_11094" style="mask-type:luminance" maskUnits="userSpaceOnUse" x="0" y="0" width="1920" height="654">
<path d="M1920 0H0V654H1920V0Z" fill="white"/>
</mask>
<g mask="url(#mask0_1711_11094)">
<path d="M960 -211.501C960 123.459 630.023 394.999 223 394.999C-184.023 394.999 -514 123.459 -514 -211.501C-514 -546.46 -184.036 -818.001 223 -818.001C630.036 -818.001 960 -546.46 960 -211.501Z" stroke="url(#paint0_linear_1711_11094)"/>
<path d="M1792 621.999C1792 765.507 1737.04 895.491 1648.09 989.632C1559.15 1083.76 1436.26 1142 1300.5 1142C1164.74 1142 1041.85 1083.76 952.905 989.632C863.958 895.502 809 765.507 809 621.999C809 478.492 863.958 348.507 952.905 254.366C1041.85 160.235 1164.74 101.999 1300.5 101.999C1436.26 101.999 1559.15 160.235 1648.09 254.366C1737.04 348.497 1792 478.492 1792 621.999Z" stroke="url(#paint1_linear_1711_11094)"/>
</g>
</g>
<defs>
<linearGradient id="paint0_linear_1711_11094" x1="868.845" y1="-502.501" x2="448.272" y2="-714.581" gradientUnits="userSpaceOnUse">
<stop offset="0.05" stop-color="white"/>
<stop offset="1" stop-color="white" stop-opacity="0"/>
</linearGradient>
<linearGradient id="paint1_linear_1711_11094" x1="1158.73" y1="119.469" x2="1180.47" y2="429.367" gradientUnits="userSpaceOnUse">
<stop stop-color="white" stop-opacity="0.2"/>
<stop offset="1" stop-color="white"/>
</linearGradient>
<clipPath id="clip0_1711_11094">
<rect width="1920" height="654" fill="white"/>
</clipPath>
</defs>
</svg>
