<svg width="210" height="69" viewBox="0 0 210 69" fill="none" xmlns="http://www.w3.org/2000/svg">
<path d="M9.98844 57.6485H6.77386L4.98437 66.1448H3.71545L5.50495 57.6485H2.29688L2.52463 56.5791H10.2292L9.98844 57.6485Z" fill="white"/>
<path d="M13.958 62.0173C14.0361 61.0392 13.5936 60.0611 12.3377 60.0611C11.7749 60.0615 11.2295 60.2562 10.7933 60.6125C10.3571 60.9689 10.0568 61.465 9.94302 62.0173H13.958ZM9.76082 63.0214C9.73486 63.2225 9.72182 63.4251 9.72178 63.6279C9.72305 63.8582 9.77134 64.0858 9.86366 64.2967C9.95597 64.5077 10.0904 64.6975 10.2586 64.8544C10.4268 65.0114 10.6253 65.1322 10.8418 65.2095C11.0584 65.2867 11.2884 65.3188 11.5178 65.3036C11.9467 65.3365 12.3744 65.2264 12.7345 64.9906C13.0946 64.7548 13.3669 64.4064 13.509 63.9995H14.6478C14.4872 64.6974 14.0842 65.3154 13.5108 65.743C12.9374 66.1706 12.231 66.3801 11.5178 66.3339C9.22723 66.3339 8.58301 64.7559 8.58301 63.5496C8.58301 60.8892 10.2424 59.083 12.1425 59.083C14.1792 59.083 15.0772 60.198 15.0772 62.1542C15.0693 62.4463 15.0322 62.7368 14.9666 63.0214H9.76082Z" fill="white"/>
<path d="M21.7536 61.4167C21.7627 61.2265 21.7302 61.0366 21.6582 60.8604C21.5863 60.6841 21.4767 60.5258 21.3371 60.3965C21.1976 60.2673 21.0315 60.1702 20.8505 60.1121C20.6695 60.0541 20.478 60.0364 20.2895 60.0605C18.539 60.0605 17.602 61.8015 17.602 63.3208C17.602 64.3901 18.0445 65.2769 19.3134 65.2769C19.7526 65.2873 20.184 65.1596 20.547 64.9117C20.91 64.6637 21.1863 64.308 21.3371 63.8946H22.4759C22.3199 64.6082 21.9166 65.2434 21.3377 65.6874C20.7588 66.1315 20.0416 66.3556 19.3134 66.3202C17.4328 66.3202 16.4697 65.1922 16.4697 63.3338C16.4697 61.1298 17.8167 59.0693 20.2895 59.0693C21.8577 59.0693 22.8338 59.8192 22.8924 61.4298L21.7536 61.4167Z" fill="white"/>
<path d="M25.8532 56.5791H26.9919L26.172 60.2372C26.4623 59.859 26.836 59.5533 27.2639 59.344C27.6918 59.1347 28.1622 59.0275 28.6383 59.0308C29.9397 59.0308 30.5905 59.5916 30.5905 60.811C30.5643 61.2682 30.4968 61.7222 30.3887 62.1672L29.5428 66.1187H28.4105L29.2825 62.102C29.3643 61.7481 29.4187 61.3884 29.4452 61.0261C29.4452 60.3741 28.9116 60.0611 28.2413 60.0611C27.5884 60.0951 26.9745 60.3828 26.5299 60.8631C26.1394 61.26 25.8746 61.7636 25.7686 62.3107L24.9617 66.1448H23.8359L25.8532 56.5791Z" fill="white"/>
<path d="M33.2584 59.2198H34.3581L34.1434 60.263C34.432 59.8846 34.8044 59.5787 35.2313 59.3693C35.6582 59.1599 36.1279 59.0529 36.6031 59.0567C37.9046 59.0567 38.5553 59.6175 38.5553 60.8369C38.5325 61.2945 38.4649 61.7487 38.3536 62.1931L37.5141 66.1446H36.3754L37.2604 62.1019C37.3369 61.7472 37.3891 61.3877 37.4165 61.026C37.4165 60.3739 36.8829 60.0609 36.2127 60.0609C35.5541 60.0925 34.9345 60.3831 34.4883 60.8695C34.1014 61.2664 33.837 61.7667 33.7269 62.3105L32.9265 66.1446H31.8008L33.2584 59.2198Z" fill="white"/>
<path d="M43.0975 65.3036C44.7568 65.3036 45.7004 63.3866 45.7004 62.0434C45.7298 61.791 45.7042 61.5353 45.6254 61.2939C45.5465 61.0524 45.4162 60.831 45.2436 60.645C45.0709 60.459 44.86 60.3127 44.6254 60.2164C44.3908 60.1201 44.1381 60.076 43.8848 60.0872C42.1409 60.0872 41.2364 61.9912 41.2364 63.4257C41.2112 63.6814 41.2429 63.9396 41.329 64.1816C41.4152 64.4236 41.5538 64.6435 41.7348 64.8255C41.9158 65.0075 42.1348 65.1471 42.376 65.2343C42.6172 65.3215 42.8747 65.3541 43.13 65.3297M43.9629 59.083C45.811 59.083 46.8391 60.1002 46.8391 61.9521C46.8391 64.2147 45.4336 66.3339 43.0129 66.3339C42.6254 66.3605 42.2367 66.3041 41.8727 66.1684C41.5087 66.0327 41.1778 65.8208 40.9019 65.5469C40.6261 65.2729 40.4117 64.9432 40.273 64.5797C40.1343 64.2162 40.0745 63.8272 40.0976 63.4388C40.0976 61.1761 41.5422 59.083 43.9629 59.083Z" fill="white"/>
<path d="M49.9818 56.5791H51.1205L49.1163 66.1448H47.9775L49.9818 56.5791Z" fill="white"/>
<path d="M54.8103 65.3036C56.4697 65.3036 57.4132 63.3866 57.4132 62.0434C57.4428 61.7905 57.4171 61.5341 57.3378 61.2922C57.2586 61.0503 57.1277 60.8286 56.9544 60.6424C56.781 60.4563 56.5692 60.3102 56.3338 60.2143C56.0984 60.1184 55.845 60.075 55.5912 60.0872C53.8538 60.0872 52.9428 61.9912 52.9428 63.4257C52.9186 63.6818 52.9512 63.94 53.0382 64.182C53.1251 64.424 53.2643 64.6438 53.4458 64.8256C53.6273 65.0075 53.8466 65.147 54.0881 65.2341C54.3296 65.3212 54.5873 65.3539 54.8429 65.3297M55.6758 59.083C57.5174 59.083 58.552 60.1002 58.552 61.9521C58.552 64.2147 57.1464 66.3339 54.7257 66.3339C54.3383 66.3605 53.9496 66.3041 53.5856 66.1684C53.2216 66.0327 52.8907 65.8208 52.6148 65.5469C52.339 65.2729 52.1246 64.9432 51.9859 64.5797C51.8472 64.2162 51.7874 63.8272 51.8105 63.4388C51.8105 61.1761 53.2551 59.083 55.6758 59.083Z" fill="white"/>
<path d="M62.8727 65.1989C64.5841 65.1989 65.391 63.2428 65.391 61.8734C65.4193 61.6319 65.3933 61.3872 65.3149 61.157C65.2365 60.9269 65.1078 60.7173 64.9381 60.5435C64.7684 60.3697 64.562 60.2361 64.3341 60.1526C64.1062 60.0691 63.8626 60.0377 63.621 60.0607C62.0333 60.0607 61.1743 62.056 61.1743 63.321C61.1475 63.5593 61.1716 63.8005 61.245 64.0286C61.3185 64.2568 61.4396 64.4667 61.6002 64.6444C61.7609 64.822 61.9575 64.9633 62.1769 65.059C62.3963 65.1546 62.6335 65.2023 62.8727 65.1989ZM65.8986 65.1403C65.7661 65.7826 65.5878 66.4145 65.365 67.0312C65.1235 67.6546 64.6864 68.1825 64.1195 68.5354C63.5526 68.8882 62.8867 69.0468 62.222 68.9874C60.8164 68.9874 59.5019 68.3875 59.4629 66.8421H60.6017C60.6667 67.7681 61.4671 67.9832 62.3391 67.9832C64.1026 67.9832 64.4539 66.5748 64.8118 65.1989C64.572 65.5444 64.2486 65.8231 63.8719 66.0091C63.4951 66.195 63.0774 66.2819 62.658 66.2618C60.9465 66.2618 60.0551 65.0424 60.0551 63.3927C60.0551 61.3388 61.4086 59.1152 63.6536 59.1152C64.6622 59.1152 65.6513 59.6499 65.853 60.5237L66.0677 59.2196H67.1349L65.8986 65.1403Z" fill="white"/>
<path d="M70.7467 57.9745H69.6274L69.9267 56.5791H71.0785L70.7467 57.9745ZM69.3476 59.2199H70.4799L69.0353 66.1448H67.8965L69.3476 59.2199Z" fill="white"/>
<path d="M76.9544 62.0173C77.0325 61.0392 76.59 60.0611 75.3341 60.0611C74.772 60.0639 74.2278 60.2595 73.792 60.6154C73.3563 60.9714 73.0554 61.4661 72.9395 62.0173H76.9544ZM72.7768 63.0214C72.7508 63.2225 72.7378 63.4251 72.7377 63.6279C72.739 63.8582 72.7873 64.0858 72.8796 64.2967C72.9719 64.5077 73.1063 64.6975 73.2745 64.8544C73.4428 65.0114 73.6413 65.1322 73.8578 65.2095C74.0743 65.2867 74.3044 65.3188 74.5337 65.3036C74.9626 65.3365 75.3904 65.2264 75.7505 64.9906C76.1105 64.7548 76.3828 64.4064 76.5249 63.9995H77.6637C77.5031 64.6974 77.1001 65.3154 76.5268 65.743C75.9534 66.1706 75.247 66.3801 74.5337 66.3339C72.2432 66.3339 71.6055 64.7559 71.6055 63.5496C71.6055 60.8892 73.2583 59.083 75.1584 59.083C77.1952 59.083 78.0932 60.198 78.0932 62.1542C78.087 62.455 78.0499 62.7543 77.9826 63.0475L72.7768 63.0214Z" fill="white"/>
<path d="M83.9437 61.2872C83.9958 60.4982 83.293 60.0939 82.5121 60.0939C81.7312 60.0939 81.0415 60.283 81.0415 60.9807C81.0415 61.6784 81.9525 61.8806 82.8635 62.2848C83.7745 62.6891 84.692 63.1456 84.692 64.241C84.692 65.7864 83.2084 66.3863 81.8744 66.3863C80.2931 66.3863 79.0633 65.8125 79.0763 64.0389H80.215C80.1565 65.0756 81.0285 65.3821 81.9785 65.3821C82.7138 65.3821 83.5598 65.1148 83.5598 64.3258C83.5598 63.6737 82.6488 63.3868 81.7377 63.0217C80.8267 62.6565 79.9027 62.1935 79.9027 61.1437C79.9027 59.8396 81.2041 59.1484 82.5056 59.1484C83.807 59.1484 85.1085 59.7222 85.1085 61.3459L83.9437 61.2872Z" fill="white"/>
<path d="M13.509 12.5716H0L2.58988 0.0585938H44.6137L42.0238 12.5716H28.5147L21.0119 48.8652H5.99968L13.509 12.5716Z" fill="white"/>
<path d="M54.5108 31.4357H63.8552L62.2154 16.81H62.0853L54.5108 31.4357ZM58.1939 0.0585938H72.9263L80.5008 48.8978H65.7684L64.9485 41.8947H49.0513L45.3031 48.8978H30.0176L58.1939 0.0585938Z" fill="white"/>
<path d="M84.1123 0.0585938L81.5225 12.5716H95.025L87.5221 48.8652H102.528L110.037 12.5716H123.54L126.136 0.0585938H84.1123Z" fill="white"/>
<path d="M113.226 36.3321L110.623 48.8973H140.589C152.269 48.8973 160.95 44.3328 167.236 36.293L113.226 36.3321Z" fill="#0265A1"/>
<path d="M130.575 18.3295L127.972 30.8751H162.109C173.757 30.8751 182.444 26.3107 188.71 18.2969L130.575 18.3295Z" fill="#0094C9"/>
<path d="M147.343 0.0326029L144.74 12.5782H183.048C194.69 12.5782 203.384 8.0464 209.644 0L147.343 0.0326029Z" fill="#A8D8FF"/>
</svg>
