<svg width="1920" height="648" viewBox="0 0 1920 648" fill="none" xmlns="http://www.w3.org/2000/svg">
<mask id="mask0_1743_15429" style="mask-type:alpha" maskUnits="userSpaceOnUse" x="0" y="-6" width="1920" height="654">
<rect x="-0.5" y="0.5" width="1919" height="653" transform="matrix(-1 0 0 1 1919 -6)" fill="#D9D9D9" stroke="white"/>
</mask>
<g mask="url(#mask0_1743_15429)">
<path d="M1024.21 521.178C1033.16 628.571 967.788 732.015 854.657 812.435C741.536 892.847 580.745 950.174 399.095 965.325C217.445 980.475 49.379 950.576 -75.4995 890.015C-200.39 829.448 -281.998 738.263 -290.955 630.87C-299.912 523.477 -234.537 420.033 -121.406 339.613C-8.2854 259.201 152.506 201.874 334.156 186.723C515.805 171.573 683.872 201.472 808.75 262.033C933.64 322.6 1015.25 413.785 1024.21 521.178Z" stroke="white"/>
<path d="M1871.5 88C1871.5 365.455 1610.11 590.5 1287.5 590.5C964.893 590.5 703.5 365.455 703.5 88C703.5 -189.455 964.893 -414.5 1287.5 -414.5C1610.11 -414.5 1871.5 -189.455 1871.5 88Z" stroke="url(#paint0_linear_1743_15429)"/>
</g>
<defs>
<linearGradient id="paint0_linear_1743_15429" x1="1287.5" y1="591" x2="1317" y2="276.5" gradientUnits="userSpaceOnUse">
<stop stop-color="white"/>
<stop offset="1" stop-color="white" stop-opacity="0.5"/>
</linearGradient>
</defs>
</svg>
