<svg width="125" height="41" viewBox="0 0 125 41" fill="none" xmlns="http://www.w3.org/2000/svg">
<g clip-path="url(#clip0_1026_903)">
<path d="M5.9548 34.2746H4.03829L2.97141 39.3255H2.21489L3.28177 34.2746H1.36914L1.50493 33.6389H6.09835L5.9548 34.2746Z" fill="white"/>
<path d="M8.32172 36.8718C8.36827 36.2903 8.10446 35.7089 7.3557 35.7089C7.02018 35.7091 6.69498 35.8249 6.43492 36.0367C6.17486 36.2485 5.99584 36.5435 5.92802 36.8718H8.32172ZM5.81939 37.4687C5.80391 37.5883 5.79614 37.7087 5.79611 37.8292C5.79688 37.9662 5.82566 38.1015 5.8807 38.2269C5.93574 38.3523 6.01587 38.4651 6.11616 38.5584C6.21646 38.6517 6.33479 38.7236 6.46389 38.7695C6.59299 38.8154 6.73013 38.8345 6.86688 38.8255C7.1226 38.845 7.37761 38.7796 7.59229 38.6394C7.80696 38.4992 7.96929 38.2921 8.05403 38.0502H8.73295C8.6372 38.4651 8.39695 38.8324 8.05511 39.0866C7.71327 39.3409 7.29212 39.4654 6.86688 39.4379C5.50127 39.4379 5.11719 38.4999 5.11719 37.7827C5.11719 36.2012 6.10648 35.1274 7.23932 35.1274C8.45362 35.1274 8.98901 35.7903 8.98901 36.9532C8.98425 37.1268 8.96216 37.2995 8.92305 37.4687H5.81939Z" fill="white"/>
<path d="M12.9696 36.5151C12.975 36.402 12.9556 36.2891 12.9127 36.1844C12.8698 36.0796 12.8044 35.9855 12.7212 35.9086C12.638 35.8318 12.539 35.7741 12.4311 35.7396C12.3232 35.705 12.209 35.6946 12.0966 35.7088C11.053 35.7088 10.4944 36.7438 10.4944 37.647C10.4944 38.2827 10.7582 38.8099 11.5147 38.8099C11.7766 38.8161 12.0337 38.7401 12.2502 38.5927C12.4666 38.4453 12.6313 38.2339 12.7213 37.9881H13.4002C13.3072 38.4124 13.0667 38.7899 12.7216 39.0539C12.3764 39.3179 11.9489 39.4512 11.5147 39.4301C10.3935 39.4301 9.81934 38.7595 9.81934 37.6548C9.81934 36.3446 10.6224 35.1196 12.0966 35.1196C13.0316 35.1196 13.6136 35.5654 13.6485 36.5229L12.9696 36.5151Z" fill="white"/>
<path d="M15.4136 33.6389H16.0925L15.6037 35.8135C15.7768 35.5887 15.9996 35.407 16.2547 35.2826C16.5098 35.1582 16.7902 35.0945 17.0741 35.0964C17.85 35.0964 18.2379 35.4298 18.2379 36.1547C18.2224 36.4265 18.1821 36.6964 18.1177 36.9609L17.6133 39.31H16.9383L17.4581 36.9222C17.5069 36.7118 17.5393 36.498 17.5551 36.2826C17.5551 35.8949 17.237 35.7089 16.8374 35.7089C16.4482 35.7291 16.0821 35.9001 15.8171 36.1857C15.5843 36.4216 15.4264 36.721 15.3632 37.0462L14.8821 39.3255H14.2109L15.4136 33.6389Z" fill="white"/>
<path d="M19.829 35.2088H20.4846L20.3566 35.829C20.5287 35.604 20.7507 35.4221 21.0052 35.2977C21.2597 35.1732 21.5397 35.1096 21.8231 35.1119C22.599 35.1119 22.987 35.4452 22.987 36.1701C22.9733 36.4422 22.9331 36.7122 22.8667 36.9764L22.3662 39.3254H21.6873L22.2149 36.9221C22.2606 36.7113 22.2917 36.4976 22.308 36.2825C22.308 35.8949 21.9899 35.7088 21.5903 35.7088C21.1977 35.7276 20.8283 35.9003 20.5622 36.1895C20.3315 36.4254 20.1739 36.7229 20.1083 37.0462L19.6311 39.3254H18.96L19.829 35.2088Z" fill="white"/>
<path d="M25.6947 38.8255C26.684 38.8255 27.2465 37.6858 27.2465 36.8873C27.2641 36.7373 27.2488 36.5853 27.2018 36.4417C27.1548 36.2982 27.0771 36.1666 26.9742 36.056C26.8713 35.9454 26.7455 35.8585 26.6056 35.8012C26.4658 35.744 26.3151 35.7178 26.1641 35.7244C25.1244 35.7244 24.5851 36.8563 24.5851 37.7091C24.5701 37.8611 24.589 38.0146 24.6404 38.1584C24.6917 38.3023 24.7744 38.433 24.8823 38.5412C24.9902 38.6494 25.1207 38.7324 25.2646 38.7842C25.4084 38.8361 25.5619 38.8554 25.7141 38.841M26.2107 35.1274C27.3125 35.1274 27.9255 35.7321 27.9255 36.833C27.9255 38.1781 27.0875 39.4379 25.6443 39.4379C25.4133 39.4538 25.1815 39.4202 24.9645 39.3395C24.7475 39.2589 24.5502 39.1329 24.3857 38.97C24.2213 38.8072 24.0935 38.6112 24.0108 38.3951C23.9281 38.179 23.8924 37.9478 23.9062 37.7168C23.9062 36.3717 24.7675 35.1274 26.2107 35.1274Z" fill="white"/>
<path d="M29.7994 33.6389H30.4783L29.2834 39.3255H28.6045L29.7994 33.6389Z" fill="white"/>
<path d="M32.6781 38.8255C33.6674 38.8255 34.2299 37.6858 34.2299 36.8873C34.2476 36.737 34.2322 36.5846 34.185 36.4408C34.1377 36.2969 34.0597 36.1651 33.9563 36.0545C33.853 35.9438 33.7267 35.857 33.5864 35.8C33.446 35.743 33.295 35.7172 33.1436 35.7244C32.1078 35.7244 31.5647 36.8563 31.5647 37.7091C31.5503 37.8613 31.5697 38.0148 31.6215 38.1587C31.6734 38.3025 31.7564 38.4332 31.8646 38.5413C31.9728 38.6494 32.1035 38.7323 32.2475 38.7841C32.3915 38.8359 32.5451 38.8553 32.6975 38.841M33.1941 35.1274C34.292 35.1274 34.9088 35.7321 34.9088 36.833C34.9088 38.1781 34.0709 39.4379 32.6277 39.4379C32.3967 39.4538 32.1649 39.4202 31.9479 39.3395C31.7309 39.2589 31.5336 39.1329 31.3691 38.97C31.2047 38.8072 31.0769 38.6112 30.9942 38.3951C30.9115 38.179 30.8758 37.9478 30.8896 37.7168C30.8896 36.3717 31.7509 35.1274 33.1941 35.1274Z" fill="white"/>
<path d="M37.4841 38.7634C38.5044 38.7634 38.9855 37.6005 38.9855 36.7864C39.0023 36.6429 38.9868 36.4973 38.9401 36.3605C38.8934 36.2237 38.8166 36.0991 38.7154 35.9958C38.6143 35.8925 38.4912 35.8131 38.3554 35.7634C38.2195 35.7138 38.0742 35.6951 37.9302 35.7088C36.9836 35.7088 36.4715 36.895 36.4715 37.647C36.4555 37.7886 36.4699 37.932 36.5137 38.0676C36.5575 38.2033 36.6296 38.3281 36.7254 38.4337C36.8212 38.5393 36.9384 38.6233 37.0692 38.6801C37.2 38.737 37.3414 38.7653 37.4841 38.7634ZM39.2881 38.7285C39.2091 39.1103 39.1028 39.486 38.9699 39.8526C38.826 40.2232 38.5654 40.537 38.2274 40.7468C37.8895 40.9565 37.4924 41.0508 37.0961 41.0155C36.2581 41.0155 35.4744 40.6589 35.4512 39.7402H36.1301C36.1689 40.2906 36.6461 40.4185 37.1659 40.4185C38.2173 40.4185 38.4268 39.5813 38.6402 38.7634C38.4972 38.9687 38.3044 39.1344 38.0798 39.2449C37.8552 39.3555 37.6061 39.4072 37.356 39.3952C36.3357 39.3952 35.8042 38.6703 35.8042 37.6896C35.8042 36.4686 36.6112 35.1467 37.9496 35.1467C38.551 35.1467 39.1407 35.4646 39.2609 35.984L39.3889 35.2088H40.0252L39.2881 38.7285Z" fill="white"/>
<path d="M42.1787 34.4685H41.5115L41.6899 33.6389H42.3766L42.1787 34.4685ZM41.3446 35.2088H42.0197L41.1584 39.3255H40.4795L41.3446 35.2088Z" fill="white"/>
<path d="M45.8794 36.8718C45.926 36.2903 45.6622 35.7089 44.9134 35.7089C44.5783 35.7105 44.2538 35.8268 43.9941 36.0384C43.7343 36.25 43.5549 36.5441 43.4857 36.8718H45.8794ZM43.3888 37.4687C43.3733 37.5883 43.3655 37.7087 43.3655 37.8292C43.3662 37.9662 43.395 38.1015 43.4501 38.2269C43.5051 38.3523 43.5852 38.4651 43.6855 38.5584C43.7858 38.6517 43.9042 38.7236 44.0333 38.7695C44.1624 38.8154 44.2995 38.8345 44.4362 38.8255C44.692 38.845 44.947 38.7796 45.1616 38.6394C45.3763 38.4992 45.5386 38.2921 45.6234 38.0502H46.3023C46.2066 38.4651 45.9663 38.8324 45.6245 39.0866C45.2826 39.3409 44.8615 39.4654 44.4362 39.4379C43.0706 39.4379 42.6904 38.4999 42.6904 37.7827C42.6904 36.2012 43.6758 35.1274 44.8087 35.1274C46.023 35.1274 46.5584 35.7903 46.5584 36.9532C46.5547 37.132 46.5326 37.31 46.4924 37.4843L43.3888 37.4687Z" fill="white"/>
<path d="M50.0465 36.4376C50.0776 35.9685 49.6586 35.7282 49.193 35.7282C48.7275 35.7282 48.3162 35.8406 48.3162 36.2554C48.3162 36.6702 48.8594 36.7903 49.4025 37.0307C49.9456 37.271 50.4927 37.5423 50.4927 38.1936C50.4927 39.1122 49.6081 39.4689 48.8128 39.4689C47.8701 39.4689 47.1368 39.1278 47.1446 38.0734H47.8235C47.7886 38.6897 48.3085 38.8719 48.8749 38.8719C49.3133 38.8719 49.8176 38.713 49.8176 38.2439C49.8176 37.8563 49.2745 37.6858 48.7313 37.4687C48.1882 37.2516 47.6373 36.9764 47.6373 36.3523C47.6373 35.577 48.4132 35.1661 49.1891 35.1661C49.965 35.1661 50.741 35.5073 50.741 36.4725L50.0465 36.4376Z" fill="white"/>
<path d="M8.054 7.47751H0L1.54407 0.0388184H26.5984L25.0543 7.47751H17.0003L12.5272 29.0532H3.57697L8.054 7.47751Z" fill="white"/>
<path d="M32.4992 18.6917H38.0703L37.0926 9.99712H37.015L32.4992 18.6917ZM34.6951 0.0388184H43.4784L47.9942 29.0726H39.2109L38.7221 24.9094H29.2442L27.0096 29.0726H17.8965L34.6951 0.0388184Z" fill="white"/>
<path d="M50.1476 0.0388184L48.6035 7.47751H56.6536L52.1805 29.0532H61.1268L65.6038 7.47751H73.654L75.2019 0.0388184H50.1476Z" fill="white"/>
<path d="M67.505 21.6028L65.9531 29.0725H83.8186C90.7824 29.0725 95.9578 26.3591 99.7055 21.5796L67.505 21.6028Z" fill="#0265A1"/>
<path d="M77.8477 10.9002L76.2959 18.3583H96.6482C103.593 18.3583 108.772 15.6449 112.508 10.8809L77.8477 10.9002Z" fill="#0094C9"/>
<path d="M87.8448 0.0232879L86.293 7.48136H109.132C116.073 7.48136 121.256 4.7873 124.988 0.00390625L87.8448 0.0232879Z" fill="#86D0E6"/>
</g>
<defs>
<clipPath id="clip0_1026_903">
<rect width="125" height="41" fill="white"/>
</clipPath>
</defs>
</svg>
