<svg width="16" height="15" viewBox="0 0 16 15" fill="none" xmlns="http://www.w3.org/2000/svg">
<path d="M3.50558 4.84933V14.8036H0.190848V4.84933H3.50558ZM3.71652 1.77567C3.72321 2.26451 3.55246 2.67299 3.20424 3.00112C2.86272 3.32924 2.41071 3.4933 1.84821 3.4933H1.82813C1.27902 3.4933 0.837054 3.32924 0.502232 3.00112C0.167411 2.67299 0 2.26451 0 1.77567C0 1.28013 0.170759 0.871652 0.512277 0.550223C0.860491 0.222098 1.3125 0.0580353 1.8683 0.0580353C2.42411 0.0580353 2.86942 0.222098 3.20424 0.550223C3.53906 0.871652 3.70982 1.28013 3.71652 1.77567ZM15.4286 9.09821V14.8036H12.1239V9.47991C12.1239 8.77679 11.9866 8.22768 11.7121 7.83259C11.4442 7.4308 11.0223 7.22991 10.4464 7.22991C10.0246 7.22991 9.66964 7.3471 9.3817 7.58147C9.10045 7.80915 8.88951 8.09375 8.74888 8.43527C8.67522 8.63616 8.63839 8.90737 8.63839 9.24888V14.8036H5.33371C5.3471 12.1317 5.35379 9.9654 5.35379 8.30469C5.35379 6.64397 5.35045 5.6529 5.34375 5.33147L5.33371 4.84933H8.63839V6.29576H8.6183C8.75223 6.08147 8.88951 5.89397 9.03013 5.73326C9.17076 5.57254 9.35826 5.39844 9.59263 5.21094C9.83371 5.02344 10.125 4.87946 10.4665 4.77902C10.8147 4.67187 11.1998 4.6183 11.6217 4.6183C12.7667 4.6183 13.6875 5 14.3839 5.76339C15.0804 6.52009 15.4286 7.6317 15.4286 9.09821Z" fill="white"/>
</svg>
