<svg width="16" height="14" viewBox="0 0 16 14" fill="none" xmlns="http://www.w3.org/2000/svg">
<path d="M16 4.625V11.7143C16 12.1071 15.8601 12.4435 15.5804 12.7232C15.3006 13.003 14.9643 13.1429 14.5714 13.1429H1.42857C1.03571 13.1429 0.699405 13.003 0.419643 12.7232C0.139881 12.4435 0 12.1071 0 11.7143V4.625C0.261905 4.91667 0.5625 5.17559 0.901786 5.40179C3.05655 6.86607 4.53571 7.89286 5.33929 8.48214C5.67857 8.73214 5.95238 8.92857 6.16071 9.07143C6.375 9.20833 6.65774 9.35119 7.00893 9.5C7.36012 9.64286 7.6875 9.71429 7.99107 9.71429H8H8.00893C8.3125 9.71429 8.63988 9.64286 8.99107 9.5C9.34226 9.35119 9.62202 9.20833 9.83036 9.07143C10.0446 8.92857 10.3214 8.73214 10.6607 8.48214C11.6726 7.75 13.1548 6.72321 15.1071 5.40179C15.4464 5.16964 15.744 4.91071 16 4.625ZM16 2C16 2.47024 15.8542 2.91964 15.5625 3.34821C15.2708 3.77679 14.9077 4.14286 14.4732 4.44643C12.2351 6 10.8423 6.96726 10.2946 7.34821C10.2351 7.38988 10.1071 7.48214 9.91072 7.625C9.72024 7.7619 9.55952 7.875 9.42857 7.96429C9.30357 8.04762 9.14881 8.14286 8.96429 8.25C8.78571 8.35714 8.61607 8.4375 8.45536 8.49107C8.29464 8.54464 8.14583 8.57143 8.00893 8.57143H8H7.99107C7.85417 8.57143 7.70536 8.54464 7.54464 8.49107C7.38393 8.4375 7.21131 8.35714 7.02679 8.25C6.84821 8.14286 6.69345 8.04762 6.5625 7.96429C6.4375 7.875 6.27679 7.7619 6.08036 7.625C5.88988 7.48214 5.76488 7.38988 5.70536 7.34821C5.16369 6.96726 4.38393 6.42559 3.36607 5.72321C2.34821 5.01488 1.7381 4.58929 1.53571 4.44643C1.16667 4.19643 0.818452 3.85417 0.491071 3.41964C0.16369 2.97917 0 2.57143 0 2.19643C0 1.73214 0.122024 1.34524 0.366071 1.03571C0.616071 0.72619 0.970238 0.571428 1.42857 0.571428H14.5714C14.9583 0.571428 15.2917 0.711309 15.5714 0.991071C15.8571 1.27083 16 1.60714 16 2Z" fill="white"/>
</svg>
