<svg width="1920" height="650" viewBox="0 0 1920 650" fill="none" xmlns="http://www.w3.org/2000/svg">
<mask id="mask0_1903_6018" style="mask-type:alpha" maskUnits="userSpaceOnUse" x="0" y="0" width="1920" height="650">
<rect x="-0.5" y="0.5" width="1919" height="649" transform="matrix(-1 0 0 1 1919 0)" fill="#D9D9D9" stroke="white"/>
</mask>
<g mask="url(#mask0_1903_6018)">
<path d="M982.331 754.054C850.819 1028.01 521.226 1144.37 246.163 1013.94C-28.8994 883.507 -145.268 555.682 -13.756 281.722C117.756 7.76252 447.349 -108.593 722.412 21.8385C997.474 152.27 1113.84 480.094 982.331 754.054Z" stroke="white"/>
<path d="M1269.5 671.174C1269.5 808.974 1185.85 933.789 1050.49 1024.18C915.133 1114.56 728.107 1170.48 521.5 1170.48C314.893 1170.48 127.867 1114.56 -7.49176 1024.18C-142.854 933.789 -226.5 808.974 -226.5 671.174C-226.5 533.374 -142.854 408.558 -7.49176 318.17C127.867 227.784 314.893 171.863 521.5 171.863C728.107 171.863 915.133 227.784 1050.49 318.17C1185.85 408.558 1269.5 533.374 1269.5 671.174Z" stroke="white"/>
</g>
</svg>
