<svg width="1920" height="648" viewBox="0 0 1920 648" fill="none" xmlns="http://www.w3.org/2000/svg">
<mask id="mask0_819_7258" style="mask-type:alpha" maskUnits="userSpaceOnUse" x="0" y="-6" width="1920" height="654">
<rect x="-0.5" y="0.5" width="1919" height="653" transform="matrix(-1 0 0 1 1919 -6)" fill="#D9D9D9" stroke="white"/>
</mask>
<g mask="url(#mask0_819_7258)">
<path d="M1952.33 653.603C1820.82 929.252 1491.22 1046.32 1216.16 915.089C941.101 783.856 824.73 454.014 956.243 178.365C1087.76 -97.2839 1417.35 -214.353 1692.41 -83.1204C1967.47 48.1127 2083.84 377.955 1952.33 653.603Z" stroke="white"/>
<path d="M2269.5 838C2269.5 976.625 2164.1 1102.24 1993.42 1193.23C1822.77 1284.21 1586.97 1340.5 1326.5 1340.5C1066.03 1340.5 830.234 1284.21 659.58 1193.23C488.904 1102.24 383.5 976.625 383.5 838C383.5 699.375 488.904 573.757 659.58 482.767C830.234 391.787 1066.03 335.5 1326.5 335.5C1586.97 335.5 1822.77 391.787 1993.42 482.767C2164.1 573.757 2269.5 699.375 2269.5 838Z" stroke="white"/>
</g>
</svg>
