<svg width="15" height="15" viewBox="0 0 15 15" fill="none" xmlns="http://www.w3.org/2000/svg">
<path d="M14.5677 12.0268C14.5677 12.2076 14.5342 12.4453 14.4672 12.74C14.4003 13.0279 14.3299 13.2556 14.2563 13.423C14.1157 13.7578 13.7072 14.1127 13.0308 14.4877C12.4014 14.8292 11.7786 15 11.1625 15C10.9817 15 10.8043 14.99 10.6302 14.9699C10.4628 14.9431 10.2719 14.8996 10.0576 14.8393C9.84333 14.779 9.68262 14.7321 9.57548 14.6987C9.47503 14.6585 9.29088 14.5882 9.02302 14.4877C8.75516 14.3873 8.5911 14.327 8.53083 14.3069C7.87458 14.0725 7.28864 13.7946 6.77302 13.4732C5.91588 12.9442 5.0286 12.2243 4.11119 11.3136C3.20047 10.3962 2.48061 9.50893 1.95159 8.65179C1.63016 8.13616 1.35226 7.55022 1.11789 6.89397C1.0978 6.8337 1.03753 6.66964 0.937081 6.40179C0.836635 6.13393 0.766323 5.94978 0.726144 5.84933C0.692662 5.74219 0.645787 5.58147 0.585519 5.36719C0.525251 5.1529 0.481724 4.96205 0.454939 4.79464C0.434849 4.62054 0.424805 4.44308 0.424805 4.26228C0.424805 3.6462 0.595564 3.02344 0.937081 2.39397C1.31208 1.71763 1.66699 1.30915 2.00181 1.16853C2.16922 1.09487 2.3969 1.02455 2.68485 0.957589C2.97949 0.890624 3.21722 0.857142 3.39802 0.857142C3.49177 0.857142 3.56208 0.867187 3.60896 0.887276C3.72949 0.927455 3.90695 1.18192 4.14132 1.65067C4.21498 1.7779 4.31543 1.9587 4.44266 2.19308C4.56989 2.42745 4.68708 2.64174 4.79422 2.83594C4.90137 3.02344 5.00516 3.20089 5.10561 3.3683C5.1257 3.39509 5.18262 3.47879 5.27637 3.61942C5.37681 3.76004 5.45047 3.88058 5.49735 3.98103C5.54422 4.07478 5.56766 4.16853 5.56766 4.26228C5.56766 4.3962 5.47056 4.56362 5.27637 4.76451C5.08887 4.9654 4.88128 5.14955 4.6536 5.31696C4.43262 5.48437 4.22503 5.66183 4.03083 5.84933C3.84333 6.03683 3.74958 6.19085 3.74958 6.31138C3.74958 6.37165 3.76632 6.44866 3.7998 6.54241C3.83329 6.62946 3.86007 6.69643 3.88016 6.7433C3.90695 6.79018 3.95382 6.87054 4.02079 6.98437C4.09445 7.09821 4.13463 7.16183 4.14132 7.17522C4.65025 8.09263 5.23284 8.87946 5.88909 9.53571C6.54534 10.192 7.33217 10.7746 8.24958 11.2835C8.26297 11.2902 8.32659 11.3304 8.44043 11.404C8.55427 11.471 8.63463 11.5179 8.6815 11.5446C8.72838 11.5647 8.79534 11.5915 8.88239 11.625C8.97614 11.6585 9.05315 11.6752 9.11342 11.6752C9.23396 11.6752 9.38797 11.5815 9.57548 11.394C9.76298 11.1998 9.94043 10.9922 10.1078 10.7712C10.2753 10.5435 10.4594 10.3359 10.6603 10.1484C10.8612 9.95424 11.0286 9.85714 11.1625 9.85714C11.2563 9.85714 11.35 9.88058 11.4438 9.92746C11.5442 9.97433 11.6648 10.048 11.8054 10.1484C11.946 10.2422 12.0297 10.2991 12.0565 10.3192C12.2239 10.4196 12.4014 10.5234 12.5889 10.6306C12.7831 10.7377 12.9974 10.8549 13.2317 10.9821C13.4661 11.1094 13.6469 11.2098 13.7741 11.2835C14.2429 11.5179 14.4973 11.6953 14.5375 11.8158C14.5576 11.8627 14.5677 11.933 14.5677 12.0268Z" fill="white"/>
</svg>
