<svg width="15" height="10" viewBox="0 0 15 10" fill="none" xmlns="http://www.w3.org/2000/svg">
<path d="M14.0876 2.90625L7.87667 9.10882C7.77065 9.21484 7.64509 9.26786 7.5 9.26786C7.35491 9.26786 7.22935 9.21484 7.12333 9.10882L0.912388 2.90625C0.806362 2.80022 0.753348 2.67467 0.753348 2.52958C0.753348 2.37891 0.806362 2.25056 0.912388 2.14453L2.3019 0.763392C2.40792 0.657366 2.53348 0.604352 2.67857 0.604352C2.82366 0.604352 2.94922 0.657366 3.05525 0.763392L7.5 5.20815L11.9448 0.763392C12.0508 0.657366 12.1763 0.604352 12.3214 0.604352C12.4665 0.604352 12.5921 0.657366 12.6981 0.763392L14.0876 2.14453C14.1936 2.25056 14.2467 2.37891 14.2467 2.52958C14.2467 2.67467 14.1936 2.80022 14.0876 2.90625Z" fill="#0093C9"/>
</svg>
