<svg xmlns="http://www.w3.org/2000/svg" width="37.824" height="40.982" viewBox="0 0 37.824 40.982">
  <defs>
    <style>
      .cls-1 {
        fill: #0065a1;
      }
    </style>
  </defs>
  <path id="plan" class="cls-1" d="M47.086,25.784c-.008.645-1.748,2.237-4.415,2.26-1.71,0-3.757,0-5.946.01l-.486.657L23.706,45.28a2.594,2.594,0,0,1-1.207.8l-.988.245c-.439.131-.628-.122-.487-.522L27.18,31.287l.563-3.172c-2.134.018-7.938.021-8.5.049a1.039,1.039,0,0,1-.306-.018c-.165-.025-.361-.026-.58-.059l-.055-.008a1.039,1.039,0,0,0-.306-.018l-.055-.008A1.813,1.813,0,0,1,17.553,28l-.055-.008-.384-.058L17,27.914l-.384-.057-.055-.008-.439-.066-3.307,4.531a3.148,3.148,0,0,1-1.215.857l-1.639.485c-.439.131-.6-.09-.463-.49l2.71-6.444-.023-.032c-.722-.248-1.185-.542-1.177-.793s.47-.547,1.208-.8L9.334,18.74c-.2-.394.031-.613.439-.524l1.64.5a3.106,3.106,0,0,1,1.256.833l3.509,4.51a25.61,25.61,0,0,1,3-.421c.533,0,4.095-.006,8.5-.049l-.614-3.179-6.5-14.472c-.2-.394.007-.645.439-.524l1,.234a2.715,2.715,0,0,1,1.256.833L36.682,23.612c2.189-.01,4.236-.013,5.946-.01C45.3,23.58,47.093,25.139,47.086,25.784Z" transform="translate(-9.262 -5.381)"/>
</svg>
