<svg xmlns="http://www.w3.org/2000/svg" width="96.842" height="32" viewBox="0 0 96.842 32">
  <g id="Group_850" data-name="Group 850" transform="translate(-18)">
    <path id="Path_937" data-name="Path 937" d="M22.6,26.762H21.122L20.3,30.7h-.6l.851-3.937H19.072l.095-.508H22.73Z" fill="#fff"/>
    <path id="Path_938" data-name="Path 938" d="M24.433,28.794c.031-.444-.158-.921-.757-.921a1.123,1.123,0,0,0-1.1.921Zm-1.924.444c0,.1-.031.191-.031.286a.763.763,0,0,0,.82.762.9.9,0,0,0,.914-.6h.536A1.4,1.4,0,0,1,23.3,30.762a1.238,1.238,0,0,1-1.356-1.3,1.842,1.842,0,0,1,1.64-2.063c.946,0,1.356.508,1.356,1.428a1.418,1.418,0,0,1-.063.413Z" fill="#fff"/>
    <path id="Path_939" data-name="Path 939" d="M28.059,28.508a.607.607,0,0,0-.662-.635,1.371,1.371,0,0,0-1.23,1.524c0,.508.189.921.788.921a.985.985,0,0,0,.946-.667h.536a1.4,1.4,0,0,1-1.451,1.111,1.221,1.221,0,0,1-1.325-1.4A1.816,1.816,0,0,1,27.429,27.4a1.05,1.05,0,0,1,1.2,1.079h-.568Z" fill="#fff"/>
    <path id="Path_940" data-name="Path 940" d="M29.952,26.254h.536l-.378,1.683a1.431,1.431,0,0,1,1.135-.571c.6,0,.883.254.883.825a3.074,3.074,0,0,1-.095.635l-.378,1.841h-.536l.41-1.873a2.8,2.8,0,0,0,.063-.508c0-.318-.252-.445-.568-.445a1.1,1.1,0,0,0-.788.381,1.236,1.236,0,0,0-.347.667l-.378,1.778h-.536Z" fill="#fff"/>
    <path id="Path_941" data-name="Path 941" d="M33.357,27.492h.5l-.095.476A1.431,1.431,0,0,1,34.9,27.4c.6,0,.883.254.883.825a3.075,3.075,0,0,1-.095.635L35.312,30.7h-.536l.41-1.873a2.79,2.79,0,0,0,.063-.508c0-.317-.252-.444-.568-.444a1.1,1.1,0,0,0-.788.381,1.236,1.236,0,0,0-.347.667L33.168,30.7h-.536Z" fill="#fff"/>
    <path id="Path_942" data-name="Path 942" d="M37.9,30.317c.757,0,1.2-.889,1.2-1.524a.815.815,0,0,0-.851-.921c-.788,0-1.23.889-1.23,1.556A.83.83,0,0,0,37.9,30.317Zm.378-2.921A1.2,1.2,0,0,1,39.6,28.73a1.874,1.874,0,0,1-1.766,2.032,1.27,1.27,0,0,1-1.356-1.333A1.919,1.919,0,0,1,38.277,27.4Z" fill="#fff"/>
    <path id="Path_943" data-name="Path 943" d="M41.083,26.254h.536L40.673,30.7h-.5Z" fill="#fff"/>
    <path id="Path_944" data-name="Path 944" d="M43.322,30.317c.757,0,1.2-.889,1.2-1.524a.815.815,0,0,0-.851-.921c-.788,0-1.23.889-1.23,1.556A.83.83,0,0,0,43.322,30.317ZM43.7,27.4a1.2,1.2,0,0,1,1.325,1.333,1.873,1.873,0,0,1-1.766,2.032A1.27,1.27,0,0,1,41.9,29.429,1.9,1.9,0,0,1,43.7,27.4Z" fill="#fff"/>
    <path id="Path_945" data-name="Path 945" d="M47.043,30.254c.788,0,1.167-.889,1.167-1.556a.736.736,0,0,0-.82-.825c-.725,0-1.135.921-1.135,1.524A.78.78,0,0,0,47.043,30.254Zm1.388-.032a5.04,5.04,0,0,1-.252.889A1.419,1.419,0,0,1,46.728,32c-.662,0-1.261-.286-1.261-.984H46c.032.444.41.54.788.54.82,0,.977-.667,1.135-1.3a1.121,1.121,0,0,1-1.009.476,1.183,1.183,0,0,1-1.2-1.333,1.841,1.841,0,0,1,1.671-1.968A.983.983,0,0,1,48.4,28.1l.095-.6H49Z" fill="#fff"/>
    <path id="Path_946" data-name="Path 946" d="M50.67,26.889h-.536l.126-.635H50.8Zm-.631.6h.536L49.913,30.7h-.536Z" fill="#fff"/>
    <path id="Path_947" data-name="Path 947" d="M53.539,28.794c.032-.444-.158-.921-.757-.921a1.123,1.123,0,0,0-1.1.921Zm-1.924.444c0,.1-.032.191-.032.286a.763.763,0,0,0,.82.762.905.905,0,0,0,.915-.6h.536A1.4,1.4,0,0,1,52.4,30.762a1.221,1.221,0,0,1-1.356-1.3,1.842,1.842,0,0,1,1.64-2.063c.946,0,1.356.508,1.356,1.428a1.418,1.418,0,0,1-.063.413Z" fill="#fff"/>
    <path id="Path_948" data-name="Path 948" d="M56.756,28.413c.032-.381-.284-.54-.662-.54-.315,0-.694.1-.694.413,0,.286.41.413.851.6.41.159.851.413.851.889,0,.73-.694.984-1.293.984-.725,0-1.293-.254-1.293-1.079h.536c-.031.476.378.635.82.635.347,0,.725-.127.725-.476,0-.317-.41-.444-.851-.6s-.852-.381-.852-.857c0-.6.6-.921,1.2-.921s1.2.254,1.2,1.016h-.536Z" fill="#fff"/>
    <path id="Path_949" data-name="Path 949" d="M19.2.033,18,5.842h6.244L20.775,22.668h6.938L31.181,5.842h6.212l1.2-5.81Z" fill="#fff"/>
    <path id="Path_950" data-name="Path 950" d="M46.665,7.81h.063l.757,6.794h-4.32ZM44.867.032,31.875,22.667h7.064l1.734-3.238h7.347l.378,3.238h6.812L51.679.032Z" fill="#fff"/>
    <path id="Path_951" data-name="Path 951" d="M56.85.032l-1.2,5.81H61.9L58.427,22.667h6.938L68.833,5.841h6.244l1.2-5.81Z" fill="#fff"/>
    <path id="Path_952" data-name="Path 952" d="M70.315,16.857l-1.2,5.809H82.961a14.7,14.7,0,0,0,12.3-5.841Z" fill="#fff"/>
    <path id="Path_953" data-name="Path 953" d="M78.325,8.508l-1.2,5.81H92.894a14.7,14.7,0,0,0,12.3-5.841Z" fill="#fff"/>
    <path id="Path_954" data-name="Path 954" d="M86.051.032l-1.2,5.81h17.691A14.7,14.7,0,0,0,114.842,0Z" fill="#fff"/>
  </g>
</svg>
