<svg width="1920" height="654" viewBox="0 0 1920 654" fill="none" xmlns="http://www.w3.org/2000/svg">
<mask id="mask0_1748_15568" style="mask-type:alpha" maskUnits="userSpaceOnUse" x="0" y="-6" width="1920" height="660">
<rect x="-0.5" y="0.5" width="1919" height="659" transform="matrix(-1 0 0 1 1919 -6)" fill="#D9D9D9" stroke="white"/>
</mask>
<g mask="url(#mask0_1748_15568)">
<path d="M982.332 759.655C850.817 1037.84 521.22 1155.98 246.16 1023.54C-28.8987 891.106 -145.273 558.238 -13.7573 280.056C117.758 1.87405 447.355 -116.267 722.414 16.1688C997.473 148.605 1113.85 481.473 982.332 759.655Z" stroke="white"/>
<path d="M1269.5 675.5C1269.5 815.427 1185.85 942.165 1050.49 1033.94C915.13 1125.72 728.106 1182.5 521.5 1182.5C314.894 1182.5 127.87 1125.72 -7.48883 1033.94C-142.85 942.165 -226.5 815.427 -226.5 675.5C-226.5 535.573 -142.85 408.835 -7.48883 317.057C127.87 225.281 314.894 168.5 521.5 168.5C728.106 168.5 915.13 225.281 1050.49 317.057C1185.85 408.835 1269.5 535.573 1269.5 675.5Z" stroke="white"/>
</g>
</svg>
